<svg id="svg" version="1.1" xmlns="http://www.w3.org/2000/svg" xmlns:xlink="http://www.w3.org/1999/xlink" width="400" height="400" viewBox="0, 0, 400,400"><g id="svgg"><path id="path0" d="M193.400 84.438 C 184.962 85.640,179.314 87.180,173.697 89.810 C 172.065 90.574,170.668 91.200,170.594 91.200 C 170.183 91.200,163.372 95.592,160.847 97.485 C 156.029 101.097,150.419 107.115,140.792 119.000 C 139.366 120.760,137.984 122.380,137.721 122.600 C 137.458 122.820,136.288 124.189,135.121 125.643 C 133.305 127.905,126.487 136.029,123.743 139.200 C 121.870 141.365,107.717 158.197,106.400 159.827 C 105.630 160.780,102.368 164.674,99.151 168.480 C 95.935 172.286,90.205 179.090,86.420 183.600 C 82.634 188.110,79.146 192.251,78.668 192.802 C 78.191 193.353,76.090 195.872,74.000 198.400 C 69.833 203.440,70.096 203.129,64.728 209.400 C 56.299 219.248,52.925 224.636,49.671 233.444 C 37.594 266.131,54.245 302.493,86.000 312.776 C 91.130 314.437,91.603 314.542,98.677 315.578 C 108.455 317.011,121.741 314.898,131.540 310.350 C 133.377 309.497,134.938 308.800,135.010 308.800 C 135.355 308.800,142.057 304.536,144.000 303.080 C 147.675 300.326,153.432 294.514,158.539 288.400 C 161.204 285.210,163.480 282.510,163.598 282.400 C 163.715 282.290,164.616 281.210,165.600 280.000 C 166.584 278.790,167.481 277.710,167.595 277.600 C 167.708 277.490,169.159 275.780,170.819 273.800 C 172.480 271.820,175.731 267.950,178.043 265.200 C 180.356 262.450,184.193 257.860,186.569 255.000 C 188.946 252.140,191.365 249.235,191.945 248.544 C 192.525 247.853,194.440 245.569,196.200 243.467 C 200.129 238.775,199.900 238.775,203.800 243.474 C 205.560 245.594,207.182 247.525,207.405 247.764 C 207.627 248.004,209.224 249.910,210.953 252.000 C 212.682 254.090,214.480 256.250,214.948 256.800 C 215.417 257.351,218.582 261.131,221.983 265.200 C 225.383 269.270,228.273 272.690,228.404 272.800 C 228.726 273.071,237.941 284.104,241.307 288.250 C 253.404 303.150,267.757 312.449,282.200 314.743 C 283.740 314.988,286.185 315.370,287.633 315.594 C 294.616 316.671,304.856 315.667,313.000 313.105 C 329.716 307.847,344.934 293.378,350.404 277.542 C 350.887 276.144,351.419 274.640,351.586 274.200 C 352.323 272.255,352.791 270.407,353.207 267.800 C 353.452 266.260,353.821 264.025,354.026 262.833 C 354.521 259.962,354.503 251.732,353.994 248.433 C 353.770 246.985,353.388 244.540,353.143 243.000 C 351.489 232.584,345.752 221.625,335.974 210.200 C 333.527 207.340,330.956 204.303,330.262 203.451 C 328.623 201.438,324.353 196.343,322.175 193.800 C 321.233 192.700,319.864 191.062,319.131 190.159 C 318.399 189.257,315.550 185.857,312.800 182.604 C 310.050 179.351,306.654 175.319,305.254 173.645 C 303.854 171.970,302.324 170.148,301.854 169.595 C 301.384 169.042,299.119 166.342,296.820 163.595 C 294.521 160.848,291.198 156.890,289.435 154.800 C 287.672 152.710,284.795 149.290,283.042 147.200 C 281.288 145.110,279.302 142.764,278.627 141.986 C 277.952 141.208,276.590 139.601,275.600 138.415 C 274.610 137.230,272.657 134.896,271.259 133.230 C 269.862 131.563,268.420 129.840,268.055 129.400 C 267.689 128.960,265.945 126.890,264.177 124.800 C 262.410 122.710,259.914 119.740,258.630 118.200 C 257.346 116.660,255.913 114.950,255.446 114.400 C 254.979 113.850,252.707 111.163,250.398 108.429 C 239.925 96.028,227.909 88.703,212.600 85.385 C 206.927 84.156,198.353 83.733,193.400 84.438 M206.641 119.424 C 220.251 123.666,229.000 139.369,225.034 152.435 C 222.934 159.354,221.646 161.421,213.344 171.192 C 209.786 175.381,206.531 179.244,203.800 182.523 C 200.023 187.057,199.986 187.065,197.363 183.876 C 196.243 182.514,192.815 178.430,189.745 174.800 C 177.766 160.638,176.713 159.015,174.824 151.800 C 173.928 148.381,174.543 138.124,175.714 136.953 C 175.871 136.795,176.000 136.432,176.000 136.145 C 176.000 133.511,180.778 126.907,185.000 123.705 C 191.571 118.722,199.412 117.171,206.641 119.424 M145.801 170.300 C 149.920 179.186,152.266 182.325,173.500 207.365 C 177.933 212.592,178.164 213.184,176.490 215.000 C 175.881 215.660,174.937 216.758,174.391 217.441 C 173.286 218.824,169.580 223.258,168.242 224.800 C 167.764 225.350,165.672 227.870,163.593 230.400 C 161.513 232.930,159.536 235.270,159.199 235.600 C 158.861 235.930,157.780 237.190,156.795 238.400 C 155.810 239.610,153.401 242.490,151.440 244.800 C 145.654 251.617,140.426 257.825,138.466 260.209 C 125.279 276.242,122.657 278.427,113.731 280.818 C 92.854 286.413,73.677 265.306,81.187 245.000 C 82.807 240.620,84.781 237.507,89.442 231.982 C 91.399 229.663,93.720 226.891,94.600 225.823 C 95.480 224.755,96.387 223.683,96.616 223.441 C 96.845 223.198,98.282 221.470,99.809 219.600 C 101.337 217.730,102.687 216.110,102.810 216.000 C 103.168 215.679,111.207 206.123,113.448 203.355 C 115.757 200.502,117.624 198.274,118.944 196.800 C 119.436 196.250,120.637 194.810,121.614 193.600 C 122.590 192.390,123.487 191.310,123.608 191.200 C 123.728 191.090,125.710 188.753,128.013 186.007 C 130.316 183.261,132.592 180.561,133.071 180.007 C 133.550 179.453,134.540 178.263,135.271 177.363 C 140.701 170.675,143.774 167.200,144.258 167.200 C 144.316 167.200,145.010 168.595,145.801 170.300 M259.089 170.600 C 260.382 172.140,264.461 177.000,268.153 181.400 C 271.846 185.800,275.257 189.850,275.733 190.401 C 276.210 190.951,279.377 194.731,282.771 198.801 C 291.356 209.094,296.957 215.764,297.214 216.000 C 297.588 216.344,311.285 232.757,313.640 235.683 C 319.249 242.655,321.956 254.026,319.666 261.000 C 314.091 277.976,299.501 285.472,283.059 279.809 C 276.618 277.590,273.997 275.230,262.600 261.383 C 261.720 260.314,259.830 258.069,258.400 256.395 C 256.970 254.721,255.054 252.462,254.142 251.375 C 245.475 241.049,242.334 237.316,239.861 234.400 C 238.274 232.530,234.194 227.670,230.793 223.600 C 227.392 219.530,224.114 215.660,223.507 215.000 C 221.937 213.293,222.109 212.555,224.812 209.400 C 226.131 207.860,228.326 205.250,229.689 203.600 C 231.053 201.950,233.255 199.334,234.584 197.786 C 235.913 196.239,237.720 194.097,238.600 193.027 C 239.480 191.957,240.387 190.883,240.616 190.641 C 246.142 184.788,252.762 174.616,255.170 168.279 C 255.721 166.830,256.123 167.067,259.089 170.600 " stroke="none" fill="#248DDA" fill-rule="evenodd"></path><path id="path1" d="M0.000 200.000 L 0.000 400.000 200.000 400.000 L 400.000 400.000 400.000 200.000 L 400.000 0.000 200.000 0.000 L 0.000 0.000 0.000 200.000 M207.200 84.566 C 224.965 86.931,238.607 94.467,250.398 108.429 C 252.707 111.163,254.979 113.850,255.446 114.400 C 255.913 114.950,257.346 116.660,258.630 118.200 C 259.914 119.740,262.410 122.710,264.177 124.800 C 265.945 126.890,267.689 128.960,268.055 129.400 C 268.420 129.840,269.862 131.563,271.259 133.230 C 272.657 134.896,274.610 137.230,275.600 138.415 C 276.590 139.601,277.952 141.208,278.627 141.986 C 279.302 142.764,281.288 145.110,283.042 147.200 C 284.795 149.290,287.672 152.710,289.435 154.800 C 291.198 156.890,294.521 160.848,296.820 163.595 C 299.119 166.342,301.384 169.042,301.854 169.595 C 302.324 170.148,303.854 171.970,305.254 173.645 C 306.654 175.319,310.050 179.351,312.800 182.604 C 315.550 185.857,318.399 189.257,319.131 190.159 C 319.864 191.062,321.233 192.700,322.175 193.800 C 324.353 196.343,328.623 201.438,330.262 203.451 C 330.956 204.303,333.527 207.340,335.974 210.200 C 345.752 221.625,351.489 232.584,353.143 243.000 C 353.388 244.540,353.770 246.985,353.994 248.433 C 354.503 251.732,354.521 259.962,354.026 262.833 C 353.821 264.025,353.452 266.260,353.207 267.800 C 352.791 270.407,352.323 272.255,351.586 274.200 C 351.419 274.640,350.887 276.144,350.404 277.542 C 344.934 293.378,329.716 307.847,313.000 313.105 C 304.856 315.667,294.616 316.671,287.633 315.594 C 286.185 315.370,283.740 314.988,282.200 314.743 C 267.757 312.449,253.404 303.150,241.307 288.250 C 237.941 284.104,228.726 273.071,228.404 272.800 C 228.273 272.690,225.383 269.270,221.983 265.200 C 218.582 261.131,215.417 257.351,214.948 256.800 C 214.480 256.250,212.682 254.090,210.953 252.000 C 209.224 249.910,207.627 248.004,207.405 247.764 C 207.182 247.525,205.560 245.594,203.800 243.474 C 199.900 238.775,200.129 238.775,196.200 243.467 C 194.440 245.569,192.525 247.853,191.945 248.544 C 191.365 249.235,188.946 252.140,186.569 255.000 C 184.193 257.860,180.356 262.450,178.043 265.200 C 175.731 267.950,172.480 271.820,170.819 273.800 C 169.159 275.780,167.708 277.490,167.595 277.600 C 167.481 277.710,166.584 278.790,165.600 280.000 C 164.616 281.210,163.715 282.290,163.598 282.400 C 163.480 282.510,161.204 285.210,158.539 288.400 C 153.432 294.514,147.675 300.326,144.000 303.080 C 142.057 304.536,135.355 308.800,135.010 308.800 C 134.938 308.800,133.377 309.497,131.540 310.350 C 121.741 314.898,108.455 317.011,98.677 315.578 C 91.603 314.542,91.130 314.437,86.000 312.776 C 54.245 302.493,37.594 266.131,49.671 233.444 C 52.925 224.636,56.299 219.248,64.728 209.400 C 70.096 203.129,69.833 203.440,74.000 198.400 C 76.090 195.872,78.191 193.353,78.668 192.802 C 79.146 192.251,82.634 188.110,86.420 183.600 C 90.205 179.090,95.935 172.286,99.151 168.480 C 102.368 164.674,105.630 160.780,106.400 159.827 C 107.717 158.197,121.870 141.365,123.743 139.200 C 126.487 136.029,133.305 127.905,135.121 125.643 C 136.288 124.189,137.458 122.820,137.721 122.600 C 137.984 122.380,139.366 120.760,140.792 119.000 C 150.419 107.115,156.029 101.097,160.847 97.485 C 163.372 95.592,170.183 91.200,170.594 91.200 C 170.668 91.200,172.065 90.574,173.697 89.810 C 183.704 85.124,196.429 83.132,207.200 84.566 M193.600 119.354 C 186.791 121.731,183.473 124.091,179.354 129.488 C 177.960 131.313,176.000 135.205,176.000 136.145 C 176.000 136.432,175.871 136.795,175.714 136.953 C 174.543 138.124,173.928 148.381,174.824 151.800 C 176.713 159.015,177.766 160.638,189.745 174.800 C 192.815 178.430,196.243 182.514,197.363 183.876 C 199.986 187.065,200.023 187.057,203.800 182.523 C 206.531 179.244,209.786 175.381,213.344 171.192 C 220.451 162.828,221.878 160.815,223.379 157.035 C 226.670 148.750,226.562 141.359,223.035 133.460 C 218.142 122.507,203.994 115.727,193.600 119.354 M143.518 167.700 C 142.951 168.147,138.893 172.901,135.271 177.363 C 134.540 178.263,133.550 179.453,133.071 180.007 C 132.592 180.561,130.316 183.261,128.013 186.007 C 125.710 188.753,123.728 191.090,123.608 191.200 C 123.487 191.310,122.590 192.390,121.614 193.600 C 120.637 194.810,119.436 196.250,118.944 196.800 C 117.624 198.274,115.757 200.502,113.448 203.355 C 111.207 206.123,103.168 215.679,102.810 216.000 C 102.687 216.110,101.337 217.730,99.809 219.600 C 98.282 221.470,96.845 223.198,96.616 223.441 C 96.387 223.683,95.480 224.755,94.600 225.823 C 93.720 226.891,91.399 229.663,89.442 231.982 C 79.147 244.185,76.869 255.508,82.483 266.572 C 90.194 281.766,108.846 286.284,123.292 276.457 C 126.920 273.989,128.697 272.086,138.466 260.209 C 140.426 257.825,145.654 251.617,151.440 244.800 C 153.401 242.490,155.810 239.610,156.795 238.400 C 157.780 237.190,158.861 235.930,159.199 235.600 C 159.536 235.270,161.513 232.930,163.593 230.400 C 165.672 227.870,167.764 225.350,168.242 224.800 C 169.580 223.258,173.286 218.824,174.391 217.441 C 174.937 216.758,175.881 215.660,176.490 215.000 C 178.164 213.184,177.933 212.592,173.500 207.365 C 152.266 182.325,149.920 179.186,145.801 170.300 C 145.010 168.595,144.316 167.200,144.258 167.200 C 144.200 167.200,143.867 167.425,143.518 167.700 M255.170 168.279 C 252.762 174.616,246.142 184.788,240.616 190.641 C 240.387 190.883,239.480 191.957,238.600 193.027 C 237.720 194.097,235.913 196.239,234.584 197.786 C 233.255 199.334,231.053 201.950,229.689 203.600 C 228.326 205.250,226.131 207.860,224.812 209.400 C 222.109 212.555,221.937 213.293,223.507 215.000 C 224.114 215.660,227.392 219.530,230.793 223.600 C 234.194 227.670,238.274 232.530,239.861 234.400 C 242.334 237.316,245.475 241.049,254.142 251.375 C 255.054 252.462,256.970 254.721,258.400 256.395 C 259.830 258.069,261.720 260.314,262.600 261.383 C 273.997 275.230,276.618 277.590,283.059 279.809 C 299.501 285.472,314.091 277.976,319.666 261.000 C 321.956 254.026,319.249 242.655,313.640 235.683 C 311.285 232.757,297.588 216.344,297.214 216.000 C 296.957 215.764,291.356 209.094,282.771 198.801 C 279.377 194.731,276.210 190.951,275.733 190.401 C 275.257 189.850,271.846 185.800,268.153 181.400 C 264.461 177.000,260.382 172.140,259.089 170.600 C 256.123 167.067,255.721 166.830,255.170 168.279 " stroke="none" fill="none" fill-rule="evenodd"></path></g></svg>
