<svg id="svg" version="1.1" xmlns="http://www.w3.org/2000/svg" xmlns:xlink="http://www.w3.org/1999/xlink" width="400" height="400" viewBox="0, 0, 400,400"><g id="svgg"><path id="path0" d="M154.356 135.751 C 152.071 138.030,150.708 139.808,149.660 141.873 C 149.193 142.793,148.640 143.651,148.431 143.781 C 147.973 144.064,144.990 148.578,142.100 153.359 C 141.715 153.997,140.929 155.077,140.354 155.759 C 139.778 156.442,138.916 157.720,138.438 158.600 C 137.422 160.468,136.053 162.511,134.684 164.200 C 134.150 164.860,133.392 166.030,133.000 166.800 C 132.608 167.570,131.908 168.672,131.444 169.250 C 130.980 169.827,130.240 170.893,129.800 171.619 C 127.673 175.127,126.240 177.272,122.694 182.256 C 122.202 182.947,121.486 184.027,121.102 184.656 C 120.245 186.059,118.713 188.363,116.600 191.423 C 113.820 195.451,112.070 198.149,111.166 199.800 C 110.685 200.680,109.856 201.940,109.325 202.600 C 106.305 206.351,105.622 207.303,105.378 208.109 C 105.229 208.599,104.633 209.630,104.054 210.399 C 103.474 211.169,102.251 212.969,101.336 214.399 C 100.421 215.830,99.232 217.540,98.692 218.200 C 98.153 218.860,97.429 219.953,97.082 220.629 C 96.736 221.305,96.146 222.113,95.772 222.423 C 95.397 222.734,94.750 223.783,94.334 224.755 C 93.917 225.726,93.087 227.117,92.488 227.846 C 90.739 229.975,89.802 231.282,88.647 233.200 C 87.222 235.567,84.983 238.989,83.000 241.831 C 80.722 245.094,79.442 247.056,77.799 249.800 C 77.008 251.120,75.741 253.010,74.984 254.000 C 73.354 256.132,72.745 257.031,70.835 260.128 C 70.046 261.409,68.891 263.068,68.269 263.816 C 67.001 265.341,67.091 266.638,68.502 267.159 C 69.737 267.616,329.084 267.212,330.900 266.750 C 332.415 266.365,333.055 264.852,331.984 264.190 C 331.755 264.049,331.080 263.211,330.484 262.329 C 327.973 258.615,326.338 256.129,325.690 255.041 C 325.311 254.403,324.539 253.323,323.975 252.641 C 323.411 251.958,322.421 250.525,321.775 249.456 C 321.129 248.387,320.150 246.836,319.600 246.010 C 319.050 245.183,318.078 243.718,317.441 242.753 C 316.803 241.789,315.840 240.460,315.299 239.800 C 314.759 239.140,313.448 237.070,312.386 235.200 C 310.534 231.940,309.870 230.983,307.555 228.239 C 306.981 227.557,306.194 226.370,305.806 225.600 C 305.180 224.358,303.746 222.163,300.581 217.600 C 300.047 216.830,299.056 215.390,298.380 214.400 C 297.704 213.410,296.719 211.970,296.191 211.200 C 295.663 210.430,294.771 208.990,294.209 208.000 C 293.647 207.010,292.565 205.390,291.803 204.400 C 291.042 203.410,289.688 201.430,288.793 200.000 C 286.686 196.631,285.369 194.626,283.400 191.791 C 282.520 190.523,281.260 188.634,280.600 187.591 C 278.102 183.648,273.955 177.619,273.579 177.387 C 273.364 177.254,272.825 176.433,272.381 175.563 C 271.347 173.536,269.149 170.526,268.495 170.241 C 267.887 169.977,264.623 173.245,263.542 175.200 C 262.752 176.629,261.731 178.156,259.664 181.000 C 259.025 181.880,258.277 183.050,258.002 183.600 C 257.727 184.150,257.106 185.050,256.622 185.600 C 256.138 186.150,254.958 187.950,254.000 189.600 C 253.042 191.250,251.875 193.050,251.406 193.600 C 250.436 194.739,249.096 196.711,246.135 201.359 C 244.999 203.141,243.629 205.140,243.091 205.800 C 242.553 206.460,241.792 207.630,241.401 208.400 C 241.009 209.170,240.219 210.364,239.645 211.053 C 239.070 211.741,238.060 213.240,237.400 214.383 C 236.740 215.526,235.800 217.033,235.312 217.731 C 234.823 218.429,233.941 219.720,233.352 220.600 C 232.763 221.480,232.140 222.293,231.969 222.406 C 231.689 222.591,230.477 224.528,228.200 228.429 C 227.241 230.072,224.470 232.800,223.761 232.800 C 223.482 232.800,222.076 231.045,220.637 228.900 C 219.197 226.755,217.026 223.560,215.813 221.800 C 214.599 220.040,213.605 218.448,213.603 218.263 C 213.602 218.078,213.227 217.448,212.771 216.863 C 212.315 216.278,211.417 214.990,210.776 214.000 C 210.135 213.010,208.981 211.390,208.212 210.400 C 207.442 209.410,206.351 207.790,205.786 206.800 C 204.685 204.870,202.725 201.867,200.285 198.371 C 199.452 197.177,198.372 195.629,197.885 194.931 C 197.398 194.233,196.460 192.733,195.800 191.597 C 195.140 190.462,193.520 188.087,192.200 186.320 C 190.880 184.553,188.864 181.553,187.719 179.654 C 186.575 177.754,184.775 175.062,183.719 173.671 C 182.664 172.279,181.260 170.209,180.600 169.071 C 178.141 164.828,177.777 164.254,176.773 163.041 C 175.699 161.743,173.051 157.893,171.756 155.747 C 171.046 154.571,168.269 150.346,166.137 147.200 C 163.236 142.918,162.343 141.522,161.373 139.754 C 160.783 138.679,159.896 137.350,159.400 136.800 C 158.904 136.250,158.289 135.395,158.035 134.900 C 157.346 133.560,156.312 133.799,154.356 135.751 " stroke="none" fill="#eee" fill-rule="evenodd"></path><path id="path1" d="M0.000 200.000 L 0.000 400.000 200.000 400.000 L 400.000 400.000 400.000 200.000 L 400.000 0.000 200.000 0.000 L 0.000 0.000 0.000 200.000 M158.035 134.900 C 158.289 135.395,158.904 136.250,159.400 136.800 C 159.896 137.350,160.783 138.679,161.373 139.754 C 162.343 141.522,163.236 142.918,166.137 147.200 C 168.269 150.346,171.046 154.571,171.756 155.747 C 173.051 157.893,175.699 161.743,176.773 163.041 C 177.777 164.254,178.141 164.828,180.600 169.071 C 181.260 170.209,182.664 172.279,183.719 173.671 C 184.775 175.062,186.575 177.754,187.719 179.654 C 188.864 181.553,190.880 184.553,192.200 186.320 C 193.520 188.087,195.140 190.462,195.800 191.597 C 196.460 192.733,197.398 194.233,197.885 194.931 C 198.372 195.629,199.452 197.177,200.285 198.371 C 202.725 201.867,204.685 204.870,205.786 206.800 C 206.351 207.790,207.442 209.410,208.212 210.400 C 208.981 211.390,210.135 213.010,210.776 214.000 C 211.417 214.990,212.315 216.278,212.771 216.863 C 213.227 217.448,213.602 218.078,213.603 218.263 C 213.605 218.448,214.599 220.040,215.813 221.800 C 217.026 223.560,219.197 226.755,220.637 228.900 C 222.076 231.045,223.482 232.800,223.761 232.800 C 224.470 232.800,227.241 230.072,228.200 228.429 C 230.477 224.528,231.689 222.591,231.969 222.406 C 232.140 222.293,232.763 221.480,233.352 220.600 C 233.941 219.720,234.823 218.429,235.312 217.731 C 235.800 217.033,236.740 215.526,237.400 214.383 C 238.060 213.240,239.070 211.741,239.645 211.053 C 240.219 210.364,241.009 209.170,241.401 208.400 C 241.792 207.630,242.553 206.460,243.091 205.800 C 243.629 205.140,244.999 203.141,246.135 201.359 C 249.096 196.711,250.436 194.739,251.406 193.600 C 251.875 193.050,253.042 191.250,254.000 189.600 C 254.958 187.950,256.138 186.150,256.622 185.600 C 257.106 185.050,257.727 184.150,258.002 183.600 C 258.277 183.050,259.025 181.880,259.664 181.000 C 261.731 178.156,262.752 176.629,263.542 175.200 C 264.623 173.245,267.887 169.977,268.495 170.241 C 269.149 170.526,271.347 173.536,272.381 175.563 C 272.825 176.433,273.364 177.254,273.579 177.387 C 273.955 177.619,278.102 183.648,280.600 187.591 C 281.260 188.634,282.520 190.523,283.400 191.791 C 285.369 194.626,286.686 196.631,288.793 200.000 C 289.688 201.430,291.042 203.410,291.803 204.400 C 292.565 205.390,293.647 207.010,294.209 208.000 C 294.771 208.990,295.663 210.430,296.191 211.200 C 296.719 211.970,297.704 213.410,298.380 214.400 C 299.056 215.390,300.047 216.830,300.581 217.600 C 303.746 222.163,305.180 224.358,305.806 225.600 C 306.194 226.370,306.981 227.557,307.555 228.239 C 309.870 230.983,310.534 231.940,312.386 235.200 C 313.448 237.070,314.759 239.140,315.299 239.800 C 315.840 240.460,316.803 241.789,317.441 242.753 C 318.078 243.718,319.050 245.183,319.600 246.010 C 320.150 246.836,321.129 248.387,321.775 249.456 C 322.421 250.525,323.411 251.958,323.975 252.641 C 324.539 253.323,325.311 254.403,325.690 255.041 C 326.338 256.129,327.973 258.615,330.484 262.329 C 331.080 263.211,331.755 264.049,331.984 264.190 C 333.055 264.852,332.415 266.365,330.900 266.750 C 329.084 267.212,69.737 267.616,68.502 267.159 C 67.091 266.638,67.001 265.341,68.269 263.816 C 68.891 263.068,70.046 261.409,70.835 260.128 C 72.745 257.031,73.354 256.132,74.984 254.000 C 75.741 253.010,77.008 251.120,77.799 249.800 C 79.442 247.056,80.722 245.094,83.000 241.831 C 84.983 238.989,87.222 235.567,88.647 233.200 C 89.802 231.282,90.739 229.975,92.488 227.846 C 93.087 227.117,93.917 225.726,94.334 224.755 C 94.750 223.783,95.397 222.734,95.772 222.423 C 96.146 222.113,96.736 221.305,97.082 220.629 C 97.429 219.953,98.153 218.860,98.692 218.200 C 99.232 217.540,100.421 215.830,101.336 214.399 C 102.251 212.969,103.474 211.169,104.054 210.399 C 104.633 209.630,105.229 208.599,105.378 208.109 C 105.622 207.303,106.305 206.351,109.325 202.600 C 109.856 201.940,110.685 200.680,111.166 199.800 C 112.070 198.149,113.820 195.451,116.600 191.423 C 118.713 188.363,120.245 186.059,121.102 184.656 C 121.486 184.027,122.202 182.947,122.694 182.256 C 126.240 177.272,127.673 175.127,129.800 171.619 C 130.240 170.893,130.980 169.827,131.444 169.250 C 131.908 168.672,132.608 167.570,133.000 166.800 C 133.392 166.030,134.150 164.860,134.684 164.200 C 136.053 162.511,137.422 160.468,138.438 158.600 C 138.916 157.720,139.778 156.442,140.354 155.759 C 140.929 155.077,141.715 153.997,142.100 153.359 C 144.990 148.578,147.973 144.064,148.431 143.781 C 148.640 143.651,149.193 142.793,149.660 141.873 C 152.340 136.592,156.936 132.765,158.035 134.900 " stroke="none" fill="none" fill-rule="evenodd"></path></g></svg>
