<svg id="SvgjsSvg1001" width="288" height="288" xmlns="http://www.w3.org/2000/svg" version="1.1" xmlns:xlink="http://www.w3.org/1999/xlink" xmlns:svgjs="http://svgjs.com/svgjs"><defs id="SvgjsDefs1002"></defs><g id="SvgjsG1008"><svg xmlns="http://www.w3.org/2000/svg" data-name="Layer 1" viewBox="0 0 2000 2000" width="288" height="288"><path d="M1853.09,639.45A927.94,927.94,0,1,0,1926,1000,922.51,922.51,0,0,0,1853.09,639.45ZM1000,1576c-318.12,0-576-257.88-576-576s257.88-576,576-576,576,257.88,576,576S1318.12,1576,1000,1576Z" fill="#212121" class="color000 svgShape"></path><path fill="#eeeeee" d="M184.27 825.81l143 26.85-7.29 38.81L177 864.62zM234.26 663.78l137.2 48.29-10.94 31.08L271 767.36l-.29.8 72.09 25.37-13.11 37.25L192.47 782.49l11.13-31.62 89-23.49.37-1.08L221.15 701zM407.29 489.62l-23.42 32.5a27.66 27.66 0 00-8.62-3.45 21.38 21.38 0 00-8.58-.06 21.74 21.74 0 00-8.16 3.54 30.26 30.26 0 00-7.23 7.31q-5.8 8.07-5.9 16.45a29.55 29.55 0 005.18 16.51q5.26 8.12 15.52 15.51 10.83 7.8 20.22 10.15t17-.56a29 29 0 0013.25-10.67 32.18 32.18 0 004.61-8.77 22.37 22.37 0 001.14-8.45 21.35 21.35 0 00-2.11-8 25.28 25.28 0 00-5.23-7.14l23.65-32.34a54.2 54.2 0 0112.21 15.19A60.83 60.83 0 01457.73 548a61.67 61.67 0 01-1.33 24q-3.09 12.66-12.43 25.63-11.7 16.25-28 24.11a62.07 62.07 0 01-35.17 5.56q-18.92-2.29-38.51-16.41t-27.75-31.53a63 63 0 01-5.68-35.26 73.71 73.71 0 0113.82-33.81 81.34 81.34 0 0117.87-18.38 61.3 61.3 0 0120.78-10.06A54.74 54.74 0 01384 480.79 64.9 64.9 0 01407.29 489.62zM549.21 382.77q16.1 18.19 20 36.94a63.11 63.11 0 01-2.4 35.77 74.79 74.79 0 01-21.16 30.12q-14.9 13.17-32.61 17.31a63.38 63.38 0 01-35.8-2.1q-18.07-6.24-34.07-24.34t-20.07-36.91a62.88 62.88 0 012.36-35.73q6.33-17 21.23-30.19a74.81 74.81 0 0132.48-17.29 63 63 0 0135.81 2Q533.13 364.58 549.21 382.77zm-30.44 26.91q-8.65-9.8-17.18-14.24T485 391.94q-8.11 1-15.46 7.46t-9.29 14.42q-1.95 7.92 1.42 16.94t12 18.8q8.66 9.79 17.18 14.25t16.64 3.49q8.12-1 15.46-7.45t9.29-14.43q1.95-7.92-1.42-16.94T518.77 409.68zM613.44 428.44L540.35 302.69l34.14-19.85 57.11 98.25 50.84-29.55 16 27.51zM714.63 371.64L663.76 235.37l37-13.81L740.5 328l55.09-20.56 11.13 29.81zM858.81 325.43l-42.08 6.7 24.53-151.2 53.3-8.49 70.3 136.09-42.08 6.71-48-99.08-1.13.17zM841.93 270L921 257.4l4.65 29.18-79.11 12.6zM978.13 309.72l7.36-145.27 63 3.19q16.59.84 27.68 5.88T1092.62 187a32.39 32.39 0 014.8 19.52 30.56 30.56 0 01-4.25 14.43 31.4 31.4 0 01-10.38 10.54 38.72 38.72 0 01-15.06 5.38l-.08 1.42a36.91 36.91 0 0116.79 5.58A33 33 0 011096 256.49a34.44 34.44 0 013.64 18.14 37.34 37.34 0 01-7.29 20.89A41.8 41.8 0 011074 309.24q-11.7 4.74-27.51 3.94zm41-29.5l18.44.94q9.93.49 15.08-3t5.53-10.78a15.39 15.39 0 00-1.91-8.77 14.58 14.58 0 00-6.36-5.73 26.25 26.25 0 00-10.22-2.37l-19-1zm2.78-55l16.18.82a24.13 24.13 0 009.23-1.17 14 14 0 006.44-4.4 12.5 12.5 0 002.62-7.44q.35-6.75-4.3-10.57t-12-4.2l-16.74-.85zM1265.53 283.08q-6.29 23.46-19.71 37.11A63.12 63.12 0 011214.67 338a79.11 79.11 0 01-69.24-18.6 63.4 63.4 0 01-18-31q-4.79-18.53 1.46-41.85t19.67-37.12a62.94 62.94 0 0131.08-17.78q17.69-4.14 36.89 1a74.85 74.85 0 0132.37 17.52A63 63 0 011267 241.08Q1271.81 259.62 1265.53 283.08zm-39.25-10.5q3.38-12.63 2.37-22.2t-6.28-15.79q-5.28-6.22-14.75-8.76t-17.16.22q-7.68 2.76-13.33 10.55t-9 20.41q-3.37 12.63-2.37 22.2T1172 295q5.28 6.24 14.74 8.77t17.16-.23q7.68-2.76 13.33-10.55T1226.28 272.58zM1262.28 360.85l66.32-129.46L1384.48 260q14.4 7.38 22.53 18.17a44.1 44.1 0 019.07 23.72q1 12.93-6.1 26.72t-18.18 20.29a43 43 0 01-24.64 5.57q-13.59-.81-28.38-8.39L1305.41 329l14-27.31 26.29 13.47a36 36 0 0011.38 3.88 15 15 0 009.31-1.5q4.13-2.19 6.94-7.7a17.91 17.91 0 002.27-10.28 15.53 15.53 0 00-4.11-8.65 33.39 33.39 0 00-9.73-7.1l-12.38-6.35-51.95 101.39zm106.29-20.56l1.92 76-38.18-19.56-1.16-75.61zM1409.4 445.72l-33-26.92 129.11-82.42 41.84 34.11-54.68 143.08-33-26.92 41.92-101.81-.88-.71zm30.09-49.51l62.1 50.62-18.67 22.9-62.1-50.61zM1573.32 435.78l24.35-20.47L1679 512.06l-24.36 20.48-28.15-33.48-87 73.13-25-29.78 87-73.14zM1720.36 579.54l-123.79 76.39-20.74-33.61 123.79-76.38zM1730.79 775.46q-22.45 9.27-41.45 6.88a63.06 63.06 0 01-33-14 74.78 74.78 0 01-21.56-29.83q-7.57-18.37-5.71-36.48a63.43 63.43 0 0113.68-33.14q11.8-15.06 34.13-24.26t41.44-6.91a63 63 0 0133 13.9q14 11.54 21.6 29.92a74.92 74.92 0 015.73 36.36A63.06 63.06 0 011765 751.12Q1753.25 766.21 1730.79 775.46zm-15.49-37.55q12.09-5 19.08-11.59t8.73-14.59q1.74-8-2-17t-10.6-13.49q-6.86-4.44-16.48-4.19t-21.7 5.22q-12.08 5-19.07 11.59t-8.74 14.59q-1.74 8 2 17t10.59 13.49q6.87 4.42 16.48 4.19T1715.3 737.91zM1832.19 918.64l-143.32 24.85L1683.24 911l66.32-64.84-.15-.84-75.29 13.06-6.75-38.91 143.31-24.85 5.73 33-66.18 64 .19 1.12 75-13zM723.24 1789.13l-3.74-151.6L762 1648.94l-4 91.58 1.1.3 46-80.33 33.47 9-.48 92.82 1.1.29L881.66 1681l42.53 11.41-79.12 129.37L808.58 1812l-2.82-84.88-1.1-.29-44.92 72.07zM977.35 1688.25l-8.77 145.19-39.41-2.38 8.76-145.19zM998.39 1722.86l-2.74-31.7 125.95-10.86 2.74 31.7-43.59 3.76 9.77 113.21-38.78 3.35L1042 1719.1zM1177.44 1817.26l-41.77-139.33 37.82-11.34 16.32 54.43 50.07-15-16.32-54.43 37.83-11.34 41.77 139.33-37.83 11.34L1249 1736.49l-50.07 15 16.31 54.42z" class="colorfff svgShape"></path></svg></g></svg>