<svg id="SvgjsSvg1019" width="288" height="288" xmlns="http://www.w3.org/2000/svg" version="1.1" xmlns:xlink="http://www.w3.org/1999/xlink" xmlns:svgjs="http://svgjs.com/svgjs"><defs id="SvgjsDefs1020"></defs><g id="SvgjsG1021"><svg xmlns="http://www.w3.org/2000/svg" xmlns:svgjs="http://svgjs.com/svgjs" xmlns:xlink="http://www.w3.org/1999/xlink" width="288" height="288"><svg xmlns="http://www.w3.org/2000/svg" width="288" height="288" data-name="Layer 1" viewBox="0 0 2000 2000"><path fill="#121212" d="M1853.09,639.45A927.94,927.94,0,1,0,1926,1000,922.51,922.51,0,0,0,1853.09,639.45ZM1000,1576c-318.12,0-576-257.88-576-576s257.88-576,576-576,576,257.88,576,576S1318.12,1576,1000,1576Z" class="color000 svgShape colorddd"></path><path fill="#eeeeee" d="M455.85 573.45L350.42 473.24l27.21-28.62 41.18 39.14 36-37.88-41.19-39.15 27.21-28.62L546.27 478.32 519.07 507 477.89 467.8l-36 37.89 41.18 39.14zM590.5 445.79l-35.4 23.72L514 322l44.84-30L679.71 386l-35.4 23.72-85.1-69.85-.94.63zM552 402.55L618.5 358 635 382.5 568.4 427.09zM778.46 249.63l-37.28 14.66a27.58 27.58 0 00-5.38-7.57 21.29 21.29 0 00-7.19-4.69 21.73 21.73 0 00-8.77-1.44 30.2 30.2 0 00-10 2.23q-9.25 3.65-13.87 10.64a29.54 29.54 0 00-4.58 16.69q0 9.68 4.66 21.44 4.89 12.44 11.52 19.48t14.62 8.75A29.1 29.1 0 00739.08 328a32.21 32.21 0 008.61-4.88 22.53 22.53 0 005.54-6.49 21.39 21.39 0 002.53-7.83 25.24 25.24 0 00-.54-8.83l37.38-14.4A53.9 53.9 0 01794.66 305a60.88 60.88 0 01-19.48 40.52q-9.43 9-24.31 14.83-18.64 7.33-36.56 5.14a61.94 61.94 0 01-32.58-14.35q-14.67-12.17-23.51-34.63T652 274.93a62.92 62.92 0 0114.3-32.72 73.68 73.68 0 0129.92-21 81.62 81.62 0 0125-5.78 61.37 61.37 0 0122.92 2.78 54.74 54.74 0 0119.57 11.34A64.78 64.78 0 01778.46 249.63zM828.08 330.46L804.9 186.86l39-6.29 9.37 58.05 2-.32 33.81-65 45.44-7.34-38.2 71.78 62.51 71.63-46.56 7.52-41-48.64-10.18 18.91 6 37zM1005.89 311l-42.55-2.32 55.88-142.62 53.9 2.94 40 147.86-42.55-2.32-26-107-1.13-.06zm-4.81-57.73l80 4.37-1.62 29.5-80-4.37zM1133.51 206.62l7.7-30.87 122.66 30.62-7.71 30.87-42.44-10.59L1186.19 336.9l-37.76-9.43L1176 217.22zM1241.92 352.07l63.69-130.77 35.5 17.29-24.88 51.08 47 22.89 24.88-51.08 35.5 17.28-63.69 130.78-35.5-17.29 24.88-51.09-47-22.88-24.88 51.08zM1530.16 449.52q-15.18 19-33 26.07a63.06 63.06 0 01-35.66 3.77 74.91 74.91 0 01-33.3-15.67q-15.54-12.42-22.65-29.16a63.42 63.42 0 01-4.07-35.63q3.06-18.88 18.14-37.74t32.92-26.1a62.79 62.79 0 0135.6-3.81 79.36 79.36 0 0156 44.77 63.11 63.11 0 014.16 35.62Q1545.32 430.54 1530.16 449.52zm-31.73-25.38q8.16-10.2 11.08-19.37t.59-17q-2.34-7.83-10-13.95t-15.81-6.68q-8.15-.56-16.44 4.31t-16.47 15.07q-8.16 10.2-11.08 19.37t-.58 17q2.32 7.82 10 13.94t15.8 6.68q8.14.57 16.45-4.3T1498.43 424.14zM1688.35 525.31l-113.13 91.41-20.72-25.63 26.42-88.91-.54-.66-59.44 48-24.82-30.72 113.14-91.41 21.07 26.07-26.73 88.07.72.88 59.22-47.85zM482.84 1656.35l82.17-120 51.8 35.46q13.37 9.15 19.78 21.28a46.54 46.54 0 015.44 25.5q-1 13.37-9.72 26.14t-21 18.42a46 46 0 01-25.95 3.58q-13.79-1.93-27.49-11.33l-31-21.18 17.34-25.32 24.38 16.69a26.52 26.52 0 0011.2 4.7 17.68 17.68 0 0010.22-1.48 20.87 20.87 0 008.26-7.35 20.44 20.44 0 003.84-10.32 17.53 17.53 0 00-2.42-9.92 27.24 27.24 0 00-8.47-8.68l-11.49-7.87-64.36 94zM636.38 1751.05l-39-17.1 102.34-114 49.44 21.66-14.39 152.5-39-17.11 13.15-109.3-1-.46zm15.74-55.75l73.38 32.15-11.86 27.06-73.38-32.15zM777 1805.61l29.07-142.52 61.52 12.55q15.87 3.24 26.59 11.44a44.23 44.23 0 0115.12 20.41q4.4 12.21 1.3 27.38t-12.06 24.43a43 43 0 01-22.23 12q-13.31 2.87-29.59-.45l-36.74-7.5 6.13-30.06 28.95 5.9a35.84 35.84 0 0012 .68 15 15 0 008.56-3.95q3.38-3.23 4.61-9.28a17.77 17.77 0 00-.57-10.52 15.55 15.55 0 00-6.28-7.22 33.18 33.18 0 00-11.28-4.22l-13.64-2.79L815.67 1813.5zm96.85-48.38l22.28 72.69-42-8.58-21.45-72.51zM933 1719.92l.13-31.82 126.42.49-.13 31.82-43.75-.17-.44 113.64-38.92-.16.44-113.63zM1197.45 1662.45L1226 1805.08l-32.31 6.46-66.53-64.63-.83.17 15 74.93-38.72 7.75L1074 1687.13l32.87-6.58 65.63 64.52 1.12-.22-14.93-74.66zM1270.93 1790.42l-55.7-134.37 96.83-40.14 12.19 29.39-60.36 25 9.57 23.09 55.38-23 12.18 29.39-55.37 23 9.57 23.1 60.1-24.92 12.18 29.4zM1410.07 1728.42l-80-121.5 52.45-34.52q13.53-8.91 26.91-10.66a44.18 44.18 0 0125.11 3.79q11.73 5.55 20.24 18.48t8.7 25.82a43 43 0 01-7.29 24.19q-7.39 11.42-21.28 20.55l-31.33 20.62-16.87-25.63 24.68-16.24a36 36 0 009-8 15 15 0 003.28-8.84q.12-4.66-3.28-9.83a17.89 17.89 0 00-7.82-7.05 15.64 15.64 0 00-9.55-.69 33.73 33.73 0 00-11 5l-11.62 7.66 62.63 95.15zm34.48-102.63l67.08 35.77-35.83 23.59-66.37-36.24z" class="colorddd svgShape color121212"></path></svg></svg></g></svg>