<svg id="svg" xmlns="http://www.w3.org/2000/svg" xmlns:xlink="http://www.w3.org/1999/xlink" width="400" height="52.89855072463768" viewBox="0, 0, 400,52.89855072463768">
    <g id="svgg">
        <path fill="#fff" id="path0" d="M8.696 18.116 L 8.696 28.986 14.679 28.986 C 23.131 28.986,26.763 30.218,26.800 33.100 C 26.827 35.123,24.502 36.232,20.238 36.232 L 15.942 36.232 15.942 39.855 L 15.942 43.478 20.967 43.478 C 32.875 43.478,39.595 32.972,31.519 26.981 L 29.825 25.725 31.760 23.684 C 34.296 21.011,34.517 14.994,32.195 11.829 C 29.466 8.108,26.654 7.249,17.210 7.248 L 8.696 7.246 8.696 18.116 M39.130 22.101 L 39.130 36.957 37.319 36.957 C 35.655 36.957,35.507 37.222,35.507 40.217 L 35.507 43.478 43.478 43.478 L 51.449 43.478 51.449 40.217 C 51.449 37.077,51.369 36.957,49.275 36.957 L 47.101 36.957 47.101 22.101 L 47.101 7.246 43.116 7.246 L 39.130 7.246 39.130 22.101 M51.449 10.507 L 51.449 13.768 62.681 13.768 L 73.913 13.768 73.913 10.507 L 73.913 7.246 62.681 7.246 L 51.449 7.246 51.449 10.507 M78.912 8.891 C 69.794 14.982,73.390 26.684,84.969 28.602 C 89.949 29.427,91.265 33.954,87.078 35.860 C 85.778 36.452,85.507 37.187,85.507 40.122 L 85.507 43.669 88.477 43.271 C 94.949 42.403,98.831 35.094,96.329 28.489 C 94.735 24.285,92.006 22.526,85.335 21.407 C 81.834 20.819,80.579 18.748,82.212 16.256 C 83.983 13.552,88.257 13.907,89.342 16.848 C 89.704 17.831,90.649 18.116,93.546 18.116 L 97.283 18.116 96.819 15.799 C 95.308 8.244,85.527 4.472,78.912 8.891 M108.696 18.023 L 108.696 28.799 116.618 29.126 C 125.086 29.475,126.812 30.136,126.812 33.034 C 126.812 35.307,124.834 36.232,119.975 36.232 L 115.942 36.232 115.942 39.855 L 115.942 43.478 120.967 43.478 C 132.850 43.478,139.091 34.280,132.048 27.148 C 130.715 25.799,130.372 25.044,130.994 24.827 C 133.874 23.824,135.006 15.959,132.806 12.234 C 130.576 8.459,126.773 7.246,117.163 7.246 L 108.696 7.246 108.696 18.023 M135.507 18.841 L 135.507 30.435 139.130 30.435 L 142.754 30.435 142.754 18.841 L 142.754 7.246 139.130 7.246 L 135.507 7.246 135.507 18.841 M166.667 8.402 C 158.551 11.917,154.195 23.409,157.600 32.325 C 163.550 47.905,186.243 47.393,190.963 31.571 C 195.682 15.753,181.319 2.055,166.667 8.402 M205.068 7.923 C 196.672 10.477,191.959 18.123,193.051 27.416 C 194.383 38.749,200.730 43.478,214.608 43.478 L 221.014 43.478 221.014 39.855 L 221.014 36.232 214.663 36.232 C 204.312 36.232,200.361 32.852,200.907 24.466 C 201.298 18.473,205.404 14.493,211.196 14.493 L 213.768 14.493 213.768 18.478 L 213.768 22.464 217.391 22.464 L 221.014 22.464 221.014 14.855 L 221.014 7.246 213.949 7.309 C 210.063 7.343,206.067 7.620,205.068 7.923 M222.489 24.457 L 222.514 41.667 227.389 36.344 L 232.265 31.021 237.201 37.250 L 242.137 43.478 246.793 43.478 C 252.693 43.478,252.740 43.676,244.565 34.058 C 240.779 29.603,237.681 25.813,237.681 25.636 C 237.681 25.458,240.779 21.509,244.565 16.860 C 252.727 6.838,252.628 7.244,246.920 7.256 L 242.391 7.266 236.232 14.961 L 230.072 22.656 229.867 14.951 L 229.661 7.246 226.062 7.246 L 222.464 7.246 222.489 24.457 M262.762 8.698 C 255.794 11.419,252.899 16.133,252.899 24.758 C 252.899 37.986,258.114 42.806,273.007 43.341 L 281.159 43.635 281.159 39.933 L 281.159 36.232 274.383 36.232 C 266.603 36.232,263.675 34.920,261.414 30.420 C 257.856 23.339,262.846 14.493,270.397 14.493 L 273.188 14.493 273.188 18.478 L 273.188 22.464 277.174 22.464 L 281.159 22.464 281.159 14.855 L 281.159 7.246 273.732 7.280 C 268.205 7.305,265.398 7.668,262.762 8.698 M281.884 15.217 L 281.884 23.188 285.507 23.188 L 289.130 23.188 289.130 15.217 L 289.130 7.246 285.507 7.246 L 281.884 7.246 281.884 15.217 M302.174 18.590 L 302.174 29.933 292.029 29.449 L 281.884 28.965 281.884 36.222 L 281.884 43.478 285.507 43.478 L 289.130 43.478 289.130 40.217 L 289.130 36.957 295.652 36.957 L 302.174 36.957 302.174 40.217 L 302.174 43.478 306.159 43.478 L 310.145 43.478 310.145 25.362 L 310.145 7.246 306.159 7.246 L 302.174 7.246 302.174 18.590 M317.572 24.530 C 309.649 44.950,309.875 43.479,314.674 43.476 L 318.478 43.474 321.688 34.065 C 323.454 28.891,325.011 24.770,325.149 24.908 C 325.287 25.046,326.823 29.199,328.561 34.137 L 331.723 43.116 335.881 43.336 C 339.072 43.505,339.953 43.336,339.664 42.611 C 339.458 42.092,336.272 33.922,332.586 24.457 C 328.899 14.991,325.521 7.248,325.079 7.250 C 324.637 7.252,321.259 15.028,317.572 24.530 M344.928 22.101 L 344.928 36.957 342.754 36.957 C 340.660 36.957,340.580 37.077,340.580 40.217 L 340.580 43.478 348.551 43.478 L 356.522 43.478 356.522 40.217 C 356.522 37.077,356.441 36.957,354.348 36.957 L 352.174 36.957 352.174 22.101 L 352.174 7.246 348.551 7.246 L 344.928 7.246 344.928 22.101 M356.522 21.014 L 356.522 34.783 360.480 34.783 L 364.438 34.783 364.647 28.228 L 364.855 21.674 372.397 32.576 L 379.938 43.478 383.810 43.478 L 387.681 43.478 387.681 25.362 L 387.681 7.246 384.076 7.246 L 380.472 7.246 380.272 18.595 L 380.072 29.943 372.146 18.595 L 364.220 7.246 360.371 7.246 L 356.522 7.246 356.522 21.014 M23.574 14.818 C 28.810 17.006,26.280 21.739,19.876 21.739 L 15.942 21.739 15.942 17.754 L 15.942 13.768 18.502 13.768 C 19.909 13.768,22.192 14.241,23.574 14.818 M125.077 15.281 C 128.384 18.026,125.451 21.739,119.975 21.739 L 116.667 21.739 116.667 17.653 L 116.667 13.566 120.367 14.004 C 122.402 14.245,124.521 14.820,125.077 15.281 M179.564 15.690 C 185.430 19.408,185.686 30.237,180.013 34.700 C 172.165 40.873,161.313 31.962,164.508 21.968 C 166.730 15.018,173.831 12.057,179.564 15.690 M58.696 31.884 L 58.696 43.478 62.319 43.478 L 65.942 43.478 65.942 31.884 L 65.942 20.290 62.319 20.290 L 58.696 20.290 58.696 31.884 M171.357 23.210 C 169.449 25.319,170.627 28.534,173.427 28.857 C 176.013 29.155,177.536 27.881,177.536 25.419 C 177.536 21.732,173.878 20.424,171.357 23.210 M135.507 39.855 L 135.507 43.478 145.652 43.478 L 155.797 43.478 155.797 39.855 L 155.797 36.232 145.652 36.232 L 135.507 36.232 135.507 39.855 " stroke="none" fill-rule="evenodd">
        </path>
    </g>
</svg>