<svg id="SvgjsSvg1001" width="288" height="288" xmlns="http://www.w3.org/2000/svg" version="1.1" xmlns:xlink="http://www.w3.org/1999/xlink" xmlns:svgjs="http://svgjs.com/svgjs"><defs id="SvgjsDefs1002"></defs><g id="SvgjsG1008"><svg xmlns="http://www.w3.org/2000/svg" width="288" height="288" viewBox="0 0 400 400"><path fill="#8346e3" fill-rule="evenodd" d="M124.155 65.946 C 123.031 66.362,121.321 67.155,120.355 67.710 C 116.624 69.853,104.250 77.087,89.400 85.805 C 86.100 87.743,80.880 90.790,77.800 92.577 C 48.339 109.668,48.876 109.251,46.645 116.773 C 45.670 120.056,45.664 198.312,46.638 201.627 C 48.635 208.427,51.539 211.389,62.266 217.574 C 70.532 222.340,78.826 227.134,87.000 231.870 C 89.640 233.400,95.400 236.737,99.800 239.287 C 104.200 241.837,110.140 245.300,113.000 246.984 C 115.860 248.667,119.730 250.800,121.600 251.722 L 125.000 253.400 129.800 253.400 C 136.937 253.400,134.215 254.694,166.000 236.192 C 174.919 231.000,178.635 228.846,196.000 218.805 C 207.469 212.174,235.827 195.699,252.800 185.807 C 263.076 179.818,265.745 179.120,272.521 180.650 C 275.975 181.429,276.709 181.791,287.200 187.881 C 291.710 190.499,299.434 194.972,304.365 197.821 C 316.743 204.971,319.598 207.799,321.366 214.658 C 322.296 218.264,322.314 260.210,321.387 263.816 C 320.073 268.931,315.908 274.492,311.794 276.627 C 310.149 277.480,296.085 285.806,293.600 287.398 C 273.154 300.495,268.066 301.415,255.838 294.223 C 250.878 291.306,237.141 283.327,229.600 278.982 C 216.319 271.331,215.200 268.885,215.200 247.526 L 215.200 233.979 213.900 234.647 C 211.770 235.740,187.093 250.051,185.900 250.885 L 184.800 251.654 184.800 265.573 C 184.800 287.732,185.796 289.831,200.227 298.064 C 203.952 300.190,214.200 306.106,223.000 311.212 C 267.802 337.206,261.362 334.000,268.773 334.000 C 275.889 334.000,275.779 334.037,285.498 328.373 C 296.771 321.804,303.558 317.868,318.200 309.405 C 347.929 292.222,348.183 292.049,350.752 287.229 C 353.292 282.463,353.200 284.261,353.200 239.558 C 353.200 184.832,356.262 192.101,325.800 174.509 C 322.720 172.730,312.820 166.997,303.800 161.769 C 294.780 156.541,284.972 150.857,282.005 149.138 C 272.236 143.478,265.894 143.351,256.960 148.638 C 245.572 155.377,213.015 174.475,211.200 175.481 C 209.990 176.151,205.310 178.728,200.800 181.208 C 187.687 188.416,182.915 191.114,177.800 194.211 C 175.160 195.810,172.370 197.472,171.600 197.904 C 170.830 198.337,163.540 202.703,155.400 207.608 C 136.053 219.265,136.625 219.000,130.800 219.000 C 124.300 219.000,123.920 218.837,108.000 209.237 C 100.190 204.528,91.652 199.405,89.026 197.853 C 76.912 190.695,76.415 189.189,76.410 159.600 C 76.405 132.972,76.655 131.433,81.878 125.949 C 84.249 123.459,85.209 122.847,102.200 113.001 C 105.940 110.834,111.096 107.837,113.657 106.340 C 124.004 100.296,125.369 99.805,130.958 100.106 C 136.294 100.394,137.711 100.998,148.860 107.730 C 154.437 111.097,162.240 115.808,166.200 118.197 C 183.846 128.845,184.000 129.137,184.000 151.884 C 184.000 166.237,184.068 166.897,185.420 165.649 C 185.629 165.457,186.610 164.853,187.600 164.308 C 190.057 162.956,201.341 156.442,208.400 152.300 L 214.200 148.897 214.308 134.149 C 214.456 113.993,213.241 110.073,205.288 105.055 C 203.688 104.046,194.328 98.502,191.200 96.711 C 190.430 96.270,179.000 89.564,165.800 81.808 C 134.801 63.594,138.612 65.444,131.800 65.306 C 127.107 65.210,125.869 65.314,124.155 65.946 " class="color8346e3 svgShape"></path><path fill="#212121" fill-rule="evenodd" d="M0.000 200.000 L 0.000 400.000 200.000 400.000 L 400.000 400.000 400.000 200.000 L 400.000 0.000 200.000 0.000 L 0.000 0.000 0.000 200.000 M139.600 66.563 C 140.810 67.192,152.600 74.053,165.800 81.808 C 179.000 89.564,190.430 96.270,191.200 96.711 C 194.328 98.502,203.688 104.046,205.288 105.055 C 213.241 110.073,214.456 113.993,214.308 134.149 L 214.200 148.897 208.400 152.300 C 201.341 156.442,190.057 162.956,187.600 164.308 C 186.610 164.853,185.629 165.457,185.420 165.649 C 184.068 166.897,184.000 166.237,184.000 151.884 C 184.000 129.137,183.846 128.845,166.200 118.197 C 162.240 115.808,154.437 111.097,148.860 107.730 C 137.711 100.998,136.294 100.394,130.958 100.106 C 125.369 99.805,124.004 100.296,113.657 106.340 C 111.096 107.837,105.940 110.834,102.200 113.001 C 74.797 128.881,76.404 125.978,76.410 159.600 C 76.415 189.189,76.912 190.695,89.026 197.853 C 91.652 199.405,100.190 204.528,108.000 209.237 C 123.920 218.837,124.300 219.000,130.800 219.000 C 136.625 219.000,136.053 219.265,155.400 207.608 C 163.540 202.703,170.830 198.337,171.600 197.904 C 172.370 197.472,175.160 195.810,177.800 194.211 C 182.915 191.114,187.687 188.416,200.800 181.208 C 205.310 178.728,209.990 176.151,211.200 175.481 C 213.015 174.475,245.572 155.377,256.960 148.638 C 265.894 143.351,272.236 143.478,282.005 149.138 C 284.972 150.857,294.780 156.541,303.800 161.769 C 312.820 166.997,322.720 172.730,325.800 174.509 C 349.389 188.132,349.991 188.626,352.405 196.342 C 353.494 199.824,353.661 278.463,352.588 282.583 C 350.460 290.753,350.427 290.779,318.200 309.405 C 303.558 317.868,296.771 321.804,285.498 328.373 C 275.779 334.037,275.889 334.000,268.773 334.000 C 261.362 334.000,267.802 337.206,223.000 311.212 C 214.200 306.106,203.952 300.190,200.227 298.064 C 185.796 289.831,184.800 287.732,184.800 265.573 L 184.800 251.654 185.900 250.885 C 187.093 250.051,211.770 235.740,213.900 234.647 L 215.200 233.979 215.200 247.526 C 215.200 268.885,216.319 271.331,229.600 278.982 C 237.141 283.327,250.878 291.306,255.838 294.223 C 268.066 301.415,273.154 300.495,293.600 287.398 C 296.085 285.806,310.149 277.480,311.794 276.627 C 315.908 274.492,320.073 268.931,321.387 263.816 C 322.314 260.210,322.296 218.264,321.366 214.658 C 319.598 207.799,316.743 204.971,304.365 197.821 C 299.434 194.972,291.710 190.499,287.200 187.881 C 276.709 181.791,275.975 181.429,272.521 180.650 C 265.745 179.120,263.076 179.818,252.800 185.807 C 235.827 195.699,207.469 212.174,196.000 218.805 C 178.635 228.846,174.919 231.000,166.000 236.192 C 134.215 254.694,136.937 253.400,129.800 253.400 L 125.000 253.400 121.600 251.722 C 119.730 250.800,115.860 248.667,113.000 246.984 C 110.140 245.300,104.200 241.837,99.800 239.287 C 95.400 236.737,89.640 233.400,87.000 231.870 C 78.826 227.134,70.532 222.340,62.266 217.574 C 51.539 211.389,48.635 208.427,46.638 201.627 C 45.664 198.312,45.670 120.056,46.645 116.773 C 48.876 109.251,48.339 109.668,77.800 92.577 C 80.880 90.790,86.100 87.743,89.400 85.805 C 104.250 77.087,116.624 69.853,120.355 67.710 C 125.502 64.753,135.026 64.186,139.600 66.563 " class="colorfbfbfb svgShape"></path></svg></g></svg>