<svg id="svg" version="1.1" xmlns="http://www.w3.org/2000/svg" xmlns:xlink="http://www.w3.org/1999/xlink" viewBox="45.4 50.2 309.62 100.03"><g id="svgg"><path id="path0" d="M45.400 86.200 L 45.400 122.200 48.600 122.200 L 51.800 122.200 51.800 109.000 L 51.800 95.800 63.000 95.800 C 70.333 95.800,74.200 95.731,74.200 95.600 C 74.200 95.483,74.867 95.400,75.800 95.400 C 76.733 95.400,77.400 95.317,77.400 95.200 C 77.400 95.090,77.850 95.000,78.400 95.000 C 78.950 95.000,79.400 94.910,79.400 94.800 C 79.400 94.690,79.760 94.600,80.200 94.600 C 80.640 94.600,81.000 94.510,81.000 94.400 C 81.000 94.290,81.360 94.200,81.800 94.200 C 82.240 94.200,82.600 94.110,82.600 94.000 C 82.600 93.890,82.870 93.800,83.200 93.800 C 83.530 93.800,83.800 93.710,83.800 93.600 C 83.800 93.490,83.980 93.400,84.200 93.400 C 84.420 93.400,84.600 93.310,84.600 93.200 C 84.600 93.090,84.870 93.000,85.200 93.000 C 85.530 93.000,85.800 92.910,85.800 92.800 C 85.800 92.690,85.980 92.600,86.200 92.600 C 86.420 92.600,86.600 92.510,86.600 92.400 C 86.600 92.290,86.760 92.200,86.956 92.200 C 87.152 92.200,87.441 92.020,87.600 91.800 C 87.759 91.580,88.048 91.400,88.244 91.400 C 88.440 91.400,88.600 91.310,88.600 91.200 C 88.600 91.090,88.760 91.000,88.956 91.000 C 89.152 91.000,89.441 90.820,89.600 90.600 C 89.759 90.380,90.004 90.200,90.146 90.200 C 90.483 90.200,94.600 86.083,94.600 85.746 C 94.600 85.604,94.780 85.359,95.000 85.200 C 95.220 85.041,95.400 84.771,95.400 84.600 C 95.400 84.429,95.580 84.159,95.800 84.000 C 96.020 83.841,96.200 83.552,96.200 83.356 C 96.200 83.160,96.290 83.000,96.400 83.000 C 96.510 83.000,96.600 82.820,96.600 82.600 C 96.600 82.380,96.690 82.200,96.800 82.200 C 96.910 82.200,97.000 82.020,97.000 81.800 C 97.000 81.580,97.090 81.400,97.200 81.400 C 97.310 81.400,97.400 81.130,97.400 80.800 C 97.400 80.470,97.490 80.200,97.600 80.200 C 97.710 80.200,97.800 79.840,97.800 79.400 C 97.800 78.960,97.890 78.600,98.000 78.600 C 98.110 78.600,98.200 78.150,98.200 77.600 C 98.200 77.050,98.290 76.600,98.400 76.600 C 98.527 76.600,98.600 75.067,98.600 72.400 C 98.600 69.733,98.527 68.200,98.400 68.200 C 98.290 68.200,98.200 67.750,98.200 67.200 C 98.200 66.650,98.110 66.200,98.000 66.200 C 97.890 66.200,97.800 65.930,97.800 65.600 C 97.800 65.270,97.710 65.000,97.600 65.000 C 97.490 65.000,97.400 64.730,97.400 64.400 C 97.400 64.070,97.310 63.800,97.200 63.800 C 97.090 63.800,97.000 63.620,97.000 63.400 C 97.000 63.180,96.910 63.000,96.800 63.000 C 96.690 63.000,96.600 62.820,96.600 62.600 C 96.600 62.380,96.510 62.200,96.400 62.200 C 96.290 62.200,96.200 62.040,96.200 61.844 C 96.200 61.648,96.020 61.359,95.800 61.200 C 95.580 61.041,95.400 60.771,95.400 60.600 C 95.400 60.429,95.220 60.159,95.000 60.000 C 94.780 59.841,94.600 59.595,94.600 59.453 C 94.600 59.116,91.284 55.800,90.947 55.800 C 90.805 55.800,90.559 55.620,90.400 55.400 C 90.241 55.180,89.971 55.000,89.800 55.000 C 89.629 55.000,89.359 54.820,89.200 54.600 C 89.041 54.380,88.752 54.200,88.556 54.200 C 88.360 54.200,88.200 54.110,88.200 54.000 C 88.200 53.890,88.020 53.800,87.800 53.800 C 87.580 53.800,87.400 53.710,87.400 53.600 C 87.400 53.490,87.220 53.400,87.000 53.400 C 86.780 53.400,86.600 53.310,86.600 53.200 C 86.600 53.090,86.420 53.000,86.200 53.000 C 85.980 53.000,85.800 52.910,85.800 52.800 C 85.800 52.690,85.620 52.600,85.400 52.600 C 85.180 52.600,85.000 52.510,85.000 52.400 C 85.000 52.290,84.730 52.200,84.400 52.200 C 84.070 52.200,83.800 52.110,83.800 52.000 C 83.800 51.890,83.530 51.800,83.200 51.800 C 82.870 51.800,82.600 51.710,82.600 51.600 C 82.600 51.490,82.240 51.400,81.800 51.400 C 81.360 51.400,81.000 51.310,81.000 51.200 C 81.000 51.090,80.550 51.000,80.000 51.000 C 79.450 51.000,79.000 50.910,79.000 50.800 C 79.000 50.681,78.267 50.600,77.200 50.600 C 76.133 50.600,75.400 50.519,75.400 50.400 C 75.400 50.268,70.267 50.200,60.400 50.200 L 45.400 50.200 45.400 86.200 M113.400 86.200 L 113.400 122.200 116.600 122.200 L 119.800 122.200 119.800 107.400 L 119.800 92.600 130.914 92.600 C 142.487 92.600,142.600 92.608,142.600 93.405 C 142.600 93.534,142.870 93.892,143.200 94.200 C 143.530 94.508,143.800 94.868,143.800 95.000 C 143.800 95.132,144.070 95.492,144.400 95.800 C 144.730 96.108,145.000 96.466,145.000 96.596 C 145.000 96.725,145.360 97.177,145.800 97.600 C 146.240 98.023,146.600 98.475,146.600 98.604 C 146.600 98.734,146.870 99.092,147.200 99.400 C 147.530 99.708,147.800 100.068,147.800 100.200 C 147.800 100.332,148.070 100.692,148.400 101.000 C 148.730 101.308,149.000 101.666,149.000 101.796 C 149.000 101.925,149.360 102.377,149.800 102.800 C 150.240 103.223,150.600 103.675,150.600 103.804 C 150.600 103.934,150.870 104.292,151.200 104.600 C 151.530 104.908,151.800 105.268,151.800 105.400 C 151.800 105.532,152.070 105.892,152.400 106.200 C 152.730 106.508,153.000 106.866,153.000 106.996 C 153.000 107.125,153.360 107.577,153.800 108.000 C 154.240 108.423,154.600 108.875,154.600 109.004 C 154.600 109.134,154.870 109.492,155.200 109.800 C 155.530 110.108,155.800 110.468,155.800 110.600 C 155.800 110.732,156.070 111.092,156.400 111.400 C 156.730 111.708,157.000 112.066,157.000 112.196 C 157.000 112.325,157.360 112.777,157.800 113.200 C 158.240 113.623,158.600 114.075,158.600 114.204 C 158.600 114.334,158.870 114.692,159.200 115.000 C 159.530 115.308,159.800 115.668,159.800 115.800 C 159.800 115.932,160.070 116.292,160.400 116.600 C 160.730 116.908,161.000 117.266,161.000 117.396 C 161.000 117.525,161.360 117.977,161.800 118.400 C 162.240 118.823,162.600 119.275,162.600 119.404 C 162.600 119.534,162.870 119.892,163.200 120.200 C 163.530 120.508,163.800 120.863,163.800 120.989 C 163.800 121.991,164.608 122.200,168.491 122.200 L 172.200 122.200 172.200 121.680 C 172.200 121.361,171.969 120.945,171.600 120.600 C 171.270 120.292,171.000 119.932,171.000 119.800 C 171.000 119.668,170.730 119.308,170.400 119.000 C 170.070 118.692,169.800 118.334,169.800 118.204 C 169.800 118.075,169.440 117.623,169.000 117.200 C 168.560 116.777,168.200 116.325,168.200 116.196 C 168.200 116.066,167.930 115.708,167.600 115.400 C 167.270 115.092,167.000 114.734,167.000 114.604 C 167.000 114.475,166.640 114.023,166.200 113.600 C 165.760 113.177,165.400 112.725,165.400 112.596 C 165.400 112.466,165.130 112.108,164.800 111.800 C 164.470 111.492,164.200 111.132,164.200 111.000 C 164.200 110.868,163.930 110.508,163.600 110.200 C 163.270 109.892,163.000 109.534,163.000 109.404 C 163.000 109.275,162.640 108.823,162.200 108.400 C 161.760 107.977,161.400 107.525,161.400 107.396 C 161.400 107.266,161.130 106.908,160.800 106.600 C 160.470 106.292,160.200 105.934,160.200 105.804 C 160.200 105.675,159.840 105.223,159.400 104.800 C 158.960 104.377,158.600 103.925,158.600 103.796 C 158.600 103.666,158.330 103.308,158.000 103.000 C 157.670 102.692,157.400 102.332,157.400 102.200 C 157.400 102.068,157.130 101.708,156.800 101.400 C 156.470 101.092,156.200 100.734,156.200 100.604 C 156.200 100.475,155.840 100.023,155.400 99.600 C 154.960 99.177,154.600 98.725,154.600 98.596 C 154.600 98.466,154.330 98.108,154.000 97.800 C 153.670 97.492,153.400 97.134,153.400 97.004 C 153.400 96.875,153.040 96.423,152.600 96.000 C 152.160 95.577,151.800 95.125,151.800 94.996 C 151.800 94.866,151.530 94.508,151.200 94.200 C 150.870 93.892,150.600 93.532,150.600 93.400 C 150.600 93.268,150.330 92.908,150.000 92.600 C 149.670 92.292,149.400 91.986,149.400 91.920 C 149.400 91.854,149.670 91.800,150.000 91.800 C 150.330 91.800,150.600 91.710,150.600 91.600 C 150.600 91.490,150.960 91.400,151.400 91.400 C 151.840 91.400,152.200 91.310,152.200 91.200 C 152.200 91.090,152.560 91.000,153.000 91.000 C 153.440 91.000,153.800 90.910,153.800 90.800 C 153.800 90.690,154.070 90.600,154.400 90.600 C 154.730 90.600,155.000 90.510,155.000 90.400 C 155.000 90.290,155.270 90.200,155.600 90.200 C 155.930 90.200,156.200 90.110,156.200 90.000 C 156.200 89.890,156.470 89.800,156.800 89.800 C 157.130 89.800,157.400 89.710,157.400 89.600 C 157.400 89.490,157.580 89.400,157.800 89.400 C 158.020 89.400,158.200 89.310,158.200 89.200 C 158.200 89.090,158.380 89.000,158.600 89.000 C 158.820 89.000,159.000 88.910,159.000 88.800 C 159.000 88.690,159.180 88.600,159.400 88.600 C 159.620 88.600,159.800 88.510,159.800 88.400 C 159.800 88.290,159.960 88.200,160.156 88.200 C 160.352 88.200,160.641 88.020,160.800 87.800 C 160.959 87.580,161.210 87.400,161.360 87.400 C 161.509 87.400,161.977 87.040,162.400 86.600 C 162.823 86.160,163.268 85.800,163.390 85.800 C 163.680 85.800,165.400 84.076,165.400 83.786 C 165.400 83.662,165.670 83.308,166.000 83.000 C 166.330 82.692,166.600 82.296,166.600 82.120 C 166.600 81.944,166.690 81.800,166.800 81.800 C 166.910 81.800,167.000 81.640,167.000 81.444 C 167.000 81.248,167.180 80.959,167.400 80.800 C 167.620 80.641,167.800 80.352,167.800 80.156 C 167.800 79.960,167.890 79.800,168.000 79.800 C 168.110 79.800,168.200 79.530,168.200 79.200 C 168.200 78.870,168.290 78.600,168.400 78.600 C 168.510 78.600,168.600 78.330,168.600 78.000 C 168.600 77.670,168.690 77.400,168.800 77.400 C 168.910 77.400,169.000 77.040,169.000 76.600 C 169.000 76.160,169.090 75.800,169.200 75.800 C 169.314 75.800,169.400 75.200,169.400 74.400 C 169.400 73.600,169.486 73.000,169.600 73.000 C 169.719 73.000,169.800 72.267,169.800 71.200 C 169.800 70.133,169.719 69.400,169.600 69.400 C 169.483 69.400,169.400 68.733,169.400 67.800 C 169.400 66.867,169.317 66.200,169.200 66.200 C 169.090 66.200,169.000 65.930,169.000 65.600 C 169.000 65.270,168.910 65.000,168.800 65.000 C 168.690 65.000,168.600 64.730,168.600 64.400 C 168.600 64.070,168.510 63.800,168.400 63.800 C 168.290 63.800,168.200 63.530,168.200 63.200 C 168.200 62.870,168.110 62.600,168.000 62.600 C 167.890 62.600,167.800 62.420,167.800 62.200 C 167.800 61.980,167.710 61.800,167.600 61.800 C 167.490 61.800,167.400 61.640,167.400 61.444 C 167.400 61.248,167.220 60.959,167.000 60.800 C 166.780 60.641,166.600 60.388,166.600 60.236 C 166.600 60.085,166.330 59.708,166.000 59.400 C 165.670 59.092,165.400 58.739,165.400 58.615 C 165.400 58.323,163.277 56.200,162.985 56.200 C 162.861 56.200,162.508 55.930,162.200 55.600 C 161.892 55.270,161.515 55.000,161.364 55.000 C 161.212 55.000,160.959 54.820,160.800 54.600 C 160.641 54.380,160.352 54.200,160.156 54.200 C 159.960 54.200,159.800 54.110,159.800 54.000 C 159.800 53.890,159.620 53.800,159.400 53.800 C 159.180 53.800,159.000 53.710,159.000 53.600 C 159.000 53.490,158.820 53.400,158.600 53.400 C 158.380 53.400,158.200 53.310,158.200 53.200 C 158.200 53.090,158.020 53.000,157.800 53.000 C 157.580 53.000,157.400 52.910,157.400 52.800 C 157.400 52.690,157.220 52.600,157.000 52.600 C 156.780 52.600,156.600 52.510,156.600 52.400 C 156.600 52.290,156.330 52.200,156.000 52.200 C 155.670 52.200,155.400 52.110,155.400 52.000 C 155.400 51.890,155.130 51.800,154.800 51.800 C 154.470 51.800,154.200 51.710,154.200 51.600 C 154.200 51.490,153.840 51.400,153.400 51.400 C 152.960 51.400,152.600 51.310,152.600 51.200 C 152.600 51.090,152.150 51.000,151.600 51.000 C 151.050 51.000,150.600 50.910,150.600 50.800 C 150.600 50.683,149.933 50.600,149.000 50.600 C 148.067 50.600,147.400 50.517,147.400 50.400 C 147.400 50.268,141.600 50.200,130.400 50.200 L 113.400 50.200 113.400 86.200 M187.800 86.200 L 187.800 122.200 190.800 122.200 L 193.800 122.200 193.800 86.200 L 193.800 50.200 190.800 50.200 L 187.800 50.200 187.800 86.200 M215.000 86.200 L 215.000 122.200 217.800 122.200 L 220.600 122.200 220.600 92.000 C 220.600 75.390,220.649 61.800,220.709 61.800 C 220.932 61.800,221.800 62.792,221.800 63.047 C 221.800 63.192,221.980 63.441,222.200 63.600 C 222.420 63.759,222.600 64.029,222.600 64.200 C 222.600 64.371,222.780 64.641,223.000 64.800 C 223.220 64.959,223.400 65.229,223.400 65.400 C 223.400 65.571,223.580 65.841,223.800 66.000 C 224.020 66.159,224.200 66.429,224.200 66.600 C 224.200 66.771,224.380 67.041,224.600 67.200 C 224.820 67.359,225.000 67.612,225.000 67.764 C 225.000 67.915,225.270 68.292,225.600 68.600 C 225.930 68.908,226.200 69.285,226.200 69.436 C 226.200 69.588,226.380 69.841,226.600 70.000 C 226.820 70.159,227.000 70.429,227.000 70.600 C 227.000 70.771,227.180 71.041,227.400 71.200 C 227.620 71.359,227.800 71.629,227.800 71.800 C 227.800 71.971,227.980 72.241,228.200 72.400 C 228.420 72.559,228.600 72.829,228.600 73.000 C 228.600 73.171,228.780 73.441,229.000 73.600 C 229.220 73.759,229.400 74.012,229.400 74.164 C 229.400 74.315,229.670 74.692,230.000 75.000 C 230.330 75.308,230.600 75.685,230.600 75.836 C 230.600 75.988,230.780 76.241,231.000 76.400 C 231.220 76.559,231.400 76.829,231.400 77.000 C 231.400 77.171,231.580 77.441,231.800 77.600 C 232.020 77.759,232.200 78.029,232.200 78.200 C 232.200 78.371,232.380 78.641,232.600 78.800 C 232.820 78.959,233.000 79.229,233.000 79.400 C 233.000 79.571,233.180 79.841,233.400 80.000 C 233.620 80.159,233.800 80.412,233.800 80.564 C 233.800 80.715,234.070 81.092,234.400 81.400 C 234.730 81.708,235.000 82.085,235.000 82.236 C 235.000 82.388,235.180 82.641,235.400 82.800 C 235.620 82.959,235.800 83.229,235.800 83.400 C 235.800 83.571,235.980 83.841,236.200 84.000 C 236.420 84.159,236.600 84.429,236.600 84.600 C 236.600 84.771,236.780 85.041,237.000 85.200 C 237.220 85.359,237.400 85.629,237.400 85.800 C 237.400 85.971,237.580 86.241,237.800 86.400 C 238.020 86.559,238.200 86.812,238.200 86.964 C 238.200 87.115,238.470 87.492,238.800 87.800 C 239.130 88.108,239.400 88.485,239.400 88.636 C 239.400 88.788,239.580 89.041,239.800 89.200 C 240.020 89.359,240.200 89.629,240.200 89.800 C 240.200 89.971,240.380 90.241,240.600 90.400 C 240.820 90.559,241.000 90.829,241.000 91.000 C 241.000 91.171,241.180 91.441,241.400 91.600 C 241.620 91.759,241.800 92.029,241.800 92.200 C 241.800 92.371,241.980 92.641,242.200 92.800 C 242.420 92.959,242.600 93.212,242.600 93.364 C 242.600 93.515,242.870 93.892,243.200 94.200 C 243.530 94.508,243.800 94.885,243.800 95.036 C 243.800 95.188,243.980 95.441,244.200 95.600 C 244.420 95.759,244.600 96.029,244.600 96.200 C 244.600 96.371,244.780 96.641,245.000 96.800 C 245.220 96.959,245.400 97.229,245.400 97.400 C 245.400 97.571,245.580 97.841,245.800 98.000 C 246.020 98.159,246.200 98.429,246.200 98.600 C 246.200 98.771,246.380 99.041,246.600 99.200 C 246.820 99.359,247.000 99.606,247.000 99.751 C 247.000 100.169,248.345 101.400,248.802 101.400 C 249.265 101.400,250.200 100.566,250.200 100.153 C 250.200 100.008,250.380 99.759,250.600 99.600 C 250.820 99.441,251.000 99.171,251.000 99.000 C 251.000 98.829,251.180 98.559,251.400 98.400 C 251.620 98.241,251.800 97.988,251.800 97.836 C 251.800 97.685,252.070 97.308,252.400 97.000 C 252.730 96.692,253.000 96.315,253.000 96.164 C 253.000 96.012,253.180 95.759,253.400 95.600 C 253.620 95.441,253.800 95.171,253.800 95.000 C 253.800 94.829,253.980 94.559,254.200 94.400 C 254.420 94.241,254.600 93.971,254.600 93.800 C 254.600 93.629,254.780 93.359,255.000 93.200 C 255.220 93.041,255.400 92.771,255.400 92.600 C 255.400 92.429,255.580 92.159,255.800 92.000 C 256.020 91.841,256.200 91.588,256.200 91.436 C 256.200 91.285,256.470 90.908,256.800 90.600 C 257.130 90.292,257.400 89.915,257.400 89.764 C 257.400 89.612,257.580 89.359,257.800 89.200 C 258.020 89.041,258.200 88.771,258.200 88.600 C 258.200 88.429,258.380 88.159,258.600 88.000 C 258.820 87.841,259.000 87.571,259.000 87.400 C 259.000 87.229,259.180 86.959,259.400 86.800 C 259.620 86.641,259.800 86.371,259.800 86.200 C 259.800 86.029,259.980 85.759,260.200 85.600 C 260.420 85.441,260.600 85.188,260.600 85.036 C 260.600 84.885,260.870 84.508,261.200 84.200 C 261.530 83.892,261.800 83.515,261.800 83.364 C 261.800 83.212,261.980 82.959,262.200 82.800 C 262.420 82.641,262.600 82.371,262.600 82.200 C 262.600 82.029,262.780 81.759,263.000 81.600 C 263.220 81.441,263.400 81.171,263.400 81.000 C 263.400 80.829,263.580 80.559,263.800 80.400 C 264.020 80.241,264.200 79.971,264.200 79.800 C 264.200 79.629,264.380 79.359,264.600 79.200 C 264.820 79.041,265.000 78.788,265.000 78.636 C 265.000 78.485,265.270 78.108,265.600 77.800 C 265.930 77.492,266.200 77.115,266.200 76.964 C 266.200 76.812,266.380 76.559,266.600 76.400 C 266.820 76.241,267.000 75.971,267.000 75.800 C 267.000 75.629,267.180 75.359,267.400 75.200 C 267.620 75.041,267.800 74.771,267.800 74.600 C 267.800 74.429,267.980 74.159,268.200 74.000 C 268.420 73.841,268.600 73.571,268.600 73.400 C 268.600 73.229,268.780 72.959,269.000 72.800 C 269.220 72.641,269.400 72.388,269.400 72.236 C 269.400 72.085,269.670 71.708,270.000 71.400 C 270.330 71.092,270.600 70.715,270.600 70.564 C 270.600 70.412,270.780 70.159,271.000 70.000 C 271.220 69.841,271.400 69.571,271.400 69.400 C 271.400 69.229,271.580 68.959,271.800 68.800 C 272.020 68.641,272.200 68.371,272.200 68.200 C 272.200 68.029,272.380 67.759,272.600 67.600 C 272.820 67.441,273.000 67.171,273.000 67.000 C 273.000 66.829,273.180 66.559,273.400 66.400 C 273.620 66.241,273.800 65.988,273.800 65.836 C 273.800 65.685,274.070 65.308,274.400 65.000 C 274.730 64.692,275.000 64.315,275.000 64.164 C 275.000 64.012,275.180 63.759,275.400 63.600 C 275.620 63.441,275.800 63.190,275.800 63.042 C 275.800 62.773,276.267 62.200,276.486 62.200 C 276.549 62.200,276.600 75.700,276.600 92.200 L 276.600 122.200 279.800 122.200 L 283.000 122.200 283.000 86.200 L 283.000 50.200 280.086 50.200 C 277.143 50.200,276.600 50.325,276.600 51.005 C 276.600 51.134,276.330 51.492,276.000 51.800 C 275.670 52.108,275.400 52.485,275.400 52.636 C 275.400 52.788,275.220 53.041,275.000 53.200 C 274.780 53.359,274.600 53.629,274.600 53.800 C 274.600 53.971,274.420 54.241,274.200 54.400 C 273.980 54.559,273.800 54.829,273.800 55.000 C 273.800 55.171,273.620 55.441,273.400 55.600 C 273.180 55.759,273.000 56.029,273.000 56.200 C 273.000 56.371,272.820 56.641,272.600 56.800 C 272.380 56.959,272.200 57.229,272.200 57.400 C 272.200 57.571,272.020 57.841,271.800 58.000 C 271.580 58.159,271.400 58.429,271.400 58.600 C 271.400 58.771,271.220 59.041,271.000 59.200 C 270.780 59.359,270.600 59.629,270.600 59.800 C 270.600 59.971,270.420 60.241,270.200 60.400 C 269.980 60.559,269.800 60.829,269.800 61.000 C 269.800 61.171,269.620 61.441,269.400 61.600 C 269.180 61.759,269.000 62.012,269.000 62.164 C 269.000 62.315,268.730 62.692,268.400 63.000 C 268.070 63.308,267.800 63.685,267.800 63.836 C 267.800 63.988,267.620 64.241,267.400 64.400 C 267.180 64.559,267.000 64.829,267.000 65.000 C 267.000 65.171,266.820 65.441,266.600 65.600 C 266.380 65.759,266.200 66.029,266.200 66.200 C 266.200 66.371,266.020 66.641,265.800 66.800 C 265.580 66.959,265.400 67.229,265.400 67.400 C 265.400 67.571,265.220 67.841,265.000 68.000 C 264.780 68.159,264.600 68.429,264.600 68.600 C 264.600 68.771,264.420 69.041,264.200 69.200 C 263.980 69.359,263.800 69.629,263.800 69.800 C 263.800 69.971,263.620 70.241,263.400 70.400 C 263.180 70.559,263.000 70.829,263.000 71.000 C 263.000 71.171,262.820 71.441,262.600 71.600 C 262.380 71.759,262.200 72.029,262.200 72.200 C 262.200 72.371,262.020 72.641,261.800 72.800 C 261.580 72.959,261.400 73.212,261.400 73.364 C 261.400 73.515,261.130 73.892,260.800 74.200 C 260.470 74.508,260.200 74.885,260.200 75.036 C 260.200 75.188,260.020 75.441,259.800 75.600 C 259.580 75.759,259.400 76.029,259.400 76.200 C 259.400 76.371,259.220 76.641,259.000 76.800 C 258.780 76.959,258.600 77.229,258.600 77.400 C 258.600 77.571,258.420 77.841,258.200 78.000 C 257.980 78.159,257.800 78.429,257.800 78.600 C 257.800 78.771,257.620 79.041,257.400 79.200 C 257.180 79.359,257.000 79.629,257.000 79.800 C 257.000 79.971,256.820 80.241,256.600 80.400 C 256.380 80.559,256.200 80.829,256.200 81.000 C 256.200 81.171,256.020 81.441,255.800 81.600 C 255.580 81.759,255.400 82.029,255.400 82.200 C 255.400 82.371,255.220 82.641,255.000 82.800 C 254.780 82.959,254.600 83.229,254.600 83.400 C 254.600 83.571,254.420 83.841,254.200 84.000 C 253.980 84.159,253.800 84.412,253.800 84.564 C 253.800 84.715,253.530 85.092,253.200 85.400 C 252.870 85.708,252.600 86.085,252.600 86.236 C 252.600 86.388,252.420 86.641,252.200 86.800 C 251.980 86.959,251.800 87.229,251.800 87.400 C 251.800 87.571,251.620 87.841,251.400 88.000 C 251.180 88.159,251.000 88.429,251.000 88.600 C 251.000 88.771,250.820 89.041,250.600 89.200 C 250.380 89.359,250.200 89.629,250.200 89.800 C 250.200 89.971,250.020 90.241,249.800 90.400 C 249.580 90.559,249.400 90.810,249.400 90.958 C 249.400 91.227,248.933 91.800,248.714 91.800 C 248.651 91.800,248.600 91.640,248.600 91.444 C 248.600 91.248,248.420 90.959,248.200 90.800 C 247.980 90.641,247.800 90.371,247.800 90.200 C 247.800 90.029,247.620 89.759,247.400 89.600 C 247.180 89.441,247.000 89.171,247.000 89.000 C 247.000 88.829,246.820 88.559,246.600 88.400 C 246.380 88.241,246.200 87.971,246.200 87.800 C 246.200 87.629,246.020 87.359,245.800 87.200 C 245.580 87.041,245.400 86.788,245.400 86.636 C 245.400 86.485,245.130 86.108,244.800 85.800 C 244.470 85.492,244.200 85.115,244.200 84.964 C 244.200 84.812,244.020 84.559,243.800 84.400 C 243.580 84.241,243.400 83.971,243.400 83.800 C 243.400 83.629,243.220 83.359,243.000 83.200 C 242.780 83.041,242.600 82.771,242.600 82.600 C 242.600 82.429,242.420 82.159,242.200 82.000 C 241.980 81.841,241.800 81.571,241.800 81.400 C 241.800 81.229,241.620 80.959,241.400 80.800 C 241.180 80.641,241.000 80.371,241.000 80.200 C 241.000 80.029,240.820 79.759,240.600 79.600 C 240.380 79.441,240.200 79.171,240.200 79.000 C 240.200 78.829,240.020 78.559,239.800 78.400 C 239.580 78.241,239.400 77.971,239.400 77.800 C 239.400 77.629,239.220 77.359,239.000 77.200 C 238.780 77.041,238.600 76.771,238.600 76.600 C 238.600 76.429,238.420 76.159,238.200 76.000 C 237.980 75.841,237.800 75.588,237.800 75.436 C 237.800 75.285,237.530 74.908,237.200 74.600 C 236.870 74.292,236.600 73.915,236.600 73.764 C 236.600 73.612,236.420 73.359,236.200 73.200 C 235.980 73.041,235.800 72.771,235.800 72.600 C 235.800 72.429,235.620 72.159,235.400 72.000 C 235.180 71.841,235.000 71.571,235.000 71.400 C 235.000 71.229,234.820 70.959,234.600 70.800 C 234.380 70.641,234.200 70.371,234.200 70.200 C 234.200 70.029,234.020 69.759,233.800 69.600 C 233.580 69.441,233.400 69.171,233.400 69.000 C 233.400 68.829,233.220 68.559,233.000 68.400 C 232.780 68.241,232.600 67.971,232.600 67.800 C 232.600 67.629,232.420 67.359,232.200 67.200 C 231.980 67.041,231.800 66.771,231.800 66.600 C 231.800 66.429,231.620 66.159,231.400 66.000 C 231.180 65.841,231.000 65.588,231.000 65.436 C 231.000 65.285,230.730 64.908,230.400 64.600 C 230.070 64.292,229.800 63.915,229.800 63.764 C 229.800 63.612,229.620 63.359,229.400 63.200 C 229.180 63.041,229.000 62.771,229.000 62.600 C 229.000 62.429,228.820 62.159,228.600 62.000 C 228.380 61.841,228.200 61.571,228.200 61.400 C 228.200 61.229,228.020 60.959,227.800 60.800 C 227.580 60.641,227.400 60.371,227.400 60.200 C 227.400 60.029,227.220 59.759,227.000 59.600 C 226.780 59.441,226.600 59.171,226.600 59.000 C 226.600 58.829,226.420 58.559,226.200 58.400 C 225.980 58.241,225.800 57.971,225.800 57.800 C 225.800 57.629,225.620 57.359,225.400 57.200 C 225.180 57.041,225.000 56.771,225.000 56.600 C 225.000 56.429,224.820 56.159,224.600 56.000 C 224.380 55.841,224.200 55.571,224.200 55.400 C 224.200 55.229,224.020 54.959,223.800 54.800 C 223.580 54.641,223.400 54.388,223.400 54.236 C 223.400 54.085,223.130 53.708,222.800 53.400 C 222.470 53.092,222.200 52.715,222.200 52.564 C 222.200 52.412,222.020 52.159,221.800 52.000 C 221.580 51.841,221.400 51.592,221.400 51.447 C 221.400 50.492,220.535 50.200,217.709 50.200 L 215.000 50.200 215.000 86.200 M72.600 56.000 C 72.600 56.120,73.400 56.200,74.600 56.200 C 75.800 56.200,76.600 56.280,76.600 56.400 C 76.600 56.510,77.050 56.600,77.600 56.600 C 78.150 56.600,78.600 56.690,78.600 56.800 C 78.600 56.910,78.960 57.000,79.400 57.000 C 79.840 57.000,80.200 57.090,80.200 57.200 C 80.200 57.310,80.470 57.400,80.800 57.400 C 81.130 57.400,81.400 57.490,81.400 57.600 C 81.400 57.710,81.670 57.800,82.000 57.800 C 82.330 57.800,82.600 57.890,82.600 58.000 C 82.600 58.110,82.780 58.200,83.000 58.200 C 83.220 58.200,83.400 58.290,83.400 58.400 C 83.400 58.510,83.580 58.600,83.800 58.600 C 84.020 58.600,84.200 58.690,84.200 58.800 C 84.200 58.910,84.360 59.000,84.556 59.000 C 84.752 59.000,85.041 59.180,85.200 59.400 C 85.359 59.620,85.612 59.800,85.764 59.800 C 85.915 59.800,86.292 60.070,86.600 60.400 C 86.908 60.730,87.262 61.000,87.387 61.000 C 87.681 61.000,89.000 62.319,89.000 62.613 C 89.000 62.738,89.270 63.092,89.600 63.400 C 89.930 63.708,90.200 64.104,90.200 64.280 C 90.200 64.456,90.290 64.600,90.400 64.600 C 90.510 64.600,90.600 64.780,90.600 65.000 C 90.600 65.220,90.690 65.400,90.800 65.400 C 90.910 65.400,91.000 65.580,91.000 65.800 C 91.000 66.020,91.090 66.200,91.200 66.200 C 91.310 66.200,91.400 66.380,91.400 66.600 C 91.400 66.820,91.490 67.000,91.600 67.000 C 91.710 67.000,91.800 67.270,91.800 67.600 C 91.800 67.930,91.890 68.200,92.000 68.200 C 92.111 68.200,92.200 68.733,92.200 69.400 C 92.200 70.067,92.289 70.600,92.400 70.600 C 92.521 70.600,92.600 71.467,92.600 72.800 C 92.600 74.133,92.521 75.000,92.400 75.000 C 92.290 75.000,92.200 75.450,92.200 76.000 C 92.200 76.550,92.110 77.000,92.000 77.000 C 91.890 77.000,91.800 77.270,91.800 77.600 C 91.800 77.930,91.710 78.200,91.600 78.200 C 91.490 78.200,91.400 78.470,91.400 78.800 C 91.400 79.130,91.310 79.400,91.200 79.400 C 91.090 79.400,91.000 79.560,91.000 79.756 C 91.000 79.952,90.820 80.241,90.600 80.400 C 90.380 80.559,90.200 80.848,90.200 81.044 C 90.200 81.240,90.110 81.400,90.000 81.400 C 89.890 81.400,89.800 81.536,89.800 81.703 C 89.800 82.070,86.110 85.800,85.747 85.800 C 85.605 85.800,85.359 85.980,85.200 86.200 C 85.041 86.420,84.752 86.600,84.556 86.600 C 84.360 86.600,84.200 86.690,84.200 86.800 C 84.200 86.910,84.020 87.000,83.800 87.000 C 83.580 87.000,83.400 87.090,83.400 87.200 C 83.400 87.310,83.220 87.400,83.000 87.400 C 82.780 87.400,82.600 87.490,82.600 87.600 C 82.600 87.710,82.420 87.800,82.200 87.800 C 81.980 87.800,81.800 87.890,81.800 88.000 C 81.800 88.110,81.530 88.200,81.200 88.200 C 80.870 88.200,80.600 88.290,80.600 88.400 C 80.600 88.510,80.330 88.600,80.000 88.600 C 79.670 88.600,79.400 88.690,79.400 88.800 C 79.400 88.910,79.130 89.000,78.800 89.000 C 78.470 89.000,78.200 89.090,78.200 89.200 C 78.200 89.310,77.750 89.400,77.200 89.400 C 76.650 89.400,76.200 89.490,76.200 89.600 C 76.200 89.720,75.400 89.800,74.200 89.800 C 73.000 89.800,72.200 89.880,72.200 90.000 C 72.200 90.131,68.667 90.200,62.000 90.200 L 51.800 90.200 51.800 73.000 L 51.800 55.800 62.200 55.800 C 69.000 55.800,72.600 55.869,72.600 56.000 M145.000 56.000 C 145.000 56.120,145.800 56.200,147.000 56.200 C 148.200 56.200,149.000 56.280,149.000 56.400 C 149.000 56.510,149.450 56.600,150.000 56.600 C 150.550 56.600,151.000 56.690,151.000 56.800 C 151.000 56.910,151.360 57.000,151.800 57.000 C 152.240 57.000,152.600 57.090,152.600 57.200 C 152.600 57.310,152.870 57.400,153.200 57.400 C 153.530 57.400,153.800 57.490,153.800 57.600 C 153.800 57.710,153.980 57.800,154.200 57.800 C 154.420 57.800,154.600 57.890,154.600 58.000 C 154.600 58.110,154.780 58.200,155.000 58.200 C 155.220 58.200,155.400 58.290,155.400 58.400 C 155.400 58.510,155.580 58.600,155.800 58.600 C 156.020 58.600,156.200 58.690,156.200 58.800 C 156.200 58.910,156.360 59.000,156.556 59.000 C 156.752 59.000,157.041 59.180,157.200 59.400 C 157.359 59.620,157.605 59.800,157.747 59.800 C 157.890 59.800,158.680 60.474,159.503 61.297 C 160.326 62.120,161.000 62.910,161.000 63.053 C 161.000 63.195,161.180 63.441,161.400 63.600 C 161.620 63.759,161.800 64.048,161.800 64.244 C 161.800 64.440,161.890 64.600,162.000 64.600 C 162.110 64.600,162.200 64.780,162.200 65.000 C 162.200 65.220,162.290 65.400,162.400 65.400 C 162.510 65.400,162.600 65.670,162.600 66.000 C 162.600 66.330,162.690 66.600,162.800 66.600 C 162.910 66.600,163.000 66.960,163.000 67.400 C 163.000 67.840,163.090 68.200,163.200 68.200 C 163.324 68.200,163.400 69.333,163.400 71.200 C 163.400 73.067,163.324 74.200,163.200 74.200 C 163.090 74.200,163.000 74.560,163.000 75.000 C 163.000 75.440,162.910 75.800,162.800 75.800 C 162.690 75.800,162.600 76.070,162.600 76.400 C 162.600 76.730,162.510 77.000,162.400 77.000 C 162.290 77.000,162.200 77.180,162.200 77.400 C 162.200 77.620,162.110 77.800,162.000 77.800 C 161.890 77.800,161.800 77.960,161.800 78.156 C 161.800 78.352,161.620 78.641,161.400 78.800 C 161.180 78.959,161.000 79.205,161.000 79.347 C 161.000 79.710,157.270 83.400,156.903 83.400 C 156.736 83.400,156.600 83.490,156.600 83.600 C 156.600 83.710,156.440 83.800,156.244 83.800 C 156.048 83.800,155.759 83.980,155.600 84.200 C 155.441 84.420,155.152 84.600,154.956 84.600 C 154.760 84.600,154.600 84.690,154.600 84.800 C 154.600 84.910,154.330 85.000,154.000 85.000 C 153.670 85.000,153.400 85.090,153.400 85.200 C 153.400 85.310,153.220 85.400,153.000 85.400 C 152.780 85.400,152.600 85.490,152.600 85.600 C 152.600 85.710,152.330 85.800,152.000 85.800 C 151.670 85.800,151.400 85.890,151.400 86.000 C 151.400 86.110,151.040 86.200,150.600 86.200 C 150.160 86.200,149.800 86.290,149.800 86.400 C 149.800 86.510,149.350 86.600,148.800 86.600 C 148.250 86.600,147.800 86.690,147.800 86.800 C 147.800 86.931,143.000 87.000,133.800 87.000 L 119.800 87.000 119.800 71.400 L 119.800 55.800 132.400 55.800 C 140.667 55.800,145.000 55.869,145.000 56.000 M303.000 102.600 L 303.000 122.200 329.000 122.200 L 355.000 122.200 355.000 119.400 L 355.000 116.600 332.200 116.600 L 309.400 116.600 309.400 102.800 L 309.400 89.000 329.800 89.000 L 350.200 89.000 350.200 86.000 L 350.200 83.000 326.600 83.000 L 303.000 83.000 303.000 102.600 " stroke="none" fill="#fcfcfc" fill-rule="evenodd"/><path id="path1" d="M303.000 53.000 L 303.000 55.800 328.800 55.800 L 354.600 55.800 354.600 53.000 L 354.600 50.200 328.800 50.200 L 303.000 50.200 303.000 53.000 M348.200 130.000 C 348.200 130.110,347.930 130.200,347.600 130.200 C 347.270 130.200,347.000 130.290,347.000 130.400 C 347.000 130.510,346.863 130.600,346.695 130.600 C 346.179 130.600,344.600 132.330,344.600 132.895 C 344.600 133.173,344.510 133.400,344.400 133.400 C 344.286 133.400,344.200 134.000,344.200 134.800 C 344.200 135.600,344.286 136.200,344.400 136.200 C 344.510 136.200,344.600 136.426,344.600 136.703 C 344.600 137.209,347.337 140.200,347.799 140.200 C 347.913 140.200,348.859 141.054,349.903 142.097 C 351.798 143.993,351.800 143.996,351.800 145.004 C 351.800 146.187,350.842 147.400,349.907 147.400 C 349.628 147.400,349.400 147.490,349.400 147.600 C 349.400 147.710,349.220 147.800,349.000 147.800 C 348.780 147.800,348.600 147.710,348.600 147.600 C 348.600 147.490,348.420 147.400,348.200 147.400 C 347.980 147.400,347.800 147.310,347.800 147.200 C 347.800 147.090,347.661 147.000,347.491 147.000 C 347.138 147.000,346.200 146.128,346.200 145.800 C 346.200 145.472,345.262 144.600,344.909 144.600 C 344.739 144.600,344.600 144.690,344.600 144.800 C 344.600 144.910,344.420 145.000,344.200 145.000 C 343.980 145.000,343.800 145.090,343.800 145.200 C 343.800 145.310,343.620 145.400,343.400 145.400 C 343.096 145.400,343.000 145.533,343.000 145.956 C 343.000 146.282,343.165 146.631,343.400 146.800 C 343.620 146.959,343.800 147.205,343.800 147.348 C 343.800 147.839,345.957 149.800,346.496 149.800 C 346.773 149.800,347.000 149.890,347.000 150.000 C 347.000 150.121,347.867 150.200,349.200 150.200 C 350.533 150.200,351.400 150.121,351.400 150.000 C 351.400 149.890,351.580 149.800,351.800 149.800 C 352.020 149.800,352.200 149.710,352.200 149.600 C 352.200 149.490,352.339 149.400,352.509 149.400 C 352.887 149.400,353.800 148.518,353.800 148.153 C 353.800 148.008,353.980 147.759,354.200 147.600 C 354.645 147.279,354.833 142.600,354.400 142.600 C 354.290 142.600,354.200 142.456,354.200 142.280 C 354.200 142.104,353.930 141.708,353.600 141.400 C 353.270 141.092,353.000 140.696,353.000 140.520 C 353.000 140.344,352.859 140.200,352.687 140.200 C 352.515 140.200,351.936 139.750,351.400 139.200 C 350.864 138.650,350.321 138.200,350.193 138.200 C 350.065 138.200,349.708 137.930,349.400 137.600 C 349.092 137.270,348.737 137.000,348.611 137.000 C 348.274 137.000,347.400 136.068,347.400 135.709 C 347.400 135.539,347.310 135.400,347.200 135.400 C 347.090 135.400,347.000 135.130,347.000 134.800 C 347.000 134.470,347.090 134.200,347.200 134.200 C 347.310 134.200,347.400 134.059,347.400 133.886 C 347.400 133.482,347.882 133.000,348.286 133.000 C 348.459 133.000,348.600 132.910,348.600 132.800 C 348.600 132.690,348.780 132.600,349.000 132.600 C 349.220 132.600,349.400 132.690,349.400 132.800 C 349.400 132.910,349.631 133.000,349.913 133.000 C 350.265 133.000,350.731 133.313,351.400 134.000 C 352.303 134.927,353.000 135.276,353.000 134.800 C 353.000 134.690,353.139 134.600,353.309 134.600 C 354.200 134.600,354.856 133.273,354.200 132.800 C 353.980 132.641,353.800 132.392,353.800 132.247 C 353.800 131.882,352.887 131.000,352.509 131.000 C 352.339 131.000,352.200 130.910,352.200 130.800 C 352.200 130.690,352.020 130.600,351.800 130.600 C 351.580 130.600,351.400 130.510,351.400 130.400 C 351.400 130.290,351.130 130.200,350.800 130.200 C 350.470 130.200,350.200 130.110,350.200 130.000 C 350.200 129.890,349.750 129.800,349.200 129.800 C 348.650 129.800,348.200 129.890,348.200 130.000 M45.400 131.000 C 45.400 131.220,45.490 131.400,45.600 131.400 C 45.710 131.400,45.800 131.580,45.800 131.800 C 45.800 132.020,45.890 132.200,46.000 132.200 C 46.110 132.200,46.200 132.380,46.200 132.600 C 46.200 132.820,46.290 133.000,46.400 133.000 C 46.510 133.000,46.600 133.270,46.600 133.600 C 46.600 133.930,46.690 134.200,46.800 134.200 C 46.910 134.200,47.000 134.380,47.000 134.600 C 47.000 134.820,47.090 135.000,47.200 135.000 C 47.310 135.000,47.400 135.180,47.400 135.400 C 47.400 135.620,47.490 135.800,47.600 135.800 C 47.710 135.800,47.800 136.070,47.800 136.400 C 47.800 136.730,47.890 137.000,48.000 137.000 C 48.110 137.000,48.200 137.180,48.200 137.400 C 48.200 137.620,48.290 137.800,48.400 137.800 C 48.510 137.800,48.600 137.980,48.600 138.200 C 48.600 138.420,48.690 138.600,48.800 138.600 C 48.910 138.600,49.000 138.870,49.000 139.200 C 49.000 139.530,49.090 139.800,49.200 139.800 C 49.310 139.800,49.400 139.980,49.400 140.200 C 49.400 140.420,49.490 140.600,49.600 140.600 C 49.710 140.600,49.800 140.780,49.800 141.000 C 49.800 141.220,49.890 141.400,50.000 141.400 C 50.110 141.400,50.200 141.670,50.200 142.000 C 50.200 142.330,50.290 142.600,50.400 142.600 C 50.510 142.600,50.600 142.780,50.600 143.000 C 50.600 143.220,50.690 143.400,50.800 143.400 C 50.910 143.400,51.000 143.580,51.000 143.800 C 51.000 144.020,51.090 144.200,51.200 144.200 C 51.310 144.200,51.400 144.470,51.400 144.800 C 51.400 145.130,51.490 145.400,51.600 145.400 C 51.710 145.400,51.800 145.580,51.800 145.800 C 51.800 146.020,51.890 146.200,52.000 146.200 C 52.110 146.200,52.200 146.380,52.200 146.600 C 52.200 146.820,52.290 147.000,52.400 147.000 C 52.510 147.000,52.600 147.270,52.600 147.600 C 52.600 147.930,52.690 148.200,52.800 148.200 C 52.910 148.200,53.000 148.380,53.000 148.600 C 53.000 148.820,53.090 149.000,53.200 149.000 C 53.310 149.000,53.400 149.180,53.400 149.400 C 53.400 149.733,53.533 149.800,54.200 149.800 C 54.867 149.800,55.000 149.733,55.000 149.400 C 55.000 149.180,55.090 149.000,55.200 149.000 C 55.310 149.000,55.400 148.730,55.400 148.400 C 55.400 148.070,55.490 147.800,55.600 147.800 C 55.710 147.800,55.800 147.620,55.800 147.400 C 55.800 147.180,55.890 147.000,56.000 147.000 C 56.110 147.000,56.200 146.820,56.200 146.600 C 56.200 146.380,56.290 146.200,56.400 146.200 C 56.510 146.200,56.600 145.930,56.600 145.600 C 56.600 145.270,56.690 145.000,56.800 145.000 C 56.910 145.000,57.000 144.820,57.000 144.600 C 57.000 144.380,57.090 144.200,57.200 144.200 C 57.310 144.200,57.400 144.020,57.400 143.800 C 57.400 143.580,57.490 143.400,57.600 143.400 C 57.710 143.400,57.800 143.220,57.800 143.000 C 57.800 142.780,57.890 142.600,58.000 142.600 C 58.110 142.600,58.200 142.330,58.200 142.000 C 58.200 141.670,58.290 141.400,58.400 141.400 C 58.510 141.400,58.600 141.220,58.600 141.000 C 58.600 140.780,58.690 140.600,58.800 140.600 C 58.910 140.600,59.000 140.420,59.000 140.200 C 59.000 139.980,59.090 139.800,59.200 139.800 C 59.310 139.800,59.400 139.530,59.400 139.200 C 59.400 138.870,59.490 138.600,59.600 138.600 C 59.710 138.600,59.800 138.420,59.800 138.200 C 59.800 137.980,59.890 137.800,60.000 137.800 C 60.110 137.800,60.200 137.620,60.200 137.400 C 60.200 137.180,60.290 137.000,60.400 137.000 C 60.510 137.000,60.600 136.730,60.600 136.400 C 60.600 136.070,60.690 135.800,60.800 135.800 C 60.910 135.800,61.000 135.620,61.000 135.400 C 61.000 135.180,61.090 135.000,61.200 135.000 C 61.310 135.000,61.400 134.820,61.400 134.600 C 61.400 134.380,61.490 134.200,61.600 134.200 C 61.710 134.200,61.800 134.020,61.800 133.800 C 61.800 133.580,61.890 133.400,62.000 133.400 C 62.110 133.400,62.200 133.130,62.200 132.800 C 62.200 132.470,62.290 132.200,62.400 132.200 C 62.510 132.200,62.600 132.020,62.600 131.800 C 62.600 131.580,62.690 131.400,62.800 131.400 C 62.910 131.400,63.000 131.220,63.000 131.000 C 63.000 130.633,62.867 130.600,61.400 130.600 C 59.933 130.600,59.800 130.633,59.800 131.000 C 59.800 131.220,59.710 131.400,59.600 131.400 C 59.490 131.400,59.400 131.580,59.400 131.800 C 59.400 132.020,59.310 132.200,59.200 132.200 C 59.090 132.200,59.000 132.470,59.000 132.800 C 59.000 133.130,58.910 133.400,58.800 133.400 C 58.690 133.400,58.600 133.580,58.600 133.800 C 58.600 134.020,58.510 134.200,58.400 134.200 C 58.290 134.200,58.200 134.380,58.200 134.600 C 58.200 134.820,58.110 135.000,58.000 135.000 C 57.890 135.000,57.800 135.270,57.800 135.600 C 57.800 135.930,57.710 136.200,57.600 136.200 C 57.490 136.200,57.400 136.380,57.400 136.600 C 57.400 136.820,57.310 137.000,57.200 137.000 C 57.090 137.000,57.000 137.180,57.000 137.400 C 57.000 137.620,56.910 137.800,56.800 137.800 C 56.690 137.800,56.600 137.980,56.600 138.200 C 56.600 138.420,56.510 138.600,56.400 138.600 C 56.290 138.600,56.200 138.870,56.200 139.200 C 56.200 139.530,56.110 139.800,56.000 139.800 C 55.890 139.800,55.800 139.980,55.800 140.200 C 55.800 140.420,55.710 140.600,55.600 140.600 C 55.490 140.600,55.400 140.780,55.400 141.000 C 55.400 141.220,55.310 141.400,55.200 141.400 C 55.090 141.400,55.000 141.670,55.000 142.000 C 55.000 142.330,54.910 142.600,54.800 142.600 C 54.690 142.600,54.600 142.780,54.600 143.000 C 54.600 143.267,54.467 143.400,54.200 143.400 C 53.933 143.400,53.800 143.267,53.800 143.000 C 53.800 142.780,53.710 142.600,53.600 142.600 C 53.490 142.600,53.400 142.420,53.400 142.200 C 53.400 141.980,53.310 141.800,53.200 141.800 C 53.090 141.800,53.000 141.530,53.000 141.200 C 53.000 140.870,52.910 140.600,52.800 140.600 C 52.690 140.600,52.600 140.420,52.600 140.200 C 52.600 139.980,52.510 139.800,52.400 139.800 C 52.290 139.800,52.200 139.620,52.200 139.400 C 52.200 139.180,52.110 139.000,52.000 139.000 C 51.890 139.000,51.800 138.730,51.800 138.400 C 51.800 138.070,51.710 137.800,51.600 137.800 C 51.490 137.800,51.400 137.620,51.400 137.400 C 51.400 137.180,51.310 137.000,51.200 137.000 C 51.090 137.000,51.000 136.820,51.000 136.600 C 51.000 136.380,50.910 136.200,50.800 136.200 C 50.690 136.200,50.600 135.930,50.600 135.600 C 50.600 135.270,50.510 135.000,50.400 135.000 C 50.290 135.000,50.200 134.820,50.200 134.600 C 50.200 134.380,50.110 134.200,50.000 134.200 C 49.890 134.200,49.800 134.020,49.800 133.800 C 49.800 133.580,49.710 133.400,49.600 133.400 C 49.490 133.400,49.400 133.130,49.400 132.800 C 49.400 132.470,49.310 132.200,49.200 132.200 C 49.090 132.200,49.000 132.020,49.000 131.800 C 49.000 131.580,48.910 131.400,48.800 131.400 C 48.690 131.400,48.600 131.220,48.600 131.000 C 48.600 130.633,48.467 130.600,47.000 130.600 C 45.533 130.600,45.400 130.633,45.400 131.000 M70.200 140.200 L 70.200 149.800 76.000 149.800 L 81.800 149.800 81.800 148.600 L 81.800 147.400 77.400 147.400 L 73.000 147.400 73.000 144.000 L 73.000 140.600 77.400 140.600 L 81.800 140.600 81.800 139.400 L 81.800 138.200 77.400 138.200 L 73.000 138.200 73.000 135.600 L 73.000 133.000 77.400 133.000 L 81.800 133.000 81.800 131.800 L 81.800 130.600 76.000 130.600 L 70.200 130.600 70.200 140.200 M89.400 140.200 L 89.400 149.800 90.600 149.800 L 91.800 149.800 91.800 143.200 C 91.800 138.933,91.871 136.600,92.000 136.600 C 92.110 136.600,92.200 136.740,92.200 136.911 C 92.200 137.082,92.740 137.752,93.400 138.400 C 94.060 139.048,94.600 139.677,94.600 139.799 C 94.600 139.920,95.230 140.641,96.000 141.400 C 96.770 142.159,97.400 142.879,97.400 143.000 C 97.400 143.121,98.030 143.841,98.800 144.600 C 99.570 145.359,100.200 146.079,100.200 146.200 C 100.200 146.321,100.830 147.041,101.600 147.800 C 102.370 148.559,103.000 149.320,103.000 149.490 C 103.000 149.718,103.211 149.800,103.800 149.800 L 104.600 149.800 104.600 140.200 L 104.600 130.600 103.200 130.600 L 101.800 130.600 101.800 137.000 C 101.800 140.520,101.751 143.400,101.691 143.400 C 101.489 143.400,100.600 142.420,100.600 142.198 C 100.600 142.077,100.060 141.448,99.400 140.800 C 98.740 140.152,98.200 139.523,98.200 139.401 C 98.200 139.280,97.570 138.559,96.800 137.800 C 96.030 137.041,95.400 136.321,95.400 136.200 C 95.400 136.079,94.770 135.359,94.000 134.600 C 93.230 133.841,92.600 133.123,92.600 133.005 C 92.600 132.550,90.415 130.600,89.904 130.600 L 89.400 130.600 89.400 140.200 M111.400 131.800 L 111.400 133.000 113.600 133.000 L 115.800 133.000 115.800 141.400 L 115.800 149.800 117.200 149.800 L 118.600 149.800 118.600 141.400 L 118.600 133.000 120.600 133.000 L 122.600 133.000 122.600 131.800 L 122.600 130.600 117.000 130.600 L 111.400 130.600 111.400 131.800 M129.400 137.600 C 129.400 142.133,129.470 144.600,129.600 144.600 C 129.710 144.600,129.800 145.050,129.800 145.600 C 129.800 146.150,129.890 146.600,130.000 146.600 C 130.110 146.600,130.200 146.780,130.200 147.000 C 130.200 147.220,130.290 147.400,130.400 147.400 C 130.510 147.400,130.600 147.538,130.600 147.707 C 130.600 148.105,131.895 149.400,132.293 149.400 C 132.462 149.400,132.600 149.490,132.600 149.600 C 132.600 149.710,132.870 149.800,133.200 149.800 C 133.530 149.800,133.800 149.890,133.800 150.000 C 133.800 150.122,134.733 150.200,136.200 150.200 C 137.667 150.200,138.600 150.122,138.600 150.000 C 138.600 149.890,138.780 149.800,139.000 149.800 C 139.220 149.800,139.400 149.710,139.400 149.600 C 139.400 149.490,139.537 149.400,139.705 149.400 C 140.102 149.400,141.800 147.702,141.800 147.305 C 141.800 147.137,141.890 147.000,142.000 147.000 C 142.110 147.000,142.200 146.640,142.200 146.200 C 142.200 145.760,142.290 145.400,142.400 145.400 C 142.530 145.400,142.600 142.800,142.600 138.000 L 142.600 130.600 141.200 130.600 L 139.800 130.600 139.800 137.800 C 139.800 142.467,139.730 145.000,139.600 145.000 C 139.490 145.000,139.400 145.180,139.400 145.400 C 139.400 145.620,139.310 145.800,139.200 145.800 C 139.090 145.800,139.000 145.941,139.000 146.114 C 139.000 146.518,138.518 147.000,138.114 147.000 C 137.941 147.000,137.800 147.090,137.800 147.200 C 137.800 147.310,137.620 147.400,137.400 147.400 C 137.180 147.400,137.000 147.490,137.000 147.600 C 137.000 147.710,136.640 147.800,136.200 147.800 C 135.760 147.800,135.400 147.710,135.400 147.600 C 135.400 147.490,135.220 147.400,135.000 147.400 C 134.780 147.400,134.600 147.310,134.600 147.200 C 134.600 147.090,134.462 147.000,134.293 147.000 C 133.789 147.000,132.600 145.670,132.600 145.107 C 132.600 144.828,132.510 144.600,132.400 144.600 C 132.270 144.600,132.200 142.133,132.200 137.600 L 132.200 130.600 130.800 130.600 L 129.400 130.600 129.400 137.600 M151.800 140.200 L 151.800 149.800 153.000 149.800 L 154.200 149.800 154.200 145.400 C 154.200 142.980,154.251 141.000,154.314 141.000 C 154.519 141.000,155.000 141.565,155.000 141.805 C 155.000 141.934,155.270 142.292,155.600 142.600 C 155.930 142.908,156.200 143.266,156.200 143.396 C 156.200 143.525,156.560 143.977,157.000 144.400 C 157.440 144.823,157.800 145.275,157.800 145.404 C 157.800 145.534,158.070 145.892,158.400 146.200 C 158.730 146.508,159.000 146.868,159.000 147.000 C 159.000 147.132,159.270 147.492,159.600 147.800 C 159.930 148.108,160.200 148.463,160.200 148.589 C 160.200 149.330,161.167 149.800,162.691 149.800 C 164.471 149.800,164.763 149.286,163.600 148.200 C 163.270 147.892,163.000 147.532,163.000 147.400 C 163.000 147.268,162.730 146.908,162.400 146.600 C 162.070 146.292,161.800 145.934,161.800 145.804 C 161.800 145.675,161.440 145.223,161.000 144.800 C 160.560 144.377,160.200 143.925,160.200 143.796 C 160.200 143.666,159.930 143.308,159.600 143.000 C 159.270 142.692,159.000 142.315,159.000 142.164 C 159.000 142.012,158.820 141.759,158.600 141.600 C 157.952 141.133,158.128 141.000,159.400 141.000 C 160.067 141.000,160.600 140.911,160.600 140.800 C 160.600 140.690,160.827 140.600,161.105 140.600 C 161.670 140.600,163.400 139.021,163.400 138.505 C 163.400 138.337,163.490 138.200,163.600 138.200 C 163.710 138.200,163.800 137.840,163.800 137.400 C 163.800 136.960,163.890 136.600,164.000 136.600 C 164.110 136.600,164.200 136.240,164.200 135.800 C 164.200 135.360,164.110 135.000,164.000 135.000 C 163.890 135.000,163.800 134.640,163.800 134.200 C 163.800 133.760,163.710 133.400,163.600 133.400 C 163.490 133.400,163.400 133.263,163.400 133.095 C 163.400 132.579,161.670 131.000,161.105 131.000 C 160.827 131.000,160.600 130.910,160.600 130.800 C 160.600 130.673,159.000 130.600,156.200 130.600 L 151.800 130.600 151.800 140.200 M172.200 140.200 L 172.200 149.800 178.000 149.800 L 183.800 149.800 183.800 148.600 L 183.800 147.400 179.400 147.400 L 175.000 147.400 175.000 144.000 L 175.000 140.600 179.400 140.600 L 183.800 140.600 183.800 139.400 L 183.800 138.200 179.400 138.200 L 175.000 138.200 175.000 135.600 L 175.000 133.000 179.400 133.000 L 183.800 133.000 183.800 131.800 L 183.800 130.600 178.000 130.600 L 172.200 130.600 172.200 140.200 M199.800 140.200 L 199.800 149.800 201.000 149.800 L 202.200 149.800 202.200 145.400 L 202.200 141.000 205.400 141.000 C 207.400 141.000,208.600 140.925,208.600 140.800 C 208.600 140.690,208.827 140.600,209.104 140.600 C 209.936 140.600,211.800 138.597,211.800 137.704 C 211.800 137.317,211.890 137.000,212.000 137.000 C 212.111 137.000,212.200 136.467,212.200 135.800 C 212.200 135.133,212.111 134.600,212.000 134.600 C 211.890 134.600,211.800 134.330,211.800 134.000 C 211.800 133.670,211.710 133.400,211.600 133.400 C 211.490 133.400,211.400 133.263,211.400 133.095 C 211.400 132.579,209.670 131.000,209.105 131.000 C 208.827 131.000,208.600 130.910,208.600 130.800 C 208.600 130.673,207.000 130.600,204.200 130.600 L 199.800 130.600 199.800 140.200 M227.000 131.000 C 227.000 131.220,226.910 131.400,226.800 131.400 C 226.690 131.400,226.600 131.580,226.600 131.800 C 226.600 132.020,226.510 132.200,226.400 132.200 C 226.290 132.200,226.200 132.380,226.200 132.600 C 226.200 132.820,226.110 133.000,226.000 133.000 C 225.890 133.000,225.800 133.180,225.800 133.400 C 225.800 133.620,225.710 133.800,225.600 133.800 C 225.490 133.800,225.400 133.980,225.400 134.200 C 225.400 134.420,225.310 134.600,225.200 134.600 C 225.090 134.600,225.000 134.780,225.000 135.000 C 225.000 135.220,224.910 135.400,224.800 135.400 C 224.690 135.400,224.600 135.580,224.600 135.800 C 224.600 136.020,224.510 136.200,224.400 136.200 C 224.290 136.200,224.200 136.380,224.200 136.600 C 224.200 136.820,224.110 137.000,224.000 137.000 C 223.890 137.000,223.800 137.270,223.800 137.600 C 223.800 137.930,223.710 138.200,223.600 138.200 C 223.490 138.200,223.400 138.380,223.400 138.600 C 223.400 138.820,223.310 139.000,223.200 139.000 C 223.090 139.000,223.000 139.180,223.000 139.400 C 223.000 139.620,222.910 139.800,222.800 139.800 C 222.690 139.800,222.600 139.980,222.600 140.200 C 222.600 140.420,222.510 140.600,222.400 140.600 C 222.290 140.600,222.200 140.780,222.200 141.000 C 222.200 141.220,222.110 141.400,222.000 141.400 C 221.890 141.400,221.800 141.580,221.800 141.800 C 221.800 142.020,221.710 142.200,221.600 142.200 C 221.490 142.200,221.400 142.380,221.400 142.600 C 221.400 142.820,221.310 143.000,221.200 143.000 C 221.090 143.000,221.000 143.180,221.000 143.400 C 221.000 143.620,220.910 143.800,220.800 143.800 C 220.690 143.800,220.600 143.980,220.600 144.200 C 220.600 144.420,220.510 144.600,220.400 144.600 C 220.290 144.600,220.200 144.870,220.200 145.200 C 220.200 145.530,220.110 145.800,220.000 145.800 C 219.890 145.800,219.800 145.980,219.800 146.200 C 219.800 146.420,219.710 146.600,219.600 146.600 C 219.490 146.600,219.400 146.780,219.400 147.000 C 219.400 147.220,219.310 147.400,219.200 147.400 C 219.090 147.400,219.000 147.580,219.000 147.800 C 219.000 148.020,218.910 148.200,218.800 148.200 C 218.690 148.200,218.600 148.380,218.600 148.600 C 218.600 148.820,218.510 149.000,218.400 149.000 C 218.290 149.000,218.200 149.180,218.200 149.400 C 218.200 149.767,218.333 149.800,219.800 149.800 C 221.267 149.800,221.400 149.767,221.400 149.400 C 221.400 149.180,221.490 149.000,221.600 149.000 C 221.710 149.000,221.800 148.820,221.800 148.600 C 221.800 148.380,221.890 148.200,222.000 148.200 C 222.110 148.200,222.200 148.020,222.200 147.800 C 222.200 147.580,222.290 147.400,222.400 147.400 C 222.510 147.400,222.600 147.220,222.600 147.000 C 222.600 146.780,222.690 146.600,222.800 146.600 C 222.910 146.600,223.000 146.420,223.000 146.200 C 223.000 145.980,223.090 145.800,223.200 145.800 C 223.310 145.800,223.400 145.620,223.400 145.400 C 223.400 145.180,223.490 145.000,223.600 145.000 C 223.710 145.000,223.800 144.859,223.800 144.686 C 223.800 143.897,224.239 143.800,227.800 143.800 C 231.361 143.800,231.800 143.897,231.800 144.686 C 231.800 144.859,231.890 145.000,232.000 145.000 C 232.110 145.000,232.200 145.180,232.200 145.400 C 232.200 145.620,232.290 145.800,232.400 145.800 C 232.510 145.800,232.600 145.980,232.600 146.200 C 232.600 146.420,232.690 146.600,232.800 146.600 C 232.910 146.600,233.000 146.780,233.000 147.000 C 233.000 147.220,233.090 147.400,233.200 147.400 C 233.310 147.400,233.400 147.580,233.400 147.800 C 233.400 148.020,233.490 148.200,233.600 148.200 C 233.710 148.200,233.800 148.431,233.800 148.714 C 233.800 149.553,234.229 149.800,235.686 149.800 L 237.000 149.800 237.000 149.200 C 237.000 148.870,236.910 148.600,236.800 148.600 C 236.690 148.600,236.600 148.330,236.600 148.000 C 236.600 147.670,236.510 147.400,236.400 147.400 C 236.290 147.400,236.200 147.220,236.200 147.000 C 236.200 146.780,236.110 146.600,236.000 146.600 C 235.890 146.600,235.800 146.420,235.800 146.200 C 235.800 145.980,235.710 145.800,235.600 145.800 C 235.490 145.800,235.400 145.620,235.400 145.400 C 235.400 145.180,235.310 145.000,235.200 145.000 C 235.090 145.000,235.000 144.820,235.000 144.600 C 235.000 144.380,234.910 144.200,234.800 144.200 C 234.690 144.200,234.600 144.020,234.600 143.800 C 234.600 143.580,234.510 143.400,234.400 143.400 C 234.290 143.400,234.200 143.220,234.200 143.000 C 234.200 142.780,234.110 142.600,234.000 142.600 C 233.890 142.600,233.800 142.330,233.800 142.000 C 233.800 141.670,233.710 141.400,233.600 141.400 C 233.490 141.400,233.400 141.220,233.400 141.000 C 233.400 140.780,233.310 140.600,233.200 140.600 C 233.090 140.600,233.000 140.420,233.000 140.200 C 233.000 139.980,232.910 139.800,232.800 139.800 C 232.690 139.800,232.600 139.620,232.600 139.400 C 232.600 139.180,232.510 139.000,232.400 139.000 C 232.290 139.000,232.200 138.820,232.200 138.600 C 232.200 138.380,232.110 138.200,232.000 138.200 C 231.890 138.200,231.800 138.020,231.800 137.800 C 231.800 137.580,231.710 137.400,231.600 137.400 C 231.490 137.400,231.400 137.130,231.400 136.800 C 231.400 136.470,231.310 136.200,231.200 136.200 C 231.090 136.200,231.000 136.020,231.000 135.800 C 231.000 135.580,230.910 135.400,230.800 135.400 C 230.690 135.400,230.600 135.220,230.600 135.000 C 230.600 134.780,230.510 134.600,230.400 134.600 C 230.290 134.600,230.200 134.420,230.200 134.200 C 230.200 133.980,230.110 133.800,230.000 133.800 C 229.890 133.800,229.800 133.620,229.800 133.400 C 229.800 133.180,229.710 133.000,229.600 133.000 C 229.490 133.000,229.400 132.820,229.400 132.600 C 229.400 132.380,229.310 132.200,229.200 132.200 C 229.090 132.200,229.000 132.020,229.000 131.800 C 229.000 131.580,228.910 131.400,228.800 131.400 C 228.690 131.400,228.600 131.220,228.600 131.000 C 228.600 130.667,228.467 130.600,227.800 130.600 C 227.133 130.600,227.000 130.667,227.000 131.000 M244.200 140.200 L 244.200 149.800 245.600 149.800 L 247.000 149.800 247.000 145.400 C 247.000 142.600,247.073 141.000,247.200 141.000 C 247.310 141.000,247.400 141.142,247.400 141.316 C 247.400 141.489,247.760 141.977,248.200 142.400 C 248.640 142.823,249.000 143.275,249.000 143.404 C 249.000 143.534,249.270 143.892,249.600 144.200 C 249.930 144.508,250.200 144.868,250.200 145.000 C 250.200 145.132,250.470 145.492,250.800 145.800 C 251.130 146.108,251.400 146.466,251.400 146.596 C 251.400 146.725,251.760 147.177,252.200 147.600 C 252.640 148.023,253.000 148.470,253.000 148.593 C 253.000 149.330,253.970 149.800,255.491 149.800 C 257.271 149.800,257.563 149.286,256.400 148.200 C 256.070 147.892,255.800 147.534,255.800 147.404 C 255.800 147.275,255.440 146.823,255.000 146.400 C 254.560 145.977,254.200 145.525,254.200 145.396 C 254.200 145.266,253.930 144.908,253.600 144.600 C 253.270 144.292,253.000 143.934,253.000 143.804 C 253.000 143.675,252.640 143.223,252.200 142.800 C 251.760 142.377,251.400 141.889,251.400 141.716 C 251.400 141.542,251.310 141.400,251.200 141.400 C 251.090 141.400,251.000 141.310,251.000 141.200 C 251.000 141.089,251.533 141.000,252.200 141.000 C 252.867 141.000,253.400 140.911,253.400 140.800 C 253.400 140.690,253.627 140.600,253.905 140.600 C 254.470 140.600,256.200 139.021,256.200 138.505 C 256.200 138.337,256.290 138.200,256.400 138.200 C 256.522 138.200,256.600 137.267,256.600 135.800 C 256.600 134.333,256.522 133.400,256.400 133.400 C 256.290 133.400,256.200 133.262,256.200 133.093 C 256.200 132.695,254.905 131.400,254.507 131.400 C 254.338 131.400,254.200 131.310,254.200 131.200 C 254.200 131.090,254.020 131.000,253.800 131.000 C 253.580 131.000,253.400 130.910,253.400 130.800 C 253.400 130.672,251.733 130.600,248.800 130.600 L 244.200 130.600 244.200 140.200 M263.000 131.800 L 263.000 133.000 265.200 133.000 L 267.400 133.000 267.400 141.400 L 267.400 149.800 268.800 149.800 L 270.200 149.800 270.200 141.400 L 270.200 133.000 272.200 133.000 L 274.200 133.000 274.200 131.800 L 274.200 130.600 268.600 130.600 L 263.000 130.600 263.000 131.800 M281.000 140.200 L 281.000 149.800 282.400 149.800 L 283.800 149.800 283.800 143.400 C 283.800 139.880,283.847 137.000,283.904 137.000 C 284.106 137.000,286.200 139.194,286.200 139.405 C 286.200 139.523,286.830 140.241,287.600 141.000 C 288.370 141.759,289.000 142.480,289.000 142.601 C 289.000 142.723,289.540 143.352,290.200 144.000 C 290.860 144.648,291.400 145.277,291.400 145.399 C 291.400 145.520,292.030 146.241,292.800 147.000 C 293.570 147.759,294.200 148.479,294.200 148.599 C 294.200 149.100,295.187 149.800,295.891 149.800 L 296.600 149.800 296.600 140.200 L 296.600 130.600 295.200 130.600 L 293.800 130.600 293.800 137.000 C 293.800 140.520,293.752 143.400,293.693 143.400 C 293.492 143.400,292.200 142.013,292.200 141.797 C 292.200 141.678,291.570 140.959,290.800 140.200 C 290.030 139.441,289.400 138.721,289.400 138.600 C 289.400 138.479,288.770 137.759,288.000 137.000 C 287.230 136.241,286.600 135.520,286.600 135.399 C 286.600 135.277,286.060 134.648,285.400 134.000 C 284.740 133.352,284.200 132.725,284.200 132.606 C 284.200 132.040,282.409 130.600,281.705 130.600 L 281.000 130.600 281.000 140.200 M305.400 140.200 L 305.400 149.800 311.000 149.800 L 316.600 149.800 316.600 148.600 L 316.600 147.400 312.200 147.400 L 307.800 147.400 307.800 144.000 L 307.800 140.600 312.200 140.600 L 316.600 140.600 316.600 139.400 L 316.600 138.200 312.200 138.200 L 307.800 138.200 307.800 135.600 L 307.800 133.000 312.200 133.000 L 316.600 133.000 316.600 131.800 L 316.600 130.600 311.000 130.600 L 305.400 130.600 305.400 140.200 M324.200 140.200 L 324.200 149.800 325.600 149.800 L 327.000 149.800 327.000 145.400 C 327.000 142.600,327.073 141.000,327.200 141.000 C 327.310 141.000,327.400 141.142,327.400 141.316 C 327.400 141.489,327.760 141.977,328.200 142.400 C 328.640 142.823,329.000 143.275,329.000 143.404 C 329.000 143.534,329.270 143.892,329.600 144.200 C 329.930 144.508,330.200 144.866,330.200 144.996 C 330.200 145.125,330.560 145.577,331.000 146.000 C 331.440 146.423,331.800 146.875,331.800 147.004 C 331.800 147.134,332.070 147.492,332.400 147.800 C 332.730 148.108,333.000 148.463,333.000 148.589 C 333.000 149.330,333.967 149.800,335.491 149.800 C 337.271 149.800,337.563 149.286,336.400 148.200 C 336.070 147.892,335.800 147.534,335.800 147.404 C 335.800 147.275,335.440 146.823,335.000 146.400 C 334.560 145.977,334.200 145.525,334.200 145.396 C 334.200 145.266,333.930 144.908,333.600 144.600 C 333.270 144.292,333.000 143.932,333.000 143.800 C 333.000 143.668,332.730 143.308,332.400 143.000 C 332.070 142.692,331.800 142.315,331.800 142.164 C 331.800 142.012,331.620 141.759,331.400 141.600 C 330.752 141.133,330.928 141.000,332.200 141.000 C 332.867 141.000,333.400 140.911,333.400 140.800 C 333.400 140.690,333.627 140.600,333.905 140.600 C 334.470 140.600,336.200 139.021,336.200 138.505 C 336.200 138.337,336.290 138.200,336.400 138.200 C 336.522 138.200,336.600 137.267,336.600 135.800 C 336.600 134.333,336.522 133.400,336.400 133.400 C 336.290 133.400,336.200 133.262,336.200 133.093 C 336.200 132.695,334.905 131.400,334.507 131.400 C 334.338 131.400,334.200 131.310,334.200 131.200 C 334.200 131.090,334.020 131.000,333.800 131.000 C 333.580 131.000,333.400 130.910,333.400 130.800 C 333.400 130.672,331.733 130.600,328.800 130.600 L 324.200 130.600 324.200 140.200 M158.600 133.200 C 158.600 133.310,158.828 133.400,159.107 133.400 C 159.670 133.400,161.000 134.589,161.000 135.093 C 161.000 135.262,161.090 135.400,161.200 135.400 C 161.310 135.400,161.400 135.580,161.400 135.800 C 161.400 136.020,161.310 136.200,161.200 136.200 C 161.090 136.200,161.000 136.380,161.000 136.600 C 161.000 136.820,160.910 137.000,160.800 137.000 C 160.690 137.000,160.600 137.180,160.600 137.400 C 160.600 137.667,160.467 137.800,160.200 137.800 C 159.980 137.800,159.800 137.890,159.800 138.000 C 159.800 138.110,159.620 138.200,159.400 138.200 C 159.180 138.200,159.000 138.290,159.000 138.400 C 159.000 138.522,158.067 138.600,156.600 138.600 L 154.200 138.600 154.200 135.800 L 154.200 133.000 156.400 133.000 C 157.733 133.000,158.600 133.079,158.600 133.200 M207.000 133.200 C 207.000 133.310,207.180 133.400,207.400 133.400 C 207.620 133.400,207.800 133.490,207.800 133.600 C 207.800 133.710,207.980 133.800,208.200 133.800 C 208.467 133.800,208.600 133.933,208.600 134.200 C 208.600 134.420,208.690 134.600,208.800 134.600 C 208.910 134.600,209.000 134.780,209.000 135.000 C 209.000 135.220,209.090 135.400,209.200 135.400 C 209.310 135.400,209.400 135.580,209.400 135.800 C 209.400 136.020,209.310 136.200,209.200 136.200 C 209.090 136.200,209.000 136.380,209.000 136.600 C 209.000 136.820,208.910 137.000,208.800 137.000 C 208.690 137.000,208.600 137.180,208.600 137.400 C 208.600 137.667,208.467 137.800,208.200 137.800 C 207.980 137.800,207.800 137.890,207.800 138.000 C 207.800 138.110,207.620 138.200,207.400 138.200 C 207.180 138.200,207.000 138.290,207.000 138.400 C 207.000 138.522,206.067 138.600,204.600 138.600 L 202.200 138.600 202.200 135.800 L 202.200 133.000 204.600 133.000 C 206.067 133.000,207.000 133.078,207.000 133.200 M251.400 133.200 C 251.400 133.310,251.628 133.400,251.907 133.400 C 252.843 133.400,253.800 134.612,253.800 135.800 C 253.800 136.865,252.858 138.200,252.107 138.200 C 251.938 138.200,251.800 138.290,251.800 138.400 C 251.800 138.522,250.867 138.600,249.400 138.600 L 247.000 138.600 247.000 135.800 L 247.000 133.000 249.200 133.000 C 250.533 133.000,251.400 133.079,251.400 133.200 M331.400 133.200 C 331.400 133.310,331.628 133.400,331.907 133.400 C 332.843 133.400,333.800 134.612,333.800 135.800 C 333.800 136.865,332.858 138.200,332.107 138.200 C 331.938 138.200,331.800 138.290,331.800 138.400 C 331.800 138.522,330.867 138.600,329.400 138.600 L 327.000 138.600 327.000 135.800 L 327.000 133.000 329.200 133.000 C 330.533 133.000,331.400 133.079,331.400 133.200 M228.200 137.000 C 228.200 137.220,228.290 137.400,228.400 137.400 C 228.510 137.400,228.600 137.580,228.600 137.800 C 228.600 138.020,228.690 138.200,228.800 138.200 C 228.910 138.200,229.000 138.380,229.000 138.600 C 229.000 138.820,229.090 139.000,229.200 139.000 C 229.310 139.000,229.400 139.180,229.400 139.400 C 229.400 139.620,229.490 139.800,229.600 139.800 C 229.710 139.800,229.800 139.980,229.800 140.200 C 229.800 140.420,229.890 140.600,230.000 140.600 C 230.110 140.600,230.200 140.690,230.200 140.800 C 230.200 140.922,229.267 141.000,227.800 141.000 C 226.333 141.000,225.400 140.922,225.400 140.800 C 225.400 140.690,225.490 140.600,225.600 140.600 C 225.710 140.600,225.800 140.420,225.800 140.200 C 225.800 139.980,225.890 139.800,226.000 139.800 C 226.110 139.800,226.200 139.620,226.200 139.400 C 226.200 139.180,226.290 139.000,226.400 139.000 C 226.510 139.000,226.600 138.820,226.600 138.600 C 226.600 138.380,226.690 138.200,226.800 138.200 C 226.910 138.200,227.000 138.020,227.000 137.800 C 227.000 137.580,227.090 137.400,227.200 137.400 C 227.310 137.400,227.400 137.220,227.400 137.000 C 227.400 136.733,227.533 136.600,227.800 136.600 C 228.067 136.600,228.200 136.733,228.200 137.000 " stroke="none" fill="#fc5c0c" fill-rule="evenodd"/><path id="path2" d="" stroke="none" fill="#fc100c0" fill-rule="evenodd"/><path id="path3" d="" stroke="none" fill="#fc100c0" fill-rule="evenodd"/><path id="path4" d="" stroke="none" fill="#fc100c0" fill-rule="evenodd"/></g></svg>