<svg id="SvgjsSvg1012" width="288" height="288" xmlns="http://www.w3.org/2000/svg" version="1.1" xmlns:xlink="http://www.w3.org/1999/xlink" xmlns:svgjs="http://svgjs.com/svgjs"><defs id="SvgjsDefs1013"></defs><g id="SvgjsG1014"><svg xmlns="http://www.w3.org/2000/svg" width="288" height="288" viewBox="0 0 400 400"><path fill="#f8f8f8" fill-rule="evenodd" d="M83.739 37.069 C 83.369 37.277,83.264 38.217,83.264 41.339 L 83.264 45.342 88.591 50.731 L 93.917 56.120 93.919 74.980 C 93.921 90.602,93.843 93.906,93.463 94.221 C 93.126 94.501,87.062 94.578,70.665 94.512 C 55.147 94.449,48.218 94.530,47.971 94.777 C 47.733 95.015,47.644 97.778,47.704 103.104 L 47.794 111.074 70.410 111.160 C 86.083 111.219,93.160 111.356,93.463 111.607 C 93.817 111.902,93.922 121.078,94.022 160.814 C 94.156 214.046,94.037 210.455,95.872 216.819 C 99.663 229.974,109.306 239.179,122.398 242.141 C 149.284 248.224,166.178 243.844,178.236 227.664 C 185.394 218.059,185.950 209.808,179.640 206.842 C 177.085 205.641,175.714 206.134,173.832 208.932 C 164.274 223.139,150.293 230.148,139.095 226.347 C 132.348 224.056,128.259 218.541,126.391 209.210 C 125.944 206.979,125.892 200.731,125.971 159.034 L 126.062 111.407 170.980 111.323 C 213.655 111.242,215.891 111.267,215.743 111.822 C 215.590 112.401,204.392 127.419,203.637 128.060 C 203.421 128.243,191.461 144.112,177.059 163.325 L 150.874 198.257 150.874 201.654 C 150.874 203.523,150.967 205.145,151.081 205.258 C 151.195 205.372,155.804 203.187,161.323 200.401 C 177.036 192.471,178.421 192.004,186.178 192.013 C 203.322 192.034,216.744 201.384,223.464 217.985 C 223.612 218.351,223.974 219.251,224.268 219.983 C 228.940 231.639,230.222 253.687,227.153 269.609 C 226.516 272.909,225.079 278.318,224.496 279.600 C 224.330 279.967,223.872 281.166,223.478 282.265 C 219.034 294.663,208.919 303.826,195.854 307.289 C 184.963 310.175,168.322 307.953,158.199 302.259 C 157.128 301.657,153.539 298.215,153.539 297.791 C 153.539 297.613,154.400 297.061,155.454 296.564 C 160.548 294.160,164.331 288.559,165.211 282.117 C 167.146 267.958,157.380 257.689,143.214 258.988 C 137.009 259.556,131.262 263.000,128.429 267.847 C 123.359 276.522,125.760 292.276,133.843 303.369 C 134.692 304.535,135.703 305.959,136.090 306.533 C 141.192 314.112,152.680 321.148,163.863 323.543 C 165.237 323.837,167.050 324.232,167.891 324.421 C 179.589 327.044,199.133 325.846,212.656 321.677 C 214.488 321.113,216.129 320.519,216.303 320.359 C 216.477 320.198,216.839 320.067,217.107 320.067 C 218.724 320.067,229.566 314.482,233.464 311.641 C 271.541 283.894,269.278 209.901,229.624 186.088 C 213.912 176.652,199.478 173.844,187.438 177.879 C 185.284 178.602,185.179 178.619,185.179 178.255 C 185.179 178.014,219.315 143.883,246.045 117.397 C 252.136 111.363,257.119 106.264,257.119 106.068 C 257.119 105.696,246.206 94.671,245.414 94.243 C 245.166 94.109,243.838 94.033,242.465 94.074 C 237.976 94.209,126.139 94.277,126.007 94.145 C 125.937 94.074,125.884 82.696,125.891 68.861 C 125.897 55.025,125.809 43.460,125.694 43.160 C 125.579 42.860,122.964 41.349,119.884 39.802 L 114.284 36.989 99.249 36.896 C 90.980 36.845,84.001 36.923,83.739 37.069 " class="colorf8f8f8 svgShape"></path><path fill="#212121" fill-rule="evenodd" d="M0.000 200.000 L 0.000 400.000 200.000 400.000 L 400.000 400.000 400.000 200.000 L 400.000 0.000 200.000 0.000 L 0.000 0.000 0.000 200.000 M119.884 39.802 C 122.964 41.349,125.579 42.860,125.694 43.160 C 125.809 43.460,125.897 55.025,125.891 68.861 C 125.884 82.696,125.937 94.074,126.007 94.145 C 126.139 94.277,237.976 94.209,242.465 94.074 C 243.838 94.033,245.166 94.109,245.414 94.243 C 246.206 94.671,257.119 105.696,257.119 106.068 C 257.119 106.264,252.136 111.363,246.045 117.397 C 219.315 143.883,185.179 178.014,185.179 178.255 C 185.179 178.619,185.284 178.602,187.438 177.879 C 199.478 173.844,213.912 176.652,229.624 186.088 C 269.278 209.901,271.541 283.894,233.464 311.641 C 229.566 314.482,218.724 320.067,217.107 320.067 C 216.839 320.067,216.477 320.198,216.303 320.359 C 215.912 320.719,210.253 322.477,206.661 323.354 C 203.736 324.068,199.068 324.839,194.164 325.418 C 188.369 326.101,172.741 325.508,167.891 324.421 C 167.050 324.232,165.237 323.837,163.863 323.543 C 152.680 321.148,141.192 314.112,136.090 306.533 C 135.703 305.959,134.692 304.535,133.843 303.369 C 125.760 292.276,123.359 276.522,128.429 267.847 C 134.838 256.882,153.632 255.748,161.307 265.864 C 167.452 273.963,166.824 286.219,159.911 293.122 C 158.261 294.770,156.697 295.977,155.454 296.564 C 154.400 297.061,153.539 297.613,153.539 297.791 C 153.539 298.215,157.128 301.657,158.199 302.259 C 168.322 307.953,184.963 310.175,195.854 307.289 C 208.919 303.826,219.034 294.663,223.478 282.265 C 223.872 281.166,224.330 279.967,224.496 279.600 C 227.685 272.577,229.850 250.668,228.479 239.301 C 227.568 231.746,225.881 224.008,224.268 219.983 C 223.974 219.251,223.612 218.351,223.464 217.985 C 216.744 201.384,203.322 192.034,186.178 192.013 C 178.421 192.004,177.036 192.471,161.323 200.401 C 155.804 203.187,151.195 205.372,151.081 205.258 C 150.967 205.145,150.874 203.523,150.874 201.654 L 150.874 198.257 177.059 163.325 C 191.461 144.112,203.421 128.243,203.637 128.060 C 204.392 127.419,215.590 112.401,215.743 111.822 C 215.891 111.267,213.655 111.242,170.980 111.323 L 126.062 111.407 125.971 159.034 C 125.874 210.188,125.823 208.383,127.524 213.709 C 128.477 216.693,130.389 220.009,132.358 222.095 C 142.541 232.884,161.838 226.760,173.832 208.932 C 175.714 206.134,177.085 205.641,179.640 206.842 C 185.950 209.808,185.394 218.059,178.236 227.664 C 167.648 241.871,154.493 246.604,132.889 243.981 C 128.855 243.491,126.673 243.108,122.398 242.141 C 109.306 239.179,99.663 229.974,95.872 216.819 C 94.037 210.455,94.156 214.046,94.022 160.814 C 93.922 121.078,93.817 111.902,93.463 111.607 C 93.160 111.356,86.083 111.219,70.410 111.160 L 47.794 111.074 47.704 103.104 C 47.644 97.778,47.733 95.015,47.971 94.777 C 48.218 94.530,55.147 94.449,70.665 94.512 C 87.062 94.578,93.126 94.501,93.463 94.221 C 93.843 93.906,93.921 90.602,93.919 74.980 L 93.917 56.120 88.591 50.731 L 83.264 45.342 83.264 41.339 C 83.264 38.217,83.369 37.277,83.739 37.069 C 84.001 36.923,90.980 36.845,99.249 36.896 L 114.284 36.989 119.884 39.802 " class="color161616 svgShape"></path></svg></g></svg>