<svg id="SvgjsSvg1018" xmlns="http://www.w3.org/2000/svg" version="1.1" xmlns:xlink="http://www.w3.org/1999/xlink" xmlns:svgjs="http://svgjs.com/svgjs" viewBox="0 109.4 288 69.13"><defs id="SvgjsDefs1019"/><g id="SvgjsG1020"><svg xmlns="http://www.w3.org/2000/svg" width="288" height="288" viewBox="0 0 400 96.104"><path fill="#79f8bb" fill-rule="evenodd" d="M24.951 15.766 C 24.226 16.159,24.167 16.566,24.167 21.147 L 24.167 25.439 24.702 26.136 L 25.238 26.833 43.555 26.833 L 61.872 26.833 62.519 26.125 L 63.167 25.417 63.147 21.333 C 63.124 16.545,63.101 16.387,62.350 15.881 L 61.784 15.500 43.600 15.507 C 27.676 15.513,25.359 15.545,24.951 15.766 M73.042 15.775 L 72.667 16.041 72.667 42.009 C 72.667 58.048,72.606 68.138,72.508 68.396 C 72.238 69.105,71.761 69.233,69.167 69.290 C 64.705 69.388,65.001 68.969,65.001 75.179 C 65.000 79.768,65.001 79.776,65.386 80.138 L 65.771 80.500 78.693 80.500 C 91.614 80.500,91.615 80.500,91.933 80.150 C 92.224 79.827,92.254 79.452,92.302 75.525 C 92.381 69.097,92.510 69.333,88.938 69.333 C 86.381 69.333,85.187 69.060,84.941 68.419 C 84.882 68.265,84.833 56.457,84.833 42.179 L 84.833 16.218 84.483 15.901 C 83.985 15.450,73.661 15.337,73.042 15.775 M94.930 15.687 C 94.570 15.771,94.176 15.923,94.055 16.024 C 93.872 16.175,93.833 21.788,93.833 48.108 L 93.833 80.008 94.292 80.212 C 95.146 80.593,105.546 80.495,105.980 80.102 C 106.327 79.787,106.327 79.780,106.372 62.852 C 106.411 48.129,106.449 45.867,106.667 45.538 C 107.049 44.958,107.374 45.158,107.832 46.255 C 108.062 46.805,108.452 47.554,108.698 47.919 C 108.945 48.285,109.198 48.808,109.262 49.083 C 109.325 49.358,109.541 49.808,109.742 50.083 C 109.943 50.358,110.238 50.917,110.398 51.324 C 110.558 51.731,110.826 52.256,110.992 52.490 C 111.158 52.725,111.513 53.367,111.781 53.917 C 112.553 55.499,112.994 56.372,113.338 57.000 C 113.513 57.321,113.892 58.067,114.178 58.658 C 114.465 59.249,114.873 59.961,115.084 60.241 C 115.296 60.521,115.553 61.065,115.656 61.451 C 115.758 61.836,116.014 62.361,116.225 62.617 C 116.435 62.874,116.780 63.516,116.991 64.045 C 117.202 64.573,117.439 65.045,117.517 65.094 C 117.665 65.186,119.667 69.189,119.667 69.393 C 119.667 69.456,119.929 69.890,120.250 70.356 C 120.571 70.822,120.833 71.293,120.833 71.403 C 120.833 71.512,121.047 71.939,121.309 72.352 C 121.571 72.765,121.913 73.486,122.068 73.955 C 122.224 74.424,122.470 74.906,122.615 75.026 C 122.759 75.146,123.104 75.718,123.381 76.298 C 124.135 77.876,124.224 77.906,128.417 77.973 C 130.342 78.004,132.551 77.977,133.326 77.913 L 134.736 77.798 135.452 77.024 C 135.846 76.598,136.243 75.983,136.332 75.657 C 136.422 75.331,136.715 74.731,136.983 74.323 C 137.250 73.916,137.553 73.268,137.656 72.883 C 137.758 72.497,138.030 71.959,138.259 71.686 C 138.489 71.413,138.826 70.757,139.008 70.228 C 139.190 69.699,139.482 69.112,139.657 68.925 C 139.832 68.737,140.141 68.133,140.342 67.583 C 140.544 67.033,140.849 66.429,141.021 66.240 C 141.192 66.051,141.447 65.510,141.587 65.039 C 141.727 64.568,142.030 63.958,142.261 63.684 C 142.492 63.410,142.800 62.825,142.946 62.384 C 143.092 61.944,143.339 61.433,143.494 61.250 C 143.650 61.067,143.938 60.482,144.136 59.951 C 144.333 59.420,144.674 58.745,144.893 58.451 C 145.113 58.157,145.386 57.617,145.500 57.250 C 145.614 56.883,145.896 56.332,146.125 56.025 C 146.355 55.717,146.647 55.119,146.775 54.696 C 146.902 54.272,147.190 53.661,147.413 53.338 C 147.637 53.014,147.932 52.430,148.070 52.039 C 148.208 51.648,148.512 51.077,148.746 50.770 C 148.980 50.463,149.294 49.846,149.444 49.398 C 149.594 48.950,149.863 48.374,150.042 48.117 C 150.220 47.861,150.533 47.224,150.735 46.701 C 150.947 46.155,151.206 45.750,151.343 45.750 C 151.916 45.750,151.981 46.736,151.991 55.599 C 152.000 63.866,152.015 64.295,152.312 64.564 C 152.814 65.018,163.468 64.898,163.983 64.433 L 164.333 64.115 164.324 40.766 C 164.318 27.924,164.262 17.126,164.199 16.770 C 163.976 15.523,163.715 15.473,157.833 15.535 C 152.464 15.592,152.156 15.635,151.821 16.385 C 151.731 16.586,151.472 17.005,151.245 17.317 C 151.018 17.629,150.755 18.173,150.659 18.528 C 150.564 18.882,150.337 19.424,150.155 19.732 C 149.973 20.040,149.645 20.750,149.426 21.310 C 149.207 21.869,148.882 22.535,148.704 22.788 C 148.526 23.042,148.225 23.670,148.035 24.184 C 147.845 24.698,147.497 25.402,147.261 25.749 C 147.026 26.096,146.833 26.516,146.833 26.682 C 146.833 27.081,146.515 27.798,146.063 28.417 C 145.862 28.692,145.616 29.221,145.518 29.593 C 145.419 29.965,145.121 30.603,144.856 31.010 C 144.591 31.417,144.243 32.155,144.082 32.649 C 143.922 33.144,143.618 33.802,143.407 34.113 C 143.197 34.424,142.972 34.919,142.909 35.214 C 142.846 35.509,142.548 36.162,142.246 36.667 C 141.945 37.171,141.607 37.883,141.495 38.250 C 141.384 38.617,141.159 39.067,140.995 39.250 C 140.832 39.433,140.578 39.993,140.431 40.494 C 140.284 40.996,139.969 41.699,139.732 42.057 C 139.495 42.415,139.169 43.093,139.007 43.562 C 138.845 44.032,138.516 44.707,138.276 45.061 C 137.874 45.653,137.503 46.635,137.501 47.112 C 137.500 47.220,137.310 47.534,137.078 47.810 C 136.845 48.086,136.540 48.700,136.399 49.174 C 136.258 49.647,135.924 50.338,135.655 50.709 C 135.386 51.080,135.167 51.514,135.167 51.675 C 135.167 51.835,134.933 52.405,134.648 52.941 C 134.363 53.478,133.998 54.292,133.838 54.750 C 133.678 55.208,133.347 55.878,133.102 56.238 C 132.858 56.598,132.613 57.085,132.558 57.321 C 132.502 57.557,132.209 58.237,131.905 58.833 C 131.602 59.429,131.230 60.273,131.080 60.709 C 130.890 61.258,130.580 61.685,130.069 62.104 C 129.177 62.835,129.033 62.761,128.499 61.289 C 128.291 60.718,127.982 60.071,127.811 59.853 C 127.641 59.635,127.426 59.178,127.334 58.837 C 127.243 58.497,126.943 57.888,126.668 57.484 C 126.393 57.080,126.092 56.479,126.000 56.148 C 125.908 55.817,125.655 55.284,125.438 54.964 C 125.221 54.644,124.916 54.000,124.761 53.534 C 124.606 53.067,124.328 52.493,124.144 52.259 C 123.959 52.024,123.626 51.369,123.404 50.802 C 123.183 50.236,122.861 49.617,122.691 49.428 C 122.520 49.238,122.240 48.671,122.069 48.167 C 121.898 47.663,121.597 47.025,121.400 46.750 C 121.203 46.475,120.917 45.865,120.764 45.395 C 120.611 44.924,120.342 44.409,120.167 44.250 C 119.991 44.091,119.720 43.576,119.564 43.105 C 119.408 42.635,119.100 41.976,118.879 41.641 C 118.658 41.306,118.372 40.682,118.243 40.254 C 118.114 39.825,117.821 39.252,117.592 38.979 C 117.362 38.707,117.065 38.113,116.930 37.660 C 116.795 37.206,116.486 36.574,116.242 36.255 C 115.999 35.936,115.728 35.355,115.640 34.966 C 115.553 34.576,115.289 34.005,115.054 33.697 C 114.819 33.389,114.488 32.757,114.319 32.293 C 114.149 31.829,113.823 31.179,113.595 30.850 C 113.367 30.520,113.064 29.921,112.923 29.518 C 112.781 29.116,112.521 28.553,112.345 28.268 C 112.169 27.983,111.867 27.326,111.673 26.807 C 111.479 26.288,111.214 25.775,111.083 25.667 C 110.953 25.558,110.687 25.045,110.494 24.526 C 110.300 24.008,109.974 23.358,109.770 23.083 C 109.566 22.808,109.301 22.246,109.183 21.833 C 109.064 21.421,108.799 20.858,108.593 20.583 C 108.387 20.308,108.051 19.633,107.846 19.083 C 107.642 18.533,107.349 17.946,107.196 17.779 C 107.042 17.611,106.729 17.086,106.500 16.612 C 106.097 15.779,106.055 15.746,105.250 15.640 C 103.994 15.473,95.678 15.511,94.930 15.687 M168.919 15.726 C 168.506 15.850,168.176 16.082,168.047 16.338 C 167.793 16.839,167.732 79.044,167.984 79.708 C 168.281 80.489,168.495 80.500,183.811 80.500 C 197.944 80.500,198.172 80.495,198.500 80.167 C 199.027 79.640,199.016 69.611,198.488 68.939 L 198.142 68.500 189.563 68.500 L 180.983 68.500 180.741 67.922 C 180.331 66.940,180.388 53.986,180.805 53.609 C 181.083 53.358,182.201 53.333,193.453 53.333 C 205.358 53.333,205.810 53.322,206.190 53.015 L 206.583 52.696 206.583 47.437 C 206.583 42.612,206.559 42.154,206.286 41.881 C 206.007 41.602,205.201 41.578,193.452 41.500 C 186.558 41.454,180.823 41.356,180.708 41.282 C 180.323 41.033,180.416 27.961,180.805 27.609 C 181.080 27.360,181.934 27.333,189.607 27.333 C 197.928 27.333,198.111 27.326,198.469 26.994 C 198.829 26.658,198.833 26.589,198.833 21.439 L 198.833 16.225 198.448 15.862 L 198.062 15.500 183.823 15.513 C 173.255 15.522,169.412 15.577,168.919 15.726 M209.333 15.801 C 208.491 16.266,208.520 15.528,208.510 36.344 L 208.500 55.272 209.148 55.636 C 210.115 56.180,219.960 56.206,220.500 55.667 C 220.830 55.337,220.833 55.111,220.833 35.776 L 220.833 16.218 220.483 15.901 C 219.932 15.403,210.214 15.316,209.333 15.801 M254.667 15.824 L 254.083 16.135 254.000 42.354 L 253.917 68.573 253.250 68.950 C 252.636 69.298,252.376 69.328,249.956 69.331 L 247.328 69.333 246.998 69.875 C 246.483 70.720,246.488 79.655,247.004 80.171 C 247.338 80.504,247.482 80.507,260.249 80.462 L 273.158 80.417 273.537 80.037 C 273.909 79.665,273.918 79.574,273.975 75.320 C 274.054 69.406,274.012 69.335,270.465 69.332 C 267.541 69.330,266.865 69.211,266.575 68.651 C 266.367 68.248,266.333 64.575,266.333 42.181 L 266.333 16.180 265.969 15.840 C 265.430 15.338,255.606 15.324,254.667 15.824 M276.500 15.616 C 275.025 15.762,275.167 13.131,275.167 40.355 L 275.167 64.491 275.658 64.746 C 276.525 65.194,286.306 65.117,286.890 64.658 L 287.325 64.315 287.371 51.672 C 287.396 44.717,287.466 38.979,287.525 38.919 C 287.711 38.734,289.331 40.011,289.609 40.562 C 289.754 40.849,290.027 41.253,290.217 41.460 C 290.406 41.667,290.716 42.088,290.906 42.394 C 291.690 43.664,292.829 45.289,293.083 45.500 C 293.233 45.624,293.473 45.956,293.618 46.238 C 293.762 46.520,294.038 46.946,294.232 47.185 C 294.425 47.425,294.789 47.950,295.041 48.352 C 295.293 48.754,295.831 49.533,296.236 50.083 C 296.642 50.633,297.179 51.421,297.430 51.833 C 297.895 52.598,298.171 52.966,299.340 54.385 C 299.703 54.826,300.000 55.288,300.000 55.411 C 300.000 55.534,300.268 55.956,300.595 56.348 C 300.923 56.740,301.337 57.347,301.515 57.697 C 301.694 58.047,301.907 58.333,301.989 58.333 C 302.127 58.333,302.372 58.681,303.750 60.826 C 304.025 61.254,304.423 61.825,304.635 62.094 C 305.365 63.024,306.085 64.058,306.450 64.704 C 306.651 65.061,307.045 65.614,307.325 65.932 C 307.604 66.251,307.833 66.579,307.833 66.662 C 307.833 66.745,308.133 67.160,308.500 67.583 C 308.867 68.007,309.167 68.410,309.167 68.480 C 309.167 68.550,309.448 68.989,309.792 69.457 C 310.135 69.925,310.548 70.519,310.709 70.779 C 310.870 71.038,311.337 71.700,311.747 72.250 C 312.156 72.800,312.674 73.587,312.897 74.000 C 313.120 74.412,313.534 74.970,313.818 75.240 C 314.101 75.509,314.333 75.822,314.333 75.935 C 314.333 76.048,314.550 76.358,314.814 76.622 C 315.079 76.887,315.489 77.486,315.726 77.953 C 315.963 78.420,316.223 78.828,316.303 78.859 C 316.384 78.891,316.647 79.230,316.887 79.614 C 317.459 80.527,317.521 80.535,323.871 80.469 C 328.944 80.417,328.995 80.413,329.371 80.037 L 329.750 79.657 329.795 48.776 C 329.842 15.756,329.853 16.224,329.081 15.835 C 328.418 15.500,319.656 15.366,318.557 15.674 C 317.121 16.076,317.256 14.007,317.204 36.467 C 317.163 54.624,317.135 56.426,316.887 56.700 C 316.442 57.191,316.013 57.072,315.722 56.375 C 315.578 56.031,315.264 55.512,315.022 55.221 C 314.452 54.534,313.709 53.503,312.342 51.500 C 312.060 51.087,311.643 50.487,311.415 50.167 C 311.187 49.846,310.869 49.365,310.709 49.097 C 310.548 48.830,310.189 48.343,309.910 48.014 C 309.631 47.686,309.322 47.229,309.224 47.000 C 309.125 46.771,308.772 46.257,308.439 45.859 C 308.106 45.461,307.833 45.067,307.833 44.985 C 307.833 44.902,307.581 44.553,307.273 44.209 C 306.964 43.865,306.579 43.321,306.416 43.000 C 306.254 42.679,305.906 42.170,305.644 41.869 C 305.381 41.568,305.167 41.254,305.167 41.171 C 305.167 41.088,304.885 40.680,304.542 40.264 C 303.582 39.103,303.261 38.654,302.746 37.750 C 302.485 37.292,302.042 36.637,301.761 36.295 C 300.615 34.902,300.364 34.554,300.035 33.906 C 299.846 33.533,299.568 33.125,299.417 33.000 C 299.266 32.875,299.006 32.505,298.839 32.178 C 298.672 31.851,298.396 31.457,298.226 31.303 C 298.056 31.149,297.504 30.373,297.000 29.580 C 296.496 28.787,295.802 27.803,295.458 27.392 C 295.115 26.982,294.833 26.579,294.833 26.496 C 294.833 26.413,294.619 26.099,294.356 25.797 C 294.094 25.496,293.746 24.988,293.584 24.667 C 293.421 24.346,293.036 23.802,292.727 23.458 C 292.419 23.114,292.167 22.760,292.167 22.672 C 292.167 22.584,291.950 22.265,291.686 21.964 C 291.244 21.460,290.600 20.497,289.874 19.252 C 289.714 18.978,289.348 18.522,289.061 18.240 C 288.774 17.957,288.419 17.506,288.273 17.238 C 287.384 15.609,287.334 15.596,281.917 15.567 C 279.350 15.553,276.913 15.575,276.500 15.616 M333.711 15.619 C 332.385 15.744,332.500 12.673,332.500 48.091 L 332.500 79.775 332.890 80.141 L 333.279 80.507 348.039 80.462 C 362.285 80.418,362.811 80.406,363.149 80.099 C 363.619 79.674,363.706 69.564,363.244 69.102 C 362.705 68.563,361.766 68.502,353.947 68.501 C 348.679 68.500,346.035 68.442,345.808 68.320 C 345.050 67.914,345.000 67.430,345.000 60.428 L 345.000 53.845 345.375 53.631 C 345.668 53.464,348.486 53.398,358.191 53.333 C 370.128 53.253,370.646 53.237,370.983 52.933 C 371.325 52.623,371.333 52.490,371.333 47.395 L 371.333 42.174 370.883 41.879 C 370.464 41.605,369.537 41.577,357.991 41.500 C 347.784 41.432,345.501 41.376,345.275 41.188 C 345.028 40.982,345.000 40.296,345.000 34.401 L 345.000 27.842 345.492 27.588 C 345.912 27.370,347.132 27.333,353.867 27.329 C 361.574 27.325,363.078 27.239,363.368 26.782 C 363.438 26.673,363.496 24.241,363.497 21.379 L 363.500 16.174 363.049 15.879 C 362.622 15.599,336.393 15.367,333.711 15.619 M37.901 39.351 C 37.592 39.692,37.583 40.269,37.583 59.750 C 37.583 79.231,37.592 79.808,37.901 80.149 C 38.392 80.692,48.538 80.697,49.228 80.155 L 49.667 79.809 49.667 59.744 L 49.667 39.680 49.302 39.340 C 48.724 38.801,38.389 38.811,37.901 39.351 M209.153 68.880 L 208.583 69.264 208.583 74.480 L 208.583 79.696 209.051 80.098 L 209.519 80.500 226.567 80.500 L 243.615 80.500 243.933 80.149 C 244.457 79.570,244.511 69.589,243.993 68.991 L 243.639 68.583 226.681 68.539 L 209.723 68.495 209.153 68.880 " class="color2e2e2e svgShape"/><path fill="#121212" fill-rule="evenodd" d="M0.000 48.000 L 0.000 96.000 200.000 96.000 L 400.000 96.000 400.000 48.000 L 400.000 0.000 200.000 0.000 L 0.000 0.000 0.000 48.000 M62.350 15.881 C 63.101 16.387,63.124 16.545,63.147 21.333 L 63.167 25.417 62.519 26.125 L 61.872 26.833 43.555 26.833 L 25.238 26.833 24.702 26.136 L 24.167 25.439 24.167 21.147 C 24.167 18.787,24.238 16.667,24.326 16.437 C 24.693 15.470,23.782 15.514,43.600 15.507 L 61.784 15.500 62.350 15.881 M84.483 15.901 L 84.833 16.218 84.833 42.179 C 84.833 56.457,84.882 68.265,84.941 68.419 C 85.187 69.060,86.381 69.333,88.938 69.333 C 92.510 69.333,92.381 69.097,92.302 75.525 C 92.254 79.452,92.224 79.827,91.933 80.150 C 91.615 80.500,91.614 80.500,78.693 80.500 L 65.771 80.500 65.386 80.138 C 65.001 79.776,65.000 79.768,65.001 75.179 C 65.001 68.969,64.705 69.388,69.167 69.290 C 71.761 69.233,72.238 69.105,72.508 68.396 C 72.606 68.138,72.667 58.048,72.667 42.009 L 72.667 16.041 73.042 15.775 C 73.661 15.337,83.985 15.450,84.483 15.901 M105.250 15.640 C 106.055 15.746,106.097 15.779,106.500 16.612 C 106.729 17.086,107.042 17.611,107.196 17.779 C 107.349 17.946,107.642 18.533,107.846 19.083 C 108.051 19.633,108.387 20.308,108.593 20.583 C 108.799 20.858,109.064 21.421,109.183 21.833 C 109.301 22.246,109.566 22.808,109.770 23.083 C 109.974 23.358,110.300 24.008,110.494 24.526 C 110.687 25.045,110.953 25.558,111.083 25.667 C 111.214 25.775,111.479 26.288,111.673 26.807 C 111.867 27.326,112.169 27.983,112.345 28.268 C 112.521 28.553,112.781 29.116,112.923 29.518 C 113.064 29.921,113.367 30.520,113.595 30.850 C 113.823 31.179,114.149 31.829,114.319 32.293 C 114.488 32.757,114.819 33.389,115.054 33.697 C 115.289 34.005,115.553 34.576,115.640 34.966 C 115.728 35.355,115.999 35.936,116.242 36.255 C 116.486 36.574,116.795 37.206,116.930 37.660 C 117.065 38.113,117.362 38.707,117.592 38.979 C 117.821 39.252,118.114 39.825,118.243 40.254 C 118.372 40.682,118.658 41.306,118.879 41.641 C 119.100 41.976,119.408 42.635,119.564 43.105 C 119.720 43.576,119.991 44.091,120.167 44.250 C 120.342 44.409,120.611 44.924,120.764 45.395 C 120.917 45.865,121.203 46.475,121.400 46.750 C 121.597 47.025,121.898 47.663,122.069 48.167 C 122.240 48.671,122.520 49.238,122.691 49.428 C 122.861 49.617,123.183 50.236,123.404 50.802 C 123.626 51.369,123.959 52.024,124.144 52.259 C 124.328 52.493,124.606 53.067,124.761 53.534 C 124.916 54.000,125.221 54.644,125.438 54.964 C 125.655 55.284,125.908 55.817,126.000 56.148 C 126.092 56.479,126.393 57.080,126.668 57.484 C 126.943 57.888,127.243 58.497,127.334 58.837 C 127.426 59.178,127.641 59.635,127.811 59.853 C 127.982 60.071,128.291 60.718,128.499 61.289 C 129.033 62.761,129.177 62.835,130.069 62.104 C 130.580 61.685,130.890 61.258,131.080 60.709 C 131.230 60.273,131.602 59.429,131.905 58.833 C 132.209 58.237,132.502 57.557,132.558 57.321 C 132.613 57.085,132.858 56.598,133.102 56.238 C 133.347 55.878,133.678 55.208,133.838 54.750 C 133.998 54.292,134.363 53.478,134.648 52.941 C 134.933 52.405,135.167 51.835,135.167 51.675 C 135.167 51.514,135.386 51.080,135.655 50.709 C 135.924 50.338,136.258 49.647,136.399 49.174 C 136.540 48.700,136.845 48.086,137.078 47.810 C 137.310 47.534,137.500 47.220,137.501 47.112 C 137.503 46.635,137.874 45.653,138.276 45.061 C 138.516 44.707,138.845 44.032,139.007 43.562 C 139.169 43.093,139.495 42.415,139.732 42.057 C 139.969 41.699,140.284 40.996,140.431 40.494 C 140.578 39.993,140.832 39.433,140.995 39.250 C 141.159 39.067,141.384 38.617,141.495 38.250 C 141.607 37.883,141.945 37.171,142.246 36.667 C 142.548 36.162,142.846 35.509,142.909 35.214 C 142.972 34.919,143.197 34.424,143.407 34.113 C 143.618 33.802,143.922 33.144,144.082 32.649 C 144.243 32.155,144.591 31.417,144.856 31.010 C 145.121 30.603,145.419 29.965,145.518 29.593 C 145.616 29.221,145.862 28.692,146.063 28.417 C 146.515 27.798,146.833 27.081,146.833 26.682 C 146.833 26.516,147.026 26.096,147.261 25.749 C 147.497 25.402,147.845 24.698,148.035 24.184 C 148.225 23.670,148.526 23.042,148.704 22.788 C 148.882 22.535,149.207 21.869,149.426 21.310 C 149.645 20.750,149.973 20.040,150.155 19.732 C 150.337 19.424,150.564 18.882,150.659 18.528 C 150.755 18.173,151.018 17.629,151.245 17.317 C 151.472 17.005,151.731 16.586,151.821 16.385 C 152.156 15.635,152.464 15.592,157.833 15.535 C 163.715 15.473,163.976 15.523,164.199 16.770 C 164.262 17.126,164.318 27.924,164.324 40.766 L 164.333 64.115 163.983 64.433 C 163.468 64.898,152.814 65.018,152.312 64.564 C 152.015 64.295,152.000 63.866,151.991 55.599 C 151.981 46.736,151.916 45.750,151.343 45.750 C 151.206 45.750,150.947 46.155,150.735 46.701 C 150.533 47.224,150.220 47.861,150.042 48.117 C 149.863 48.374,149.594 48.950,149.444 49.398 C 149.294 49.846,148.980 50.463,148.746 50.770 C 148.512 51.077,148.208 51.648,148.070 52.039 C 147.932 52.430,147.637 53.014,147.413 53.338 C 147.190 53.661,146.902 54.272,146.775 54.696 C 146.647 55.119,146.355 55.717,146.125 56.025 C 145.896 56.332,145.614 56.883,145.500 57.250 C 145.386 57.617,145.113 58.157,144.893 58.451 C 144.674 58.745,144.333 59.420,144.136 59.951 C 143.938 60.482,143.650 61.067,143.494 61.250 C 143.339 61.433,143.092 61.944,142.946 62.384 C 142.800 62.825,142.492 63.410,142.261 63.684 C 142.030 63.958,141.727 64.568,141.587 65.039 C 141.447 65.510,141.192 66.051,141.021 66.240 C 140.849 66.429,140.544 67.033,140.342 67.583 C 140.141 68.133,139.832 68.737,139.657 68.925 C 139.482 69.112,139.190 69.699,139.008 70.228 C 138.826 70.757,138.489 71.413,138.259 71.686 C 138.030 71.959,137.758 72.497,137.656 72.883 C 137.553 73.268,137.250 73.916,136.983 74.323 C 136.715 74.731,136.422 75.331,136.332 75.657 C 136.243 75.983,135.846 76.598,135.452 77.024 L 134.736 77.798 133.326 77.913 C 132.551 77.977,130.342 78.004,128.417 77.973 C 124.224 77.906,124.135 77.876,123.381 76.298 C 123.104 75.718,122.759 75.146,122.615 75.026 C 122.470 74.906,122.224 74.424,122.068 73.955 C 121.913 73.486,121.571 72.765,121.309 72.352 C 121.047 71.939,120.833 71.512,120.833 71.403 C 120.833 71.293,120.571 70.822,120.250 70.356 C 119.929 69.890,119.667 69.456,119.667 69.393 C 119.667 69.189,117.665 65.186,117.517 65.094 C 117.439 65.045,117.202 64.573,116.991 64.045 C 116.780 63.516,116.435 62.874,116.225 62.617 C 116.014 62.361,115.758 61.836,115.656 61.451 C 115.553 61.065,115.296 60.521,115.084 60.241 C 114.873 59.961,114.465 59.249,114.178 58.658 C 113.892 58.067,113.513 57.321,113.338 57.000 C 112.994 56.372,112.553 55.499,111.781 53.917 C 111.513 53.367,111.158 52.725,110.992 52.490 C 110.826 52.256,110.558 51.731,110.398 51.324 C 110.238 50.917,109.943 50.358,109.742 50.083 C 109.541 49.808,109.325 49.358,109.262 49.083 C 109.198 48.808,108.945 48.285,108.698 47.919 C 108.452 47.554,108.062 46.805,107.832 46.255 C 107.374 45.158,107.049 44.958,106.667 45.538 C 106.449 45.867,106.411 48.129,106.372 62.852 C 106.327 79.780,106.327 79.787,105.980 80.102 C 105.546 80.495,95.146 80.593,94.292 80.212 L 93.833 80.008 93.833 48.108 C 93.833 21.788,93.872 16.175,94.055 16.024 C 94.610 15.563,102.600 15.288,105.250 15.640 M198.448 15.862 L 198.833 16.225 198.833 21.439 C 198.833 26.589,198.829 26.658,198.469 26.994 C 198.111 27.326,197.928 27.333,189.607 27.333 C 181.934 27.333,181.080 27.360,180.805 27.609 C 180.416 27.961,180.323 41.033,180.708 41.282 C 180.823 41.356,186.558 41.454,193.452 41.500 C 205.201 41.578,206.007 41.602,206.286 41.881 C 206.559 42.154,206.583 42.612,206.583 47.437 L 206.583 52.696 206.190 53.015 C 205.810 53.322,205.358 53.333,193.453 53.333 C 182.201 53.333,181.083 53.358,180.805 53.609 C 180.388 53.986,180.331 66.940,180.741 67.922 L 180.983 68.500 189.563 68.500 L 198.142 68.500 198.488 68.939 C 199.016 69.611,199.027 79.640,198.500 80.167 C 198.172 80.495,197.944 80.500,183.811 80.500 C 168.495 80.500,168.281 80.489,167.984 79.708 C 167.732 79.044,167.793 16.839,168.047 16.338 C 168.453 15.534,168.599 15.527,183.823 15.513 L 198.062 15.500 198.448 15.862 M220.483 15.901 L 220.833 16.218 220.833 35.776 C 220.833 55.111,220.830 55.337,220.500 55.667 C 219.960 56.206,210.115 56.180,209.148 55.636 L 208.500 55.272 208.510 36.344 C 208.520 15.528,208.491 16.266,209.333 15.801 C 210.214 15.316,219.932 15.403,220.483 15.901 M265.969 15.840 L 266.333 16.180 266.333 42.181 C 266.333 64.575,266.367 68.248,266.575 68.651 C 266.865 69.211,267.541 69.330,270.465 69.332 C 274.012 69.335,274.054 69.406,273.975 75.320 C 273.918 79.574,273.909 79.665,273.537 80.037 L 273.158 80.417 260.249 80.462 C 247.482 80.507,247.338 80.504,247.004 80.171 C 246.488 79.655,246.483 70.720,246.998 69.875 L 247.328 69.333 249.956 69.331 C 252.376 69.328,252.636 69.298,253.250 68.950 L 253.917 68.573 254.000 42.354 L 254.083 16.135 254.667 15.824 C 255.606 15.324,265.430 15.338,265.969 15.840 M286.993 15.820 C 287.478 16.091,287.906 16.565,288.273 17.238 C 288.419 17.506,288.774 17.957,289.061 18.240 C 289.348 18.522,289.714 18.978,289.874 19.252 C 290.600 20.497,291.244 21.460,291.686 21.964 C 291.950 22.265,292.167 22.584,292.167 22.672 C 292.167 22.760,292.419 23.114,292.727 23.458 C 293.036 23.802,293.421 24.346,293.584 24.667 C 293.746 24.988,294.094 25.496,294.356 25.797 C 294.619 26.099,294.833 26.413,294.833 26.496 C 294.833 26.579,295.115 26.982,295.458 27.392 C 295.802 27.803,296.496 28.787,297.000 29.580 C 297.504 30.373,298.056 31.149,298.226 31.303 C 298.396 31.457,298.672 31.851,298.839 32.178 C 299.006 32.505,299.266 32.875,299.417 33.000 C 299.568 33.125,299.846 33.533,300.035 33.906 C 300.364 34.554,300.615 34.902,301.761 36.295 C 302.042 36.637,302.485 37.292,302.746 37.750 C 303.261 38.654,303.582 39.103,304.542 40.264 C 304.885 40.680,305.167 41.088,305.167 41.171 C 305.167 41.254,305.381 41.568,305.644 41.869 C 305.906 42.170,306.254 42.679,306.416 43.000 C 306.579 43.321,306.964 43.865,307.273 44.209 C 307.581 44.553,307.833 44.902,307.833 44.985 C 307.833 45.067,308.106 45.461,308.439 45.859 C 308.772 46.257,309.125 46.771,309.224 47.000 C 309.322 47.229,309.631 47.686,309.910 48.014 C 310.189 48.343,310.548 48.830,310.709 49.097 C 310.869 49.365,311.187 49.846,311.415 50.167 C 311.643 50.487,312.060 51.087,312.342 51.500 C 313.709 53.503,314.452 54.534,315.022 55.221 C 315.264 55.512,315.578 56.031,315.722 56.375 C 316.013 57.072,316.442 57.191,316.887 56.700 C 317.135 56.426,317.163 54.624,317.204 36.467 C 317.256 14.007,317.121 16.076,318.557 15.674 C 319.656 15.366,328.418 15.500,329.081 15.835 C 329.853 16.224,329.842 15.756,329.795 48.776 L 329.750 79.657 329.371 80.037 C 328.995 80.413,328.944 80.417,323.871 80.469 C 317.521 80.535,317.459 80.527,316.887 79.614 C 316.647 79.230,316.384 78.891,316.303 78.859 C 316.223 78.828,315.963 78.420,315.726 77.953 C 315.489 77.486,315.079 76.887,314.814 76.622 C 314.550 76.358,314.333 76.048,314.333 75.935 C 314.333 75.822,314.101 75.509,313.818 75.240 C 313.534 74.970,313.120 74.412,312.897 74.000 C 312.674 73.587,312.156 72.800,311.747 72.250 C 311.337 71.700,310.870 71.038,310.709 70.779 C 310.548 70.519,310.135 69.925,309.792 69.457 C 309.448 68.989,309.167 68.550,309.167 68.480 C 309.167 68.410,308.867 68.007,308.500 67.583 C 308.133 67.160,307.833 66.745,307.833 66.662 C 307.833 66.579,307.604 66.251,307.325 65.932 C 307.045 65.614,306.651 65.061,306.450 64.704 C 306.085 64.058,305.365 63.024,304.635 62.094 C 304.423 61.825,304.025 61.254,303.750 60.826 C 302.372 58.681,302.127 58.333,301.989 58.333 C 301.907 58.333,301.694 58.047,301.515 57.697 C 301.337 57.347,300.923 56.740,300.595 56.348 C 300.268 55.956,300.000 55.534,300.000 55.411 C 300.000 55.288,299.703 54.826,299.340 54.385 C 298.171 52.966,297.895 52.598,297.430 51.833 C 297.179 51.421,296.642 50.633,296.236 50.083 C 295.831 49.533,295.293 48.754,295.041 48.352 C 294.789 47.950,294.425 47.425,294.232 47.185 C 294.038 46.946,293.762 46.520,293.618 46.238 C 293.473 45.956,293.233 45.624,293.083 45.500 C 292.829 45.289,291.690 43.664,290.906 42.394 C 290.716 42.088,290.406 41.667,290.217 41.460 C 290.027 41.253,289.754 40.849,289.609 40.562 C 289.331 40.011,287.711 38.734,287.525 38.919 C 287.466 38.979,287.396 44.717,287.371 51.672 L 287.325 64.315 286.890 64.658 C 286.306 65.117,276.525 65.194,275.658 64.746 L 275.167 64.491 275.167 40.355 C 275.167 13.131,275.025 15.762,276.500 15.616 C 278.360 15.432,286.584 15.592,286.993 15.820 M363.049 15.879 L 363.500 16.174 363.497 21.379 C 363.496 24.241,363.438 26.673,363.368 26.782 C 363.078 27.239,361.574 27.325,353.867 27.329 C 347.132 27.333,345.912 27.370,345.492 27.588 L 345.000 27.842 345.000 34.401 C 345.000 40.296,345.028 40.982,345.275 41.188 C 345.501 41.376,347.784 41.432,357.991 41.500 C 369.537 41.577,370.464 41.605,370.883 41.879 L 371.333 42.174 371.333 47.395 C 371.333 52.490,371.325 52.623,370.983 52.933 C 370.646 53.237,370.128 53.253,358.191 53.333 C 348.486 53.398,345.668 53.464,345.375 53.631 L 345.000 53.845 345.000 60.428 C 345.000 67.430,345.050 67.914,345.808 68.320 C 346.035 68.442,348.679 68.500,353.947 68.501 C 361.766 68.502,362.705 68.563,363.244 69.102 C 363.706 69.564,363.619 79.674,363.149 80.099 C 362.811 80.406,362.285 80.418,348.039 80.462 L 333.279 80.507 332.890 80.141 L 332.500 79.775 332.500 48.091 C 332.500 12.673,332.385 15.744,333.711 15.619 C 336.393 15.367,362.622 15.599,363.049 15.879 M49.302 39.340 L 49.667 39.680 49.667 59.744 L 49.667 79.809 49.228 80.155 C 48.538 80.697,38.392 80.692,37.901 80.149 C 37.592 79.808,37.583 79.231,37.583 59.750 C 37.583 40.269,37.592 39.692,37.901 39.351 C 38.389 38.811,48.724 38.801,49.302 39.340 M243.993 68.991 C 244.511 69.589,244.457 79.570,243.933 80.149 L 243.615 80.500 226.567 80.500 L 209.519 80.500 209.051 80.098 L 208.583 79.696 208.583 74.480 L 208.583 69.264 209.153 68.880 L 209.723 68.495 226.681 68.539 L 243.639 68.583 243.993 68.991 " class="colorfbfbfb svgShape"/></svg></g></svg>