<svg id="SvgjsSvg1012" width="288" height="288" xmlns="http://www.w3.org/2000/svg" version="1.1" xmlns:xlink="http://www.w3.org/1999/xlink" xmlns:svgjs="http://svgjs.com/svgjs"><defs id="SvgjsDefs1013"></defs><g id="SvgjsG1014"><svg xmlns="http://www.w3.org/2000/svg" data-name="Layer 1" viewBox="0 0 2000 2000" width="288" height="288"><path d="M1853.09,639.45A927.94,927.94,0,1,0,1926,1000,922.51,922.51,0,0,0,1853.09,639.45ZM1000,1576c-318.12,0-576-257.88-576-576s257.88-576,576-576,576,257.88,576,576S1318.12,1576,1000,1576Z" fill="#dddddd" class="color000 svgShape"></path><path fill="#121212" d="M197.74 771.52L338.56 808l-9.89 38.23L187.85 809.75zM258.55 613.22l133.64 57.44-13 30.28-91 18.11-.34.78L358.08 750l-15.59 36.28L208.86 728.85l13.23-30.8 90.37-17.44.45-1L243 649.5zM442.83 451.06L417.3 481.93a27.75 27.75 0 00-8.37-4A21.23 21.23 0 00392 480.26a30.23 30.23 0 00-7.71 6.81q-6.33 7.67-7 16a29.48 29.48 0 004.06 16.82q4.71 8.46 14.46 16.51 10.29 8.52 19.49 11.48t17 .58a29.08 29.08 0 0013.94-9.77 32.25 32.25 0 005.17-8.43 22.55 22.55 0 001.71-8.36 21.4 21.4 0 00-1.57-8.08 25.81 25.81 0 00-4.74-7.47l25.75-30.68a54.15 54.15 0 0111.17 16 60.89 60.89 0 012.55 44.89q-3.91 12.42-14.1 24.74-12.76 15.44-29.5 22.19a62 62 0 01-35.47 3.2q-18.72-3.55-37.33-18.94t-25.57-33.32A62.93 62.93 0 01341 498.86a73.81 73.81 0 0116-32.82 81.59 81.59 0 0119.06-17.14 61.43 61.43 0 0121.4-8.66 54.85 54.85 0 0122.62.46A64.73 64.73 0 01442.83 451.06zM591.56 353.91q14.84 19.23 17.53 38.19a63 63 0 01-4.79 35.53 74.76 74.76 0 01-23.11 28.64q-15.74 12.15-33.69 15.1a63.38 63.38 0 01-35.58-4.48q-17.62-7.44-32.38-26.56T462 402.16a63 63 0 014.73-35.49q7.46-16.56 23.2-28.71a74.87 74.87 0 0133.57-15.09 63.13 63.13 0 0135.59 4.39Q576.73 334.68 591.56 353.91zm-32.17 24.81q-8-10.34-16.19-15.35t-16.38-4.6q-8.15.42-15.91 6.41T500.68 379q-2.48 7.79.28 17t10.75 19.56q8 10.35 16.2 15.36t16.37 4.59q8.15-.42 15.91-6.4t10.24-13.77a28.42 28.42 0 00-.29-17Q567.38 389.06 559.39 378.72zM652.57 403.79L588.09 273.41l35.4-17.51 50.37 101.86 52.71-26.06 14.11 28.52zM796 341.64l-41.26 10.65 10.12-152.84L817.12 186 900 314.79l-41.26 10.65-57.16-94.09-1.1.28zm-22-53.58l77.57-20 7.39 28.61-77.57 20zM913.18 314.76l-6.11-145.33 63-2.65q16.6-.69 28.11 3.3T1015.82 182a32.4 32.4 0 016.6 19 30.78 30.78 0 01-2.9 14.76 31.34 31.34 0 01-9.37 11.45 38.66 38.66 0 01-14.5 6.76l.06 1.42a36.59 36.59 0 0117.23 4 33 33 0 0112.71 11.48 34.44 34.44 0 015.3 17.72 37.37 37.37 0 01-5.32 21.48 41.87 41.87 0 01-17 15.36q-11.21 5.8-27 6.47zM949 226.53l16.18-.68a24.11 24.11 0 009.09-2 14.1 14.1 0 006-5 12.54 12.54 0 001.91-7.65q-.27-6.75-5.26-10.12T964.57 198l-16.75.7zm2.32 55.06l18.45-.77q9.93-.42 14.74-4.36T989 265.22a15.44 15.44 0 00-2.71-8.56 14.65 14.65 0 00-6.86-5.11 26.08 26.08 0 00-10.4-1.41l-19 .8zM1196.92 261.31q-4 24-16.11 38.81a63 63 0 01-29.33 20.63 79 79 0 01-70.69-12 63.45 63.45 0 01-20.88-29.15q-6.51-18-2.51-41.8T1073.47 199a62.94 62.94 0 0129.26-20.64q17.2-5.79 36.82-2.49a74.94 74.94 0 0133.88 14.38 63 63 0 0121 29.1Q1200.95 237.36 1196.92 261.31zm-40.06-6.74q2.16-12.88.26-22.32t-7.76-15.13q-5.85-5.7-15.51-7.33t-17.06 1.85q-7.38 3.48-12.27 11.76t-7.06 21.18q-2.16 12.88-.26 22.32T1105 282q5.83 5.7 15.51 7.33t17-1.85q7.39-3.48 12.28-11.76T1156.86 254.57zM1201 339l53.78-135.14 58.34 23.21q15 6 24.15 16a44 44 0 0111.27 22.75q2.18 12.79-3.55 27.18t-16.17 21.92a43.05 43.05 0 01-24 7.88q-13.61.47-29-5.67L1241 303.23l11.34-28.51 27.45 10.93a36.1 36.1 0 0011.7 2.78 15 15 0 009.12-2.37q3.9-2.58 6.18-8.32a17.86 17.86 0 001.29-10.46 15.59 15.59 0 00-4.91-8.22 33.31 33.31 0 00-10.35-6.14l-12.94-5.15-42.12 105.85zm103.87-30.51L1314 384l-39.85-15.86L1265.85 293zM1355.47 409.6l-35.41-23.7 120.82-94.16 44.85 30-41 147.58-35.41-23.71 32.2-105.28-1-.63zm25.32-52.11l66.57 44.57-16.44 24.56L1364.35 382zM1518.41 384.93l22.35-22.64 90 88.82-22.35 22.64L1577.23 443l-79.83 80.86-27.7-27.34 79.84-80.86zM1678.11 514.45L1561.94 602l-23.76-31.54 116.16-87.53zM1706.74 708.51q-21.48 11.32-40.63 10.72a63.12 63.12 0 01-34.19-10.81 75 75 0 01-24.25-27.69q-9.26-17.6-9.09-35.78a63.37 63.37 0 0110.53-34.28q10.35-16.09 31.71-27.34t40.62-10.75a62.93 62.93 0 0134.15 10.75q15 10.18 24.3 27.78a74.8 74.8 0 019.11 35.66 63.11 63.11 0 01-10.43 34.31Q1728.24 697.19 1706.74 708.51zm-18.92-35.94q11.55-6.09 17.9-13.33t7.34-15.34q1-8.1-3.58-16.78t-11.81-12.44q-7.25-3.76-16.8-2.63t-21.12 7.23q-11.57 6.09-17.91 13.32t-7.33 15.34q-1 8.1 3.58 16.78t11.81 12.44q7.24 3.76 16.8 2.63T1687.82 672.57zM1821.12 841.59l-140.37 38.14-8.64-31.8 60-70.75-.22-.83-73.75 20-10.35-38.1 140.36-38.15 8.79 32.35L1737 822.35l.3 1.1 73.47-20zM723.27 1789.18l-3.74-151.6 42.53 11.4-4 91.59 1.09.29 46-80.32 33.47 9-.48 92.82 1.09.29 42.47-81.55 42.53 11.41L845.1 1821.86l-36.49-9.79-2.82-84.88-1.1-.29L759.77 1799zM977.37 1688.29l-8.76 145.2-39.42-2.38L938 1685.92zM998.43 1722.91l-2.73-31.7 126-10.87 2.73 31.7-43.58 3.76 9.77 113.22-38.78 3.35L1042 1719.15zM1177.49 1817.3L1135.71 1678l37.83-11.34 16.32 54.42 50.07-15-16.32-54.42 37.82-11.35 41.78 139.33L1265.38 1791l-16.32-54.42-50.07 15 16.32 54.42z" class="coloraaa svgShape"></path></svg></g></svg>