<svg xmlns="http://www.w3.org/2000/svg" viewBox="0 0 552.33 450.92"><defs><style>.cls-1{fill:#79f8bb;}.cls-2{fill:#248dda;}</style></defs><g id="Layer_2" data-name="Layer 2"><g id="Layer_1-2" data-name="Layer 1"><path class="cls-1" d="M531.08,99.56l-134,348.13c-1.62,4.3-8.61,4.3-10.23,0L265.27,128.61,143.67,447.69c-1.62,4.3-8.61,4.3-10.23,0L0,99.56H83.94l54.34,148L223.84,23.69c.54-2.15,2.69-3.23,4.84-3.23h73.18a5.93,5.93,0,0,1,5.38,3.23l85,223.84,54.89-148Z"/><path class="cls-2" d="M552.33,79.1l-134,348.13c-1.62,4.3-8.61,4.3-10.23,0L286.52,108.15,164.92,427.23c-1.62,4.3-8.61,4.3-10.23,0L21.25,79.1h83.94l54.34,148L245.09,3.23c.54-2.15,2.69-3.23,4.84-3.23h73.18a5.93,5.93,0,0,1,5.38,3.23l85,223.84,54.89-148Z"/></g></g></svg>