<?xml version="1.0" encoding="utf-8"?>
<!-- Generator: Adobe Illustrator 25.3.1, SVG Export Plug-In . SVG Version: 6.00 Build 0)  -->
<svg version="1.1" id="Layer_1" xmlns="http://www.w3.org/2000/svg" xmlns:xlink="http://www.w3.org/1999/xlink" x="0px" y="0px"
	 viewBox="0 0 609.65 696.75" style="enable-background:new 0 0 609.65 696.75;" xml:space="preserve">
<style type="text/css">
	.st0{fill:#D85111;}
</style>
<g>
	<path class="st0" d="M348.37,185.87c-12.81-7.41-27.68-11.68-43.55-11.68h-87.08c24.05,0.01,43.54,19.5,43.54,43.55v87.09v43.55
		h43.55c15.87,0,30.73-4.27,43.55-11.68c9.55-5.53,17.96-12.82,24.77-21.43c11.75-14.84,18.78-33.59,18.78-53.99
		C391.92,229.05,374.4,200.93,348.37,185.87z"/>
	<path d="M373.14,315.27c-6.81,8.61-15.22,15.9-24.77,21.43c-12.81,7.41-27.68,11.68-43.55,11.68h-43.55v-43.55v-87.09
		c0-24.05-19.49-43.54-43.54-43.55h-0.01c-24.05,0-43.55,19.5-43.55,43.55v87.09v43.55v130.64v43.55h43.55H326.6
		c7.46,0,14.74-0.75,21.77-2.18c49.69-10.09,87.09-54.02,87.09-106.68C435.47,370.22,409.98,332.72,373.14,315.27z"/>
</g>
</svg>
