<svg id="SvgjsSvg1001" width="288" height="288" xmlns="http://www.w3.org/2000/svg" version="1.1" xmlns:xlink="http://www.w3.org/1999/xlink" xmlns:svgjs="http://svgjs.com/svgjs"><defs id="SvgjsDefs1002"></defs><g id="SvgjsG1008"><svg xmlns="http://www.w3.org/2000/svg" width="288" height="288" viewBox="0 0 400 400"><path fill="#fbfbfb" fill-rule="evenodd" d="M143.800 90.631 C 142.700 90.924,141.487 91.352,141.105 91.582 C 140.723 91.812,140.215 92.000,139.975 92.000 C 137.169 92.000,129.736 99.275,127.267 104.438 C 125.081 109.010,125.200 103.492,125.200 200.426 L 125.200 290.013 173.100 289.880 C 216.793 289.759,221.263 289.687,224.000 289.056 C 225.650 288.675,227.720 288.213,228.600 288.028 C 230.363 287.658,235.146 285.983,237.739 284.827 C 238.652 284.420,239.670 283.983,240.000 283.856 C 240.330 283.729,241.500 283.082,242.600 282.418 C 243.700 281.754,244.870 281.089,245.200 280.940 C 249.964 278.789,265.200 263.926,265.200 261.429 C 265.200 261.312,265.796 260.267,266.524 259.108 C 268.469 256.011,270.447 251.729,271.932 247.400 C 272.685 245.206,273.061 243.655,274.408 237.200 C 275.513 231.908,275.360 224.183,273.984 215.800 C 271.706 201.919,262.773 187.149,251.400 178.460 C 250.080 177.452,248.940 176.486,248.867 176.313 C 248.793 176.141,248.556 176.000,248.340 176.000 C 248.124 176.000,247.374 175.595,246.673 175.099 C 244.342 173.449,240.155 171.199,239.421 171.201 C 239.190 171.202,237.470 172.752,235.600 174.646 C 230.196 180.117,225.197 183.476,218.377 186.215 C 214.370 187.825,213.686 188.012,207.400 189.209 C 202.400 190.161,176.307 190.401,175.724 189.500 C 175.546 189.225,175.309 171.180,175.197 149.400 C 174.967 104.534,175.287 108.694,171.565 102.182 C 166.183 92.765,154.325 87.831,143.800 90.631 " class="colorfbfbfb svgShape"></path><path fill="#f31905" fill-rule="evenodd" d="M156.600 90.569 C 161.897 91.711,168.517 96.847,171.565 102.182 C 175.287 108.694,174.967 104.534,175.197 149.400 C 175.309 171.180,175.546 189.225,175.724 189.500 C 176.307 190.401,202.400 190.161,207.400 189.209 C 213.686 188.012,214.370 187.825,218.377 186.215 C 225.197 183.476,230.196 180.117,235.600 174.646 C 239.011 171.192,239.753 170.772,240.809 171.700 C 241.123 171.975,241.056 171.812,240.661 171.337 C 239.960 170.494,239.979 170.420,241.516 168.137 C 243.822 164.712,245.814 160.902,246.608 158.400 C 246.992 157.190,247.438 156.020,247.599 155.800 C 247.761 155.580,247.987 154.950,248.103 154.400 C 248.219 153.850,248.693 151.625,249.157 149.456 C 251.839 136.910,247.969 118.965,240.906 111.204 C 240.408 110.656,240.000 110.012,240.000 109.771 C 240.000 109.269,232.594 101.862,230.200 99.969 C 224.489 95.455,217.748 92.515,208.705 90.596 C 206.237 90.073,201.948 89.992,180.200 90.059 C 160.772 90.119,155.082 90.242,156.600 90.569 M124.996 200.600 C 124.996 249.660,125.043 269.789,125.100 245.332 C 125.157 220.875,125.157 180.735,125.100 156.132 C 125.043 131.529,124.996 151.540,124.996 200.600 " class="colorf31905 svgShape"></path><path fill="#212121" fill-rule="evenodd" d="M0.000 200.000 L 0.000 400.000 200.000 400.000 L 400.000 400.000 400.000 200.000 L 400.000 0.000 200.000 0.000 L 0.000 0.000 0.000 200.000 M208.705 90.603 C 217.688 92.489,224.483 95.450,230.200 99.969 C 232.594 101.862,240.000 109.269,240.000 109.771 C 240.000 110.012,240.408 110.656,240.906 111.204 C 247.969 118.965,251.839 136.910,249.157 149.456 C 248.693 151.625,248.219 153.850,248.103 154.400 C 247.987 154.950,247.761 155.580,247.599 155.800 C 247.438 156.020,246.992 157.190,246.608 158.400 C 245.814 160.900,243.822 164.711,241.521 168.130 C 239.736 170.782,239.814 171.102,242.565 172.427 C 244.947 173.574,245.239 173.766,250.200 177.440 C 253.718 180.045,259.203 185.276,261.200 187.931 C 261.750 188.662,262.875 190.128,263.700 191.187 C 264.525 192.247,265.200 193.252,265.200 193.420 C 265.200 193.587,265.616 194.281,266.124 194.962 C 266.903 196.006,269.654 201.424,270.814 204.200 C 271.628 206.150,273.153 211.205,273.589 213.400 C 273.851 214.720,274.244 216.520,274.464 217.400 C 276.254 224.582,274.800 240.310,271.580 248.600 C 269.631 253.616,268.446 256.161,266.773 258.925 C 264.079 263.373,263.831 263.770,263.599 264.000 C 263.488 264.110,262.629 265.213,261.689 266.451 C 256.822 272.858,247.452 280.441,240.400 283.679 C 236.287 285.568,235.146 286.033,232.400 286.940 C 229.046 288.047,225.570 288.880,221.400 289.578 C 219.342 289.922,206.201 290.014,171.800 289.923 L 125.000 289.800 124.888 201.200 C 124.785 119.349,124.828 112.371,125.450 109.600 C 126.095 106.729,127.869 102.347,128.500 102.067 C 128.665 101.993,128.800 101.671,128.800 101.350 C 128.800 98.900,138.254 92.030,143.568 90.618 C 146.597 89.813,204.878 89.799,208.705 90.603 " class="color040404 svgShape"></path></svg></g></svg>