<svg id="svg" version="1.1" xmlns="http://www.w3.org/2000/svg" xmlns:xlink="http://www.w3.org/1999/xlink" width="400" height="400" viewBox="0, 0, 400,400"><g id="svgg"><path id="path0" d="M133.400 79.972 C 123.132 81.720,113.853 90.633,110.564 101.906 L 109.600 105.212 109.600 212.357 C 109.600 303.255,109.684 319.572,110.155 319.963 C 110.570 320.307,125.263 320.391,168.255 320.295 L 225.800 320.167 229.600 319.280 C 277.863 308.007,302.889 260.237,284.066 215.313 C 278.743 202.609,269.058 191.062,256.713 182.703 C 248.760 177.318,247.014 176.882,244.786 179.723 C 241.582 183.809,232.709 190.451,225.000 194.535 C 223.215 195.480,215.408 197.924,211.141 198.872 C 206.058 200.002,172.611 200.492,171.036 199.460 L 170.112 198.855 169.869 152.328 C 169.594 99.807,169.689 101.521,166.734 95.959 C 160.085 83.443,147.754 77.529,133.400 79.972 " stroke="none" fill="#000" fill-rule="evenodd"></path><path id="path1" d="M134.884 79.459 C 123.728 80.927,114.793 88.507,110.445 100.192 L 109.400 103.000 109.296 211.355 C 109.220 291.531,109.310 319.851,109.645 320.255 C 110.228 320.956,220.050 321.072,225.594 320.377 C 243.922 318.079,262.374 307.440,274.399 292.237 C 277.154 288.755,281.200 282.738,281.200 282.124 C 281.200 282.014,281.529 281.446,281.932 280.862 C 286.763 273.852,290.587 258.185,290.587 245.400 C 290.587 232.769,288.582 223.837,283.088 212.000 C 277.152 199.210,265.247 186.720,251.498 178.855 C 248.631 177.216,248.029 176.264,249.099 175.062 C 249.522 174.588,250.698 172.759,251.714 170.997 C 259.256 157.924,261.524 146.024,259.569 129.800 C 257.123 109.505,239.705 88.867,219.800 82.677 C 212.333 80.355,211.116 80.050,207.400 79.568 C 202.372 78.914,139.732 78.820,134.884 79.459 M146.800 80.009 C 153.993 81.124,162.446 87.887,166.734 95.959 C 169.689 101.521,169.594 99.807,169.869 152.328 L 170.112 198.855 171.036 199.460 C 172.611 200.492,206.058 200.002,211.141 198.872 C 215.408 197.924,223.215 195.480,225.000 194.535 C 232.709 190.451,241.582 183.809,244.786 179.723 C 247.014 176.882,248.760 177.318,256.713 182.703 C 269.058 191.062,278.743 202.609,284.066 215.313 C 294.844 241.036,291.503 268.677,274.938 290.831 C 264.150 305.260,249.044 314.738,229.600 319.280 L 225.800 320.167 168.255 320.295 C 125.263 320.391,110.570 320.307,110.155 319.963 C 109.684 319.572,109.600 303.255,109.600 212.357 L 109.600 105.212 110.564 101.906 C 115.283 85.729,129.250 77.289,146.800 80.009 " stroke="none" fill="#aaa" fill-rule="evenodd"></path><path id="path2" d="M0.000 200.000 L 0.000 400.000 200.000 400.000 L 400.000 400.000 400.000 200.000 L 400.000 0.000 200.000 0.000 L 0.000 0.000 0.000 200.000 M207.400 79.568 C 211.116 80.050,212.333 80.355,219.800 82.677 C 251.007 92.381,268.260 128.947,256.621 160.718 C 254.970 165.225,250.832 173.117,249.099 175.062 C 248.029 176.264,248.631 177.216,251.498 178.855 C 272.571 190.908,285.658 209.588,289.853 233.600 C 292.395 248.147,288.511 271.315,281.932 280.862 C 281.529 281.446,281.200 282.014,281.200 282.124 C 281.200 282.738,277.154 288.755,274.399 292.237 C 262.374 307.440,243.922 318.079,225.594 320.377 C 220.050 321.072,110.228 320.956,109.645 320.255 C 109.310 319.851,109.220 291.531,109.296 211.355 L 109.400 103.000 110.445 100.192 C 114.793 88.507,123.728 80.927,134.884 79.459 C 139.732 78.820,202.372 78.914,207.400 79.568 " stroke="none" fill="none" fill-rule="evenodd"></path></g></svg>