<svg id="svg" version="1.1" xmlns="http://www.w3.org/2000/svg" xmlns:xlink="http://www.w3.org/1999/xlink" width="400" height="400" viewBox="0, 0, 400,400"><g id="svgg"><path id="path0" d="M264.200 63.124 C 248.633 64.975,237.258 72.061,225.707 87.100 C 216.829 98.659,211.269 111.016,204.830 133.500 C 203.727 137.350,202.597 141.102,202.319 141.838 C 202.040 142.574,201.177 145.364,200.400 148.038 C 199.622 150.712,198.754 153.606,198.471 154.468 L 197.955 156.036 197.328 155.923 C 196.982 155.860,189.050 154.774,179.700 153.510 C 170.350 152.245,157.395 150.490,150.912 149.609 C 144.429 148.729,139.093 148.040,139.055 148.078 C 138.951 148.182,137.000 163.867,137.081 163.948 C 137.120 163.987,149.906 166.032,165.494 168.494 C 181.082 170.955,193.867 173.000,193.905 173.038 C 193.980 173.113,187.079 203.787,186.961 203.906 C 186.921 203.945,174.567 202.185,159.506 199.994 C 144.446 197.802,132.093 196.040,132.055 196.078 C 131.950 196.184,130.000 210.867,130.081 210.948 C 130.120 210.987,141.751 212.767,155.926 214.903 C 170.102 217.040,181.993 218.839,182.350 218.903 L 183.000 219.018 183.000 221.004 C 183.000 223.664,180.654 234.626,175.724 255.000 C 166.661 292.459,164.317 300.743,160.706 308.100 C 150.225 329.448,134.763 334.225,125.805 318.882 C 122.912 313.928,119.627 310.203,117.627 309.610 C 110.278 307.430,107.220 308.676,105.008 314.748 C 103.168 319.801,103.899 323.127,107.682 326.905 C 122.353 341.559,154.169 337.876,171.809 319.481 C 180.186 310.745,185.262 300.282,197.073 267.400 C 198.120 264.485,199.482 260.760,200.099 259.122 C 201.682 254.926,203.128 249.898,205.313 241.000 C 208.020 229.981,209.861 223.000,210.060 223.000 C 210.085 223.000,222.657 224.794,237.998 226.988 C 253.340 229.181,265.925 230.941,265.967 230.900 C 266.094 230.773,269.980 216.114,269.907 216.040 C 269.869 216.002,257.082 214.180,241.492 211.992 C 225.902 209.803,213.117 207.984,213.082 207.949 C 213.008 207.875,218.937 176.196,219.046 176.087 C 219.086 176.047,230.992 177.806,245.503 179.997 C 260.015 182.187,271.922 183.944,271.965 183.902 C 272.093 183.773,275.981 169.114,275.906 169.040 C 275.868 169.002,263.532 167.180,248.491 164.991 C 233.451 162.803,221.117 160.984,221.083 160.949 C 221.048 160.915,221.335 159.899,221.719 158.693 C 223.152 154.202,226.288 143.323,229.702 131.000 C 236.433 106.709,239.419 96.942,241.196 93.408 C 245.513 84.823,252.768 76.075,257.440 73.824 C 263.240 71.029,269.261 72.393,273.713 77.509 C 274.366 78.260,275.446 79.465,276.114 80.187 C 276.782 80.909,278.278 82.625,279.439 84.000 C 284.727 90.264,288.192 92.324,292.224 91.597 C 296.768 90.778,298.643 87.667,298.936 80.455 L 299.060 77.410 298.430 76.131 C 296.357 71.919,289.157 66.580,282.900 64.613 C 278.859 63.344,268.975 62.556,264.200 63.124 " stroke="none" fill="#fbfbfc" fill-rule="evenodd"></path><path id="path1" d="M187.500 0.209 C 48.939 9.419,-38.441 152.005,16.515 279.221 C 45.501 346.319,109.784 392.904,182.200 399.289 C 313.537 410.869,420.302 294.300,396.783 165.000 C 380.384 74.841,306.817 8.299,214.900 0.482 C 210.508 0.109,191.811 -0.078,187.500 0.209 M278.700 63.576 C 283.086 64.392,287.241 66.030,290.714 68.312 C 293.206 69.949,297.558 74.360,298.430 76.131 L 299.060 77.410 298.936 80.455 C 298.643 87.667,296.768 90.778,292.224 91.597 C 288.192 92.324,284.727 90.264,279.439 84.000 C 278.278 82.625,276.782 80.909,276.114 80.187 C 275.446 79.465,274.366 78.260,273.713 77.509 C 269.261 72.393,263.240 71.029,257.440 73.824 C 252.768 76.075,245.513 84.823,241.196 93.408 C 239.419 96.942,236.433 106.709,229.702 131.000 C 226.288 143.323,223.152 154.202,221.719 158.693 C 221.335 159.899,221.048 160.915,221.083 160.949 C 221.117 160.984,233.451 162.803,248.491 164.991 C 263.532 167.180,275.868 169.002,275.906 169.040 C 275.981 169.114,272.093 183.773,271.965 183.902 C 271.922 183.944,260.015 182.187,245.503 179.997 C 230.992 177.806,219.086 176.047,219.046 176.087 C 218.937 176.196,213.008 207.875,213.082 207.949 C 213.117 207.984,225.902 209.803,241.492 211.992 C 257.082 214.180,269.869 216.002,269.907 216.040 C 269.980 216.114,266.094 230.773,265.967 230.900 C 265.925 230.941,253.340 229.181,237.998 226.988 C 222.657 224.794,210.085 223.000,210.060 223.000 C 209.861 223.000,208.020 229.981,205.313 241.000 C 203.128 249.898,201.682 254.926,200.099 259.122 C 199.482 260.760,198.120 264.485,197.073 267.400 C 185.262 300.282,180.186 310.745,171.809 319.481 C 154.169 337.876,122.353 341.559,107.682 326.905 C 103.899 323.127,103.168 319.801,105.008 314.748 C 107.220 308.676,110.278 307.430,117.627 309.610 C 119.627 310.203,122.912 313.928,125.805 318.882 C 130.641 327.166,137.672 329.855,145.179 326.294 C 152.963 322.601,161.111 310.517,165.269 296.500 C 166.343 292.879,174.977 258.278,177.796 246.300 C 181.688 229.760,183.000 223.384,183.000 221.004 L 183.000 219.018 182.350 218.903 C 181.993 218.839,170.102 217.040,155.926 214.903 C 141.751 212.767,130.120 210.987,130.081 210.948 C 130.000 210.867,131.950 196.184,132.055 196.078 C 132.093 196.040,144.446 197.802,159.506 199.994 C 174.567 202.185,186.921 203.945,186.961 203.906 C 187.079 203.787,193.980 173.113,193.905 173.038 C 193.867 173.000,181.082 170.955,165.494 168.494 C 149.906 166.032,137.120 163.987,137.081 163.948 C 137.000 163.867,138.951 148.182,139.055 148.078 C 139.093 148.040,144.429 148.729,150.912 149.609 C 157.395 150.490,170.350 152.245,179.700 153.510 C 189.050 154.774,196.982 155.860,197.328 155.923 L 197.955 156.036 198.471 154.468 C 198.754 153.606,199.622 150.712,200.400 148.038 C 201.177 145.364,202.040 142.574,202.319 141.838 C 202.597 141.102,203.727 137.350,204.830 133.500 C 211.269 111.016,216.829 98.659,225.707 87.100 C 237.258 72.061,248.633 64.975,264.200 63.124 C 266.391 62.864,276.578 63.181,278.700 63.576 " stroke="none" fill="#0494fc" fill-rule="evenodd"></path></g></svg>