<svg id="SvgjsSvg1001" xmlns="http://www.w3.org/2000/svg" version="1.1" xmlns:xlink="http://www.w3.org/1999/xlink" xmlns:svgjs="http://svgjs.com/svgjs" viewBox="0 118.72 288 50.53"><defs id="SvgjsDefs1002"/><g id="SvgjsG1008"><svg xmlns="http://www.w3.org/2000/svg" width="288" height="288" viewBox="0 0 400 70.229"><path fill="#79f8bb" fill-rule="evenodd" d="M12.147 8.482 L 11.750 8.804 11.701 18.880 L 11.652 28.957 12.091 29.479 L 12.530 30.000 16.761 30.000 L 20.991 30.000 21.246 29.508 C 21.591 28.840,21.628 9.345,21.284 8.667 L 21.074 8.250 16.809 8.206 C 12.808 8.164,12.519 8.181,12.147 8.482 M40.979 8.442 C 40.790 8.670,40.735 11.406,40.667 24.151 L 40.583 39.583 26.401 39.667 C 14.521 39.736,12.172 39.788,11.934 39.985 C 11.472 40.369,11.599 58.132,12.067 58.649 C 12.507 59.134,20.791 59.203,21.188 58.725 C 21.364 58.513,21.436 57.427,21.500 53.983 C 21.563 50.632,21.637 49.462,21.800 49.300 C 21.971 49.129,23.936 49.073,31.144 49.036 L 40.271 48.989 40.462 49.370 C 40.586 49.618,40.670 51.261,40.701 54.100 C 40.739 57.485,40.801 58.510,40.979 58.725 C 41.308 59.121,49.561 59.132,50.083 58.738 C 50.414 58.488,50.417 58.262,50.465 34.201 C 50.518 8.034,50.531 8.644,49.902 8.357 C 49.168 8.023,41.264 8.098,40.979 8.442 M119.083 8.334 C 118.167 8.402,117.117 8.539,116.750 8.637 C 116.383 8.735,115.258 8.936,114.250 9.083 C 113.242 9.230,111.906 9.534,111.282 9.758 C 110.658 9.983,109.983 10.167,109.782 10.167 C 109.581 10.167,108.929 10.402,108.333 10.690 C 107.737 10.977,106.612 11.520,105.833 11.895 C 105.054 12.270,104.205 12.747,103.946 12.955 C 103.686 13.163,103.402 13.333,103.314 13.333 C 103.142 13.333,102.931 13.520,101.000 15.381 C 99.398 16.924,98.282 18.334,97.762 19.468 C 97.623 19.771,97.357 20.213,97.171 20.449 C 96.985 20.685,96.833 20.993,96.833 21.134 C 96.833 21.275,96.606 21.858,96.327 22.429 C 96.049 23.001,95.752 23.895,95.667 24.416 C 95.582 24.937,95.355 25.784,95.163 26.297 C 94.340 28.496,94.398 38.529,95.247 40.960 C 95.478 41.620,95.667 42.374,95.667 42.635 C 95.667 42.896,95.854 43.479,96.083 43.930 C 96.312 44.381,96.585 45.012,96.689 45.333 C 96.982 46.236,98.784 49.242,99.497 50.019 C 100.352 50.951,101.404 51.995,101.995 52.500 C 102.371 52.821,102.807 53.203,102.964 53.349 C 103.121 53.495,103.513 53.757,103.833 53.930 C 104.154 54.104,104.529 54.335,104.667 54.443 C 104.804 54.550,105.254 54.770,105.667 54.932 C 106.079 55.093,106.590 55.357,106.802 55.519 C 107.014 55.682,107.464 55.904,107.802 56.014 C 108.140 56.123,108.611 56.349,108.848 56.515 C 109.085 56.681,109.722 56.890,110.264 56.978 C 110.807 57.066,111.590 57.285,112.005 57.464 C 112.420 57.643,113.282 57.873,113.921 57.975 C 115.691 58.258,117.129 58.508,118.417 58.757 C 120.314 59.124,132.712 59.097,133.021 58.725 C 133.319 58.367,133.451 50.699,133.169 50.171 C 132.993 49.842,132.845 49.833,127.119 49.833 C 121.359 49.833,118.123 49.665,117.214 49.320 C 116.962 49.224,116.121 49.035,115.346 48.900 C 114.570 48.764,113.706 48.519,113.426 48.355 C 113.146 48.190,112.579 47.951,112.167 47.824 C 111.754 47.696,111.230 47.421,111.002 47.213 C 110.773 47.004,110.521 46.833,110.441 46.833 C 110.004 46.833,107.311 44.265,106.893 43.449 C 106.743 43.156,106.443 42.705,106.227 42.446 C 106.010 42.186,105.833 41.863,105.833 41.727 C 105.833 41.591,105.640 41.071,105.404 40.572 C 105.168 40.072,104.904 39.158,104.819 38.540 C 104.733 37.922,104.631 37.328,104.591 37.220 C 104.093 35.855,104.164 33.253,104.817 28.917 C 104.972 27.889,106.002 25.132,106.402 24.674 C 106.525 24.532,106.749 24.176,106.898 23.881 C 107.234 23.218,109.915 20.549,110.397 20.398 C 110.591 20.337,110.960 20.112,111.216 19.898 C 111.472 19.684,111.960 19.434,112.299 19.342 C 112.639 19.250,113.085 19.057,113.290 18.912 C 113.659 18.653,116.066 18.038,118.500 17.580 C 119.188 17.451,120.432 17.342,121.266 17.339 C 123.484 17.331,123.333 16.921,123.333 22.968 L 123.333 27.992 123.784 28.288 C 124.391 28.685,132.592 28.741,133.062 28.351 C 133.435 28.042,133.408 8.841,133.034 8.467 C 132.784 8.217,122.012 8.114,119.083 8.334 M135.574 8.403 C 135.256 8.635,135.249 9.091,135.204 31.528 L 135.159 54.417 135.526 54.717 C 135.965 55.077,135.745 55.289,140.059 50.333 C 141.615 48.546,143.044 46.930,143.236 46.743 C 143.427 46.556,144.033 45.893,144.583 45.268 C 145.133 44.644,145.778 43.935,146.015 43.692 C 146.253 43.449,146.841 42.786,147.324 42.218 C 148.312 41.054,149.061 40.719,149.438 41.272 C 149.556 41.443,149.758 41.696,149.889 41.833 C 150.019 41.971,150.506 42.571,150.970 43.167 C 151.993 44.478,152.339 44.907,152.989 45.667 C 153.599 46.381,154.392 47.377,155.167 48.405 C 155.487 48.830,155.975 49.434,156.250 49.747 C 156.937 50.529,157.464 51.169,158.859 52.917 C 159.517 53.742,160.268 54.679,160.528 55.000 C 160.788 55.321,161.148 55.771,161.328 56.000 C 161.939 56.777,162.748 57.718,163.355 58.360 L 163.961 59.000 169.532 59.000 C 176.216 59.000,176.548 58.870,174.794 56.941 C 174.587 56.712,174.154 56.209,173.833 55.823 C 172.466 54.176,171.799 53.391,171.435 53.000 C 170.988 52.519,168.362 49.414,167.500 48.346 C 166.841 47.531,165.749 46.243,165.250 45.694 C 164.114 44.445,163.633 43.888,162.500 42.508 C 160.463 40.028,160.060 39.548,158.915 38.250 C 155.083 33.903,155.144 34.089,156.888 32.063 C 158.147 30.599,158.790 29.832,158.966 29.583 C 159.031 29.492,159.271 29.185,159.500 28.901 C 159.729 28.617,160.142 28.102,160.417 27.756 C 160.692 27.410,161.554 26.358,162.333 25.417 C 163.112 24.477,164.012 23.354,164.333 22.922 C 164.654 22.490,165.104 21.921,165.333 21.656 C 166.169 20.690,166.838 19.876,168.405 17.917 C 169.926 16.014,170.558 15.245,171.500 14.151 C 171.729 13.885,172.179 13.320,172.500 12.896 C 172.821 12.472,173.516 11.616,174.044 10.993 C 176.369 8.255,176.378 8.261,169.753 8.202 L 164.355 8.154 163.636 8.904 C 163.240 9.316,162.467 10.220,161.917 10.911 C 160.268 12.985,159.672 13.723,159.199 14.279 C 158.587 14.999,157.398 16.466,156.181 18.000 C 155.999 18.229,155.378 18.987,154.800 19.684 C 154.223 20.381,153.525 21.234,153.250 21.579 C 152.975 21.924,152.487 22.523,152.167 22.910 C 151.846 23.297,151.358 23.901,151.083 24.254 C 150.808 24.606,150.377 25.111,150.125 25.377 C 149.873 25.642,149.667 25.895,149.667 25.939 C 149.667 25.982,149.214 26.558,148.661 27.217 C 146.820 29.413,146.555 29.747,146.354 30.125 C 146.245 30.331,146.038 30.500,145.896 30.500 C 145.753 30.500,145.499 30.669,145.331 30.875 C 144.843 31.473,144.839 31.403,144.793 19.695 C 144.751 8.970,144.740 8.633,144.426 8.403 C 143.952 8.057,136.048 8.057,135.574 8.403 M220.646 8.353 C 220.067 8.566,220.004 9.003,220.002 12.804 L 220.000 15.859 220.487 16.346 L 220.974 16.833 235.475 16.833 C 251.492 16.833,250.376 16.912,250.590 15.774 C 250.854 14.367,250.598 8.650,250.260 8.403 C 249.868 8.117,221.420 8.069,220.646 8.353 M252.595 8.429 C 252.199 8.824,252.197 29.065,252.593 29.630 C 253.002 30.214,261.021 30.210,261.509 29.625 C 261.990 29.049,262.008 8.877,261.529 8.442 C 261.081 8.037,252.999 8.025,252.595 8.429 M281.917 8.282 C 281.136 8.486,281.167 7.842,281.167 23.911 C 281.167 38.429,281.153 39.127,280.862 39.391 C 280.583 39.643,279.356 39.667,266.645 39.667 C 256.047 39.667,252.686 39.714,252.533 39.867 C 252.270 40.130,252.243 58.187,252.506 58.678 C 252.765 59.162,261.120 59.179,261.558 58.695 C 261.798 58.429,261.833 57.871,261.833 54.286 C 261.833 51.650,261.899 50.038,262.017 49.779 C 262.365 49.016,262.816 48.983,271.998 49.035 L 280.580 49.083 280.865 49.667 C 281.110 50.168,281.152 50.831,281.159 54.366 C 281.167 58.425,281.172 58.485,281.537 58.741 C 282.174 59.187,290.212 59.122,290.667 58.667 C 291.108 58.225,291.203 9.175,290.764 8.574 C 290.530 8.254,282.976 8.005,281.917 8.282 M313.889 8.326 C 313.232 8.401,312.220 8.616,311.639 8.803 C 311.058 8.990,310.321 9.193,310.000 9.254 C 309.679 9.315,309.028 9.545,308.552 9.766 C 308.076 9.986,307.508 10.167,307.289 10.167 C 307.070 10.167,306.559 10.380,306.154 10.640 C 305.108 11.313,304.351 11.766,303.583 12.180 C 302.279 12.884,298.793 16.188,298.148 17.333 C 297.744 18.052,297.127 18.954,296.682 19.478 C 296.497 19.694,296.259 20.144,296.152 20.478 C 296.045 20.811,295.863 21.196,295.746 21.333 C 295.630 21.471,295.409 21.958,295.255 22.417 C 295.101 22.875,294.833 23.482,294.658 23.765 C 294.483 24.048,294.271 24.760,294.186 25.348 C 294.102 25.936,293.872 26.821,293.676 27.315 C 292.841 29.420,292.837 37.903,293.670 40.004 C 293.870 40.506,294.096 41.357,294.173 41.895 C 294.251 42.434,294.506 43.277,294.740 43.770 C 295.236 44.813,295.867 46.169,296.241 47.000 C 296.386 47.321,296.839 48.033,297.247 48.583 C 297.656 49.133,298.115 49.808,298.268 50.083 C 298.421 50.358,299.318 51.333,300.262 52.250 C 302.448 54.373,302.752 54.628,303.454 54.921 C 303.770 55.054,304.254 55.351,304.528 55.581 C 304.802 55.811,305.110 56.000,305.212 56.000 C 305.315 56.000,305.670 56.188,306.001 56.418 C 306.333 56.647,307.045 56.950,307.584 57.091 C 308.123 57.231,308.654 57.420,308.764 57.512 C 308.986 57.696,311.443 58.377,313.250 58.755 C 314.790 59.078,320.177 59.085,321.583 58.766 C 323.702 58.286,325.445 57.796,326.119 57.490 C 326.505 57.314,327.172 57.092,327.602 56.996 C 328.032 56.899,328.603 56.636,328.871 56.410 C 329.139 56.185,329.440 56.000,329.539 56.000 C 329.638 56.000,329.951 55.824,330.234 55.608 C 330.518 55.392,330.997 55.089,331.299 54.933 C 331.960 54.593,332.245 54.367,333.567 53.141 C 335.570 51.284,335.771 51.076,336.086 50.542 C 336.262 50.244,336.463 50.000,336.533 50.000 C 336.603 50.000,336.813 49.700,337.000 49.333 C 337.187 48.967,337.404 48.667,337.483 48.667 C 337.562 48.667,337.717 48.447,337.829 48.178 C 337.940 47.909,338.213 47.442,338.436 47.141 C 338.658 46.839,338.921 46.290,339.019 45.921 C 339.117 45.552,339.303 45.132,339.432 44.987 C 339.560 44.843,339.823 44.243,340.016 43.654 C 340.208 43.065,340.431 42.504,340.511 42.406 C 340.730 42.139,341.488 38.341,341.773 36.083 C 342.032 34.035,341.887 30.520,341.492 29.250 C 341.406 28.975,341.190 27.962,341.011 27.000 C 340.832 26.037,340.540 24.950,340.363 24.583 C 340.185 24.217,339.983 23.654,339.914 23.333 C 339.845 23.012,339.611 22.489,339.394 22.170 C 339.177 21.850,339.000 21.464,339.000 21.310 C 339.000 20.632,336.091 16.454,334.722 15.167 C 333.071 13.615,331.613 12.418,330.958 12.080 C 330.615 11.903,330.333 11.711,330.333 11.654 C 330.333 11.597,330.015 11.409,329.625 11.236 C 329.235 11.063,328.772 10.790,328.596 10.629 C 328.419 10.469,328.007 10.288,327.679 10.227 C 327.351 10.166,326.746 9.969,326.333 9.790 C 325.921 9.610,324.908 9.280,324.083 9.057 C 323.258 8.834,322.321 8.578,322.000 8.488 C 321.218 8.270,315.387 8.153,313.889 8.326 M344.812 8.349 C 344.158 8.595,344.170 8.225,344.169 28.021 C 344.167 44.815,344.189 46.311,344.442 46.521 C 344.869 46.875,353.779 46.855,354.004 46.500 C 354.098 46.350,354.163 42.378,354.164 36.567 C 354.167 27.144,354.175 26.877,354.495 26.588 C 354.814 26.299,354.833 26.306,355.120 26.833 C 355.283 27.131,355.575 27.572,355.768 27.813 C 355.962 28.053,356.235 28.475,356.376 28.750 C 356.517 29.026,356.790 29.393,356.983 29.568 C 357.176 29.742,357.333 29.977,357.333 30.089 C 357.333 30.201,357.447 30.387,357.585 30.501 C 357.723 30.616,358.187 31.244,358.616 31.897 C 359.045 32.549,359.588 33.316,359.823 33.600 C 360.058 33.885,360.400 34.366,360.583 34.670 C 361.400 36.023,361.633 36.361,361.972 36.676 C 362.171 36.862,362.333 37.075,362.333 37.150 C 362.333 37.225,362.595 37.616,362.915 38.018 C 363.235 38.421,363.497 38.815,363.498 38.895 C 363.499 38.974,363.706 39.293,363.958 39.602 C 365.170 41.090,365.333 41.303,365.333 41.400 C 365.333 41.518,366.680 43.538,366.844 43.667 C 366.902 43.712,367.140 44.050,367.372 44.417 C 367.604 44.783,367.953 45.264,368.147 45.484 C 368.341 45.704,368.500 45.974,368.500 46.083 C 368.500 46.192,368.658 46.424,368.850 46.599 C 369.043 46.773,369.304 47.115,369.430 47.359 C 369.556 47.602,369.756 47.903,369.875 48.026 C 369.994 48.149,370.530 48.906,371.066 49.708 C 371.602 50.510,372.098 51.167,372.169 51.167 C 372.239 51.167,372.341 51.335,372.394 51.542 C 372.448 51.748,372.718 52.179,372.996 52.500 C 373.273 52.821,373.499 53.132,373.500 53.193 C 373.500 53.253,373.762 53.616,374.083 54.000 C 374.404 54.384,374.667 54.769,374.667 54.856 C 374.667 54.943,374.823 55.180,375.015 55.382 C 375.206 55.584,375.507 56.031,375.685 56.375 C 375.862 56.719,376.066 57.000,376.139 57.000 C 376.212 57.000,376.439 57.297,376.643 57.660 C 377.392 58.993,377.421 59.000,382.208 59.000 C 386.104 59.000,386.471 58.975,386.724 58.695 C 387.177 58.195,387.146 8.850,386.692 8.440 C 386.418 8.192,385.914 8.166,382.155 8.205 L 377.926 8.250 377.716 8.667 C 377.550 8.994,377.504 12.459,377.502 24.760 C 377.500 42.444,377.566 41.574,376.333 40.072 C 374.874 38.293,374.710 38.078,374.433 37.583 C 374.280 37.308,373.931 36.783,373.658 36.417 C 373.385 36.050,372.704 35.075,372.144 34.250 C 371.584 33.425,370.985 32.595,370.813 32.406 C 370.641 32.217,370.500 32.002,370.500 31.928 C 370.500 31.854,370.294 31.551,370.042 31.255 C 369.790 30.958,369.452 30.499,369.292 30.233 C 369.132 29.967,368.777 29.450,368.502 29.083 C 367.551 27.811,366.333 25.989,366.333 25.837 C 366.333 25.752,366.232 25.623,366.108 25.550 C 365.983 25.477,365.684 25.117,365.443 24.750 C 364.976 24.041,364.110 22.795,363.417 21.833 C 362.580 20.673,361.816 19.568,361.315 18.792 C 361.035 18.356,360.755 17.999,360.694 17.998 C 360.633 17.997,360.440 17.697,360.265 17.331 C 360.090 16.966,359.897 16.667,359.837 16.667 C 359.777 16.667,359.568 16.381,359.372 16.033 C 359.176 15.684,358.862 15.260,358.675 15.090 C 358.487 14.921,358.332 14.700,358.331 14.599 C 358.329 14.499,358.104 14.163,357.831 13.852 C 357.557 13.542,357.333 13.216,357.333 13.129 C 357.333 13.041,357.071 12.663,356.750 12.288 C 356.429 11.913,356.167 11.508,356.167 11.387 C 356.167 11.266,356.098 11.167,356.014 11.167 C 355.930 11.167,355.632 10.793,355.352 10.337 C 355.071 9.881,354.708 9.368,354.546 9.198 C 354.383 9.027,354.167 8.744,354.065 8.569 C 353.854 8.204,345.713 8.011,344.812 8.349 M72.218 8.502 C 71.752 8.689,71.411 9.223,71.167 10.152 C 71.060 10.556,70.873 11.043,70.751 11.235 C 70.628 11.427,70.412 11.984,70.269 12.473 C 70.126 12.962,69.864 13.599,69.685 13.889 C 69.507 14.179,69.306 14.712,69.239 15.074 C 69.172 15.435,68.978 15.967,68.807 16.257 C 68.637 16.546,68.383 17.168,68.243 17.639 C 68.103 18.110,67.803 18.864,67.577 19.314 C 67.352 19.764,67.164 20.271,67.161 20.441 C 67.159 20.611,66.934 21.198,66.661 21.746 C 66.389 22.293,66.166 22.893,66.165 23.079 C 66.164 23.265,65.991 23.717,65.781 24.083 C 65.572 24.450,65.298 25.125,65.174 25.583 C 65.049 26.042,64.780 26.717,64.576 27.083 C 64.371 27.450,64.154 28.033,64.094 28.380 C 64.033 28.726,63.836 29.258,63.657 29.563 C 63.477 29.867,63.211 30.521,63.066 31.016 C 62.920 31.511,62.706 32.029,62.591 32.167 C 62.475 32.304,62.290 32.792,62.179 33.250 C 62.069 33.708,61.848 34.308,61.688 34.583 C 61.528 34.858,61.296 35.458,61.172 35.917 C 61.049 36.375,60.779 37.050,60.573 37.417 C 60.368 37.783,60.147 38.346,60.084 38.667 C 60.020 38.987,59.833 39.484,59.668 39.771 C 59.504 40.057,59.246 40.714,59.097 41.229 C 58.947 41.745,58.639 42.515,58.412 42.941 C 58.185 43.368,57.998 43.874,57.995 44.066 C 57.992 44.259,57.767 44.865,57.495 45.412 C 57.223 45.960,57.000 46.560,56.999 46.746 C 56.999 46.931,56.852 47.325,56.672 47.619 C 56.492 47.914,56.161 48.664,55.937 49.286 C 55.712 49.908,55.329 50.971,55.085 51.650 C 54.842 52.328,54.541 53.040,54.417 53.233 C 54.293 53.426,54.079 54.022,53.941 54.557 C 53.803 55.093,53.575 55.659,53.433 55.815 C 53.292 55.971,53.061 56.649,52.919 57.321 C 52.552 59.067,52.334 58.988,57.550 58.995 L 61.849 59.000 62.272 58.543 C 62.741 58.038,63.167 57.132,63.167 56.641 C 63.167 56.466,63.348 55.964,63.570 55.527 C 63.791 55.089,64.025 54.436,64.090 54.074 C 64.154 53.713,64.372 53.079,64.574 52.667 C 64.776 52.254,65.035 51.542,65.148 51.083 C 65.261 50.625,65.528 49.875,65.739 49.417 C 65.951 48.958,66.178 48.287,66.243 47.925 C 66.308 47.562,66.542 46.925,66.764 46.509 C 66.985 46.093,67.167 45.619,67.167 45.456 C 67.167 45.293,67.429 44.488,67.750 43.667 C 68.071 42.846,68.333 42.040,68.333 41.877 C 68.333 41.714,68.511 41.244,68.727 40.832 C 68.944 40.420,69.175 39.787,69.241 39.424 C 69.307 39.062,69.516 38.462,69.705 38.092 C 69.894 37.721,70.149 36.989,70.271 36.464 C 70.394 35.940,70.645 35.228,70.830 34.883 C 71.015 34.537,71.167 34.136,71.167 33.990 C 71.167 32.766,72.542 30.995,72.966 31.674 C 73.073 31.845,73.208 32.307,73.266 32.701 C 73.324 33.095,73.515 33.668,73.690 33.974 C 73.865 34.281,74.150 35.031,74.323 35.641 C 74.496 36.251,74.785 37.050,74.964 37.417 C 75.143 37.783,75.343 38.379,75.409 38.741 C 75.474 39.102,75.709 39.756,75.930 40.194 C 76.152 40.631,76.333 41.146,76.333 41.338 C 76.333 41.530,76.515 42.076,76.736 42.552 C 76.958 43.028,77.297 43.957,77.491 44.618 C 77.685 45.279,77.903 45.857,77.977 45.902 C 78.050 45.947,78.210 46.419,78.333 46.951 C 78.456 47.482,78.725 48.258,78.931 48.676 C 79.137 49.093,79.358 49.731,79.421 50.093 C 79.485 50.454,79.680 51.000,79.854 51.305 C 80.029 51.610,80.249 52.206,80.343 52.628 C 80.438 53.050,80.737 53.901,81.008 54.518 C 81.278 55.134,81.500 55.778,81.500 55.947 C 81.500 56.205,82.155 57.753,82.651 58.667 C 82.767 58.880,83.469 58.917,87.385 58.917 C 92.674 58.917,92.582 58.940,92.111 57.703 C 91.946 57.271,91.739 56.628,91.651 56.276 C 91.563 55.923,91.306 55.286,91.079 54.860 C 90.852 54.434,90.667 53.954,90.667 53.793 C 90.667 53.633,90.447 53.032,90.178 52.459 C 89.908 51.886,89.635 51.192,89.571 50.917 C 89.506 50.642,89.281 50.117,89.072 49.750 C 88.863 49.383,88.639 48.783,88.575 48.417 C 88.512 48.050,88.316 47.513,88.142 47.223 C 87.967 46.933,87.711 46.315,87.573 45.850 C 87.435 45.385,87.137 44.636,86.911 44.186 C 86.685 43.736,86.498 43.229,86.495 43.059 C 86.492 42.889,86.267 42.302,85.995 41.754 C 85.723 41.207,85.500 40.607,85.499 40.421 C 85.499 40.235,85.343 39.828,85.152 39.515 C 84.962 39.203,84.665 38.490,84.491 37.932 C 84.318 37.374,84.024 36.620,83.838 36.256 C 83.652 35.893,83.500 35.480,83.500 35.338 C 83.500 35.197,83.316 34.735,83.092 34.313 C 82.867 33.891,82.593 33.179,82.483 32.731 C 82.373 32.283,82.153 31.729,81.995 31.500 C 81.837 31.271,81.653 30.821,81.586 30.500 C 81.519 30.179,81.286 29.556,81.067 29.114 C 80.849 28.673,80.549 27.895,80.400 27.385 C 80.252 26.876,79.996 26.224,79.832 25.938 C 79.667 25.651,79.480 25.154,79.416 24.833 C 79.353 24.512,79.121 23.937,78.900 23.554 C 78.680 23.171,78.500 22.715,78.500 22.540 C 78.500 22.366,78.312 21.854,78.081 21.403 C 77.851 20.952,77.581 20.283,77.481 19.917 C 77.381 19.550,77.082 18.784,76.816 18.215 C 76.551 17.646,76.333 17.056,76.333 16.905 C 76.333 16.753,76.151 16.281,75.928 15.856 C 75.705 15.431,75.404 14.656,75.259 14.133 C 75.114 13.611,74.927 13.141,74.842 13.089 C 74.758 13.037,74.570 12.587,74.426 12.091 C 74.282 11.594,73.983 10.827,73.761 10.386 C 73.540 9.944,73.304 9.358,73.237 9.083 C 73.062 8.366,72.852 8.246,72.218 8.502 M197.750 8.459 C 197.492 8.652,196.688 10.367,196.398 11.344 C 196.254 11.828,196.038 12.380,195.917 12.570 C 195.796 12.761,195.568 13.385,195.410 13.958 C 195.252 14.531,195.061 15.000,194.987 15.000 C 194.912 15.000,194.727 15.431,194.577 15.958 C 194.426 16.485,194.131 17.254,193.920 17.667 C 193.709 18.079,193.484 18.679,193.419 19.000 C 193.354 19.321,193.150 19.846,192.964 20.167 C 192.779 20.487,192.521 21.158,192.391 21.657 C 192.261 22.156,192.011 22.796,191.836 23.079 C 191.661 23.362,191.434 23.965,191.333 24.419 C 191.231 24.873,191.047 25.358,190.924 25.497 C 190.801 25.636,190.540 26.291,190.345 26.952 C 190.150 27.613,189.919 28.197,189.833 28.250 C 189.747 28.303,189.516 28.887,189.320 29.548 C 189.123 30.209,188.905 30.787,188.833 30.833 C 188.762 30.879,188.549 31.421,188.359 32.037 C 188.169 32.653,187.903 33.328,187.768 33.537 C 187.632 33.746,187.430 34.292,187.319 34.750 C 187.207 35.208,186.977 35.783,186.807 36.028 C 186.636 36.272,186.450 36.722,186.392 37.028 C 186.334 37.333,186.080 38.033,185.827 38.583 C 185.574 39.133,185.281 39.903,185.177 40.294 C 185.072 40.685,184.846 41.248,184.676 41.544 C 184.505 41.841,184.314 42.346,184.250 42.667 C 184.186 42.987,183.983 43.512,183.798 43.833 C 183.612 44.154,183.354 44.825,183.224 45.324 C 183.094 45.823,182.848 46.460,182.678 46.740 C 182.508 47.021,182.314 47.510,182.247 47.829 C 182.179 48.147,181.918 48.822,181.666 49.329 C 181.414 49.835,181.162 50.500,181.105 50.806 C 181.049 51.111,180.859 51.564,180.682 51.811 C 180.506 52.059,180.310 52.559,180.246 52.922 C 180.182 53.286,179.962 53.883,179.758 54.250 C 179.553 54.617,179.288 55.292,179.169 55.750 C 179.050 56.208,178.822 56.808,178.664 57.083 C 177.586 58.955,177.731 59.014,183.276 58.961 L 187.904 58.917 188.111 58.500 C 188.639 57.441,189.135 56.178,189.324 55.417 C 189.437 54.958,189.666 54.321,189.831 54.000 C 189.997 53.679,190.256 52.930,190.406 52.336 C 190.557 51.741,190.781 51.100,190.905 50.911 C 191.029 50.722,191.253 50.089,191.403 49.504 C 191.552 48.919,191.756 48.343,191.856 48.223 C 191.955 48.103,192.173 47.487,192.339 46.854 C 192.505 46.221,192.790 45.411,192.973 45.052 C 193.156 44.694,193.359 44.105,193.425 43.742 C 193.491 43.380,193.691 42.794,193.869 42.440 C 194.047 42.086,194.328 41.298,194.494 40.690 C 194.661 40.081,194.955 39.268,195.148 38.883 C 195.342 38.498,195.500 38.018,195.500 37.816 C 195.500 37.614,195.685 37.058,195.911 36.580 C 196.137 36.102,196.401 35.358,196.498 34.925 C 196.595 34.492,196.812 33.863,196.980 33.527 C 197.148 33.191,197.337 32.692,197.399 32.417 C 197.560 31.700,197.854 31.000,197.993 31.000 C 198.193 31.000,199.444 33.707,199.571 34.417 C 199.637 34.783,199.832 35.325,200.004 35.620 C 200.176 35.915,200.367 36.440,200.429 36.787 C 200.491 37.133,200.716 37.792,200.930 38.250 C 201.143 38.708,201.432 39.525,201.572 40.064 C 201.712 40.603,201.970 41.287,202.145 41.584 C 202.320 41.881,202.518 42.452,202.585 42.854 C 202.652 43.255,202.854 43.875,203.035 44.231 C 203.216 44.588,203.473 45.300,203.607 45.815 C 203.741 46.329,203.958 46.914,204.089 47.114 C 204.220 47.315,204.407 47.835,204.505 48.271 C 204.602 48.706,204.904 49.567,205.174 50.184 C 205.445 50.801,205.667 51.449,205.667 51.625 C 205.667 51.800,205.847 52.300,206.067 52.735 C 206.288 53.170,206.517 53.801,206.576 54.138 C 206.636 54.475,206.859 55.125,207.072 55.583 C 207.285 56.042,207.584 56.845,207.736 57.368 C 208.215 59.016,208.164 59.001,213.147 58.995 C 218.185 58.988,218.103 59.012,217.820 57.646 C 217.717 57.153,217.523 56.575,217.387 56.361 C 217.251 56.147,217.025 55.584,216.885 55.111 C 216.744 54.637,216.450 53.896,216.231 53.464 C 216.012 53.032,215.833 52.544,215.833 52.381 C 215.832 52.217,215.608 51.633,215.333 51.083 C 215.059 50.533,214.834 49.963,214.834 49.816 C 214.834 49.670,214.642 49.190,214.408 48.750 C 214.174 48.310,213.883 47.567,213.761 47.100 C 213.639 46.632,213.388 45.987,213.202 45.667 C 213.017 45.346,212.812 44.821,212.746 44.500 C 212.680 44.179,212.481 43.631,212.304 43.282 C 212.128 42.932,211.834 42.163,211.651 41.573 C 211.469 40.983,211.257 40.500,211.180 40.500 C 211.103 40.500,210.951 40.144,210.843 39.708 C 210.734 39.273,210.425 38.448,210.156 37.875 C 209.887 37.301,209.667 36.727,209.667 36.598 C 209.667 36.469,209.442 35.888,209.167 35.307 C 208.892 34.725,208.667 34.100,208.666 33.917 C 208.666 33.733,208.505 33.321,208.309 33.000 C 208.114 32.679,207.824 31.967,207.667 31.417 C 207.509 30.867,207.220 30.154,207.024 29.833 C 206.828 29.512,206.668 29.098,206.667 28.912 C 206.667 28.727,206.444 28.127,206.172 27.579 C 205.900 27.031,205.674 26.433,205.670 26.250 C 205.666 26.067,205.475 25.588,205.245 25.185 C 205.015 24.783,204.742 24.108,204.639 23.685 C 204.535 23.263,204.274 22.580,204.059 22.168 C 203.843 21.756,203.667 21.306,203.667 21.168 C 203.666 21.030,203.450 20.459,203.185 19.899 C 202.920 19.340,202.651 18.627,202.586 18.316 C 202.521 18.005,202.333 17.516,202.168 17.229 C 202.004 16.943,201.747 16.288,201.597 15.774 C 201.448 15.260,201.182 14.595,201.007 14.295 C 200.832 13.995,200.596 13.375,200.484 12.917 C 200.372 12.458,200.149 11.912,199.987 11.703 C 199.826 11.494,199.644 11.024,199.582 10.658 C 199.381 9.470,198.236 8.095,197.750 8.459 M320.396 17.416 C 320.843 17.456,321.368 17.592,321.563 17.718 C 321.757 17.844,322.447 18.107,323.095 18.303 C 323.744 18.498,324.412 18.810,324.580 18.996 C 324.748 19.181,324.985 19.333,325.106 19.333 C 325.530 19.333,328.732 22.417,328.918 23.004 C 328.975 23.185,329.091 23.333,329.175 23.333 C 329.260 23.333,329.553 23.778,329.827 24.321 C 330.101 24.865,330.394 25.351,330.477 25.403 C 330.561 25.454,330.681 25.778,330.745 26.123 C 330.809 26.468,331.031 27.089,331.237 27.503 C 331.593 28.215,331.739 28.968,332.176 32.350 C 332.449 34.468,331.868 39.093,331.182 40.260 C 331.017 40.540,330.832 41.038,330.770 41.368 C 330.708 41.697,330.494 42.175,330.293 42.430 C 330.092 42.685,329.813 43.098,329.672 43.347 C 328.702 45.066,327.034 46.848,325.667 47.628 C 325.254 47.863,324.767 48.180,324.583 48.333 C 324.400 48.485,323.912 48.704,323.500 48.819 C 323.087 48.934,322.337 49.221,321.833 49.457 C 320.420 50.121,314.412 50.120,313.000 49.457 C 312.496 49.220,311.783 48.945,311.417 48.846 C 311.050 48.747,310.420 48.441,310.017 48.166 C 309.613 47.891,309.216 47.667,309.134 47.667 C 309.051 47.667,308.810 47.479,308.598 47.250 C 308.386 47.021,308.155 46.833,308.085 46.833 C 307.973 46.833,307.112 45.968,306.066 44.806 C 305.873 44.592,305.582 44.154,305.418 43.833 C 305.254 43.512,304.943 43.038,304.727 42.779 C 304.510 42.520,304.333 42.143,304.333 41.943 C 304.333 41.742,304.157 41.316,303.942 40.997 C 303.726 40.678,303.454 39.892,303.337 39.250 C 303.220 38.608,303.015 37.821,302.883 37.500 C 302.569 36.742,302.417 32.908,302.647 31.583 C 303.044 29.304,303.513 27.462,303.888 26.713 C 304.107 26.275,304.339 25.697,304.404 25.428 C 304.469 25.159,304.704 24.722,304.927 24.457 C 305.151 24.191,305.333 23.881,305.333 23.767 C 305.333 23.654,305.596 23.266,305.918 22.905 C 306.239 22.545,306.544 22.119,306.596 21.958 C 306.647 21.798,306.747 21.667,306.817 21.667 C 306.887 21.667,307.278 21.348,307.685 20.958 C 308.678 20.008,309.151 19.643,309.884 19.265 C 310.223 19.091,310.500 18.886,310.500 18.812 C 310.500 18.737,310.931 18.557,311.458 18.413 C 311.985 18.268,312.754 17.986,313.167 17.786 C 314.241 17.267,317.103 17.120,320.396 17.416 M231.211 26.702 C 230.646 26.975,230.650 26.847,230.702 43.222 C 230.749 58.211,230.757 58.532,231.077 58.766 C 231.345 58.962,232.173 58.997,235.656 58.961 L 239.907 58.917 240.120 58.500 C 240.444 57.864,240.349 27.170,240.021 26.776 C 239.744 26.442,231.887 26.376,231.211 26.702 M315.958 29.428 C 313.212 30.114,311.883 33.433,313.297 36.075 C 315.600 40.379,322.000 38.832,322.000 33.972 C 322.000 30.672,319.253 28.606,315.958 29.428 " class="color2f2f2f svgShape"/><path fill="#212121" fill-rule="evenodd" d="M0.000 35.083 L 0.000 70.167 200.000 70.167 L 400.000 70.167 400.000 35.083 L 400.000 0.000 200.000 0.000 L 0.000 0.000 0.000 35.083 M21.284 8.667 C 21.628 9.345,21.591 28.840,21.246 29.508 L 20.991 30.000 16.761 30.000 L 12.530 30.000 12.091 29.479 L 11.652 28.957 11.701 18.880 L 11.750 8.804 12.147 8.482 C 12.519 8.181,12.808 8.164,16.809 8.206 L 21.074 8.250 21.284 8.667 M49.902 8.357 C 50.531 8.644,50.518 8.034,50.465 34.201 C 50.417 58.262,50.414 58.488,50.083 58.738 C 49.561 59.132,41.308 59.121,40.979 58.725 C 40.801 58.510,40.739 57.485,40.701 54.100 C 40.670 51.261,40.586 49.618,40.462 49.370 L 40.271 48.989 31.144 49.036 C 23.936 49.073,21.971 49.129,21.800 49.300 C 21.637 49.462,21.563 50.632,21.500 53.983 C 21.436 57.427,21.364 58.513,21.188 58.725 C 20.791 59.203,12.507 59.134,12.067 58.649 C 11.599 58.132,11.472 40.369,11.934 39.985 C 12.172 39.788,14.521 39.736,26.401 39.667 L 40.583 39.583 40.667 24.151 C 40.735 11.406,40.790 8.670,40.979 8.442 C 41.264 8.098,49.168 8.023,49.902 8.357 M133.034 8.467 C 133.408 8.841,133.435 28.042,133.062 28.351 C 132.592 28.741,124.391 28.685,123.784 28.288 L 123.333 27.992 123.333 22.968 C 123.333 16.921,123.484 17.331,121.266 17.339 C 120.432 17.342,119.188 17.451,118.500 17.580 C 116.066 18.038,113.659 18.653,113.290 18.912 C 113.085 19.057,112.639 19.250,112.299 19.342 C 111.960 19.434,111.472 19.684,111.216 19.898 C 110.960 20.112,110.591 20.337,110.397 20.398 C 109.915 20.549,107.234 23.218,106.898 23.881 C 106.749 24.176,106.525 24.532,106.402 24.674 C 106.002 25.132,104.972 27.889,104.817 28.917 C 104.164 33.253,104.093 35.855,104.591 37.220 C 104.631 37.328,104.733 37.922,104.819 38.540 C 104.904 39.158,105.168 40.072,105.404 40.572 C 105.640 41.071,105.833 41.591,105.833 41.727 C 105.833 41.863,106.010 42.186,106.227 42.446 C 106.443 42.705,106.743 43.156,106.893 43.449 C 107.311 44.265,110.004 46.833,110.441 46.833 C 110.521 46.833,110.773 47.004,111.002 47.213 C 111.230 47.421,111.754 47.696,112.167 47.824 C 112.579 47.951,113.146 48.190,113.426 48.355 C 113.706 48.519,114.570 48.764,115.346 48.900 C 116.121 49.035,116.962 49.224,117.214 49.320 C 118.123 49.665,121.359 49.833,127.119 49.833 C 132.845 49.833,132.993 49.842,133.169 50.171 C 133.451 50.699,133.319 58.367,133.021 58.725 C 132.712 59.097,120.314 59.124,118.417 58.757 C 117.129 58.508,115.691 58.258,113.921 57.975 C 113.282 57.873,112.420 57.643,112.005 57.464 C 111.590 57.285,110.807 57.066,110.264 56.978 C 109.722 56.890,109.085 56.681,108.848 56.515 C 108.611 56.349,108.140 56.123,107.802 56.014 C 107.464 55.904,107.014 55.682,106.802 55.519 C 106.590 55.357,106.079 55.093,105.667 54.932 C 105.254 54.770,104.804 54.550,104.667 54.443 C 104.529 54.335,104.154 54.104,103.833 53.930 C 103.513 53.757,103.121 53.495,102.964 53.349 C 102.807 53.203,102.371 52.821,101.995 52.500 C 101.404 51.995,100.352 50.951,99.497 50.019 C 98.784 49.242,96.982 46.236,96.689 45.333 C 96.585 45.012,96.312 44.381,96.083 43.930 C 95.854 43.479,95.667 42.896,95.667 42.635 C 95.667 42.374,95.478 41.620,95.247 40.960 C 94.398 38.529,94.340 28.496,95.163 26.297 C 95.355 25.784,95.582 24.937,95.667 24.416 C 95.752 23.895,96.049 23.001,96.327 22.429 C 96.606 21.858,96.833 21.275,96.833 21.134 C 96.833 20.993,96.985 20.685,97.171 20.449 C 97.357 20.213,97.623 19.771,97.762 19.468 C 98.282 18.334,99.398 16.924,101.000 15.381 C 102.931 13.520,103.142 13.333,103.314 13.333 C 103.402 13.333,103.686 13.163,103.946 12.955 C 104.205 12.747,105.054 12.270,105.833 11.895 C 106.612 11.520,107.737 10.977,108.333 10.690 C 108.929 10.402,109.581 10.167,109.782 10.167 C 109.983 10.167,110.658 9.983,111.282 9.758 C 111.906 9.534,113.242 9.230,114.250 9.083 C 115.258 8.936,116.383 8.735,116.750 8.637 C 118.517 8.164,132.584 8.017,133.034 8.467 M144.426 8.403 C 144.740 8.633,144.751 8.970,144.793 19.695 C 144.839 31.403,144.843 31.473,145.331 30.875 C 145.499 30.669,145.753 30.500,145.896 30.500 C 146.038 30.500,146.245 30.331,146.354 30.125 C 146.555 29.747,146.820 29.413,148.661 27.217 C 149.214 26.558,149.667 25.982,149.667 25.939 C 149.667 25.895,149.873 25.642,150.125 25.377 C 150.377 25.111,150.808 24.606,151.083 24.254 C 151.358 23.901,151.846 23.297,152.167 22.910 C 152.487 22.523,152.975 21.924,153.250 21.579 C 153.525 21.234,154.223 20.381,154.800 19.684 C 155.378 18.987,155.999 18.229,156.181 18.000 C 157.398 16.466,158.587 14.999,159.199 14.279 C 159.672 13.723,160.268 12.985,161.917 10.911 C 162.467 10.220,163.240 9.316,163.636 8.904 L 164.355 8.154 169.753 8.202 C 176.378 8.261,176.369 8.255,174.044 10.993 C 173.516 11.616,172.821 12.472,172.500 12.896 C 172.179 13.320,171.729 13.885,171.500 14.151 C 170.558 15.245,169.926 16.014,168.405 17.917 C 166.838 19.876,166.169 20.690,165.333 21.656 C 165.104 21.921,164.654 22.490,164.333 22.922 C 164.012 23.354,163.112 24.477,162.333 25.417 C 161.554 26.358,160.692 27.410,160.417 27.756 C 160.142 28.102,159.729 28.617,159.500 28.901 C 159.271 29.185,159.031 29.492,158.966 29.583 C 158.790 29.832,158.147 30.599,156.888 32.063 C 155.144 34.089,155.083 33.903,158.915 38.250 C 160.060 39.548,160.463 40.028,162.500 42.508 C 163.633 43.888,164.114 44.445,165.250 45.694 C 165.749 46.243,166.841 47.531,167.500 48.346 C 168.362 49.414,170.988 52.519,171.435 53.000 C 171.799 53.391,172.466 54.176,173.833 55.823 C 174.154 56.209,174.587 56.712,174.794 56.941 C 176.548 58.870,176.216 59.000,169.532 59.000 L 163.961 59.000 163.355 58.360 C 162.748 57.718,161.939 56.777,161.328 56.000 C 161.148 55.771,160.788 55.321,160.528 55.000 C 160.268 54.679,159.517 53.742,158.859 52.917 C 157.464 51.169,156.937 50.529,156.250 49.747 C 155.975 49.434,155.487 48.830,155.167 48.405 C 154.392 47.377,153.599 46.381,152.989 45.667 C 152.339 44.907,151.993 44.478,150.970 43.167 C 150.506 42.571,150.019 41.971,149.889 41.833 C 149.758 41.696,149.556 41.443,149.438 41.272 C 149.061 40.719,148.312 41.054,147.324 42.218 C 146.841 42.786,146.253 43.449,146.015 43.692 C 145.778 43.935,145.133 44.644,144.583 45.268 C 144.033 45.893,143.427 46.556,143.236 46.743 C 143.044 46.930,141.615 48.546,140.059 50.333 C 135.745 55.289,135.965 55.077,135.526 54.717 L 135.159 54.417 135.204 31.528 C 135.249 9.091,135.256 8.635,135.574 8.403 C 136.048 8.057,143.952 8.057,144.426 8.403 M250.260 8.403 C 250.598 8.650,250.854 14.367,250.590 15.774 C 250.376 16.912,251.492 16.833,235.475 16.833 L 220.974 16.833 220.487 16.346 L 220.000 15.859 220.002 12.804 C 220.004 9.003,220.067 8.566,220.646 8.353 C 221.420 8.069,249.868 8.117,250.260 8.403 M261.529 8.442 C 262.008 8.877,261.990 29.049,261.509 29.625 C 261.021 30.210,253.002 30.214,252.593 29.630 C 252.197 29.065,252.199 8.824,252.595 8.429 C 252.999 8.025,261.081 8.037,261.529 8.442 M290.764 8.574 C 291.203 9.175,291.108 58.225,290.667 58.667 C 290.212 59.122,282.174 59.187,281.537 58.741 C 281.172 58.485,281.167 58.425,281.159 54.366 C 281.152 50.831,281.110 50.168,280.865 49.667 L 280.580 49.083 271.998 49.035 C 262.816 48.983,262.365 49.016,262.017 49.779 C 261.899 50.038,261.833 51.650,261.833 54.286 C 261.833 57.871,261.798 58.429,261.558 58.695 C 261.120 59.179,252.765 59.162,252.506 58.678 C 252.243 58.187,252.270 40.130,252.533 39.867 C 252.686 39.714,256.047 39.667,266.645 39.667 C 279.356 39.667,280.583 39.643,280.862 39.391 C 281.153 39.127,281.167 38.429,281.167 23.911 C 281.167 11.950,281.211 8.671,281.375 8.538 C 282.005 8.027,290.387 8.058,290.764 8.574 M322.000 8.488 C 322.321 8.578,323.258 8.834,324.083 9.057 C 324.908 9.280,325.921 9.610,326.333 9.790 C 326.746 9.969,327.351 10.166,327.679 10.227 C 328.007 10.288,328.419 10.469,328.596 10.629 C 328.772 10.790,329.235 11.063,329.625 11.236 C 330.015 11.409,330.333 11.597,330.333 11.654 C 330.333 11.711,330.615 11.903,330.958 12.080 C 331.613 12.418,333.071 13.615,334.722 15.167 C 336.091 16.454,339.000 20.632,339.000 21.310 C 339.000 21.464,339.177 21.850,339.394 22.170 C 339.611 22.489,339.845 23.012,339.914 23.333 C 339.983 23.654,340.185 24.217,340.363 24.583 C 340.540 24.950,340.832 26.037,341.011 27.000 C 341.190 27.962,341.406 28.975,341.492 29.250 C 341.887 30.520,342.032 34.035,341.773 36.083 C 341.488 38.341,340.730 42.139,340.511 42.406 C 340.431 42.504,340.208 43.065,340.016 43.654 C 339.823 44.243,339.560 44.843,339.432 44.987 C 339.303 45.132,339.117 45.552,339.019 45.921 C 338.921 46.290,338.658 46.839,338.436 47.141 C 338.213 47.442,337.940 47.909,337.829 48.178 C 337.717 48.447,337.562 48.667,337.483 48.667 C 337.404 48.667,337.187 48.967,337.000 49.333 C 336.813 49.700,336.603 50.000,336.533 50.000 C 336.463 50.000,336.262 50.244,336.086 50.542 C 335.771 51.076,335.570 51.284,333.567 53.141 C 332.245 54.367,331.960 54.593,331.299 54.933 C 330.997 55.089,330.518 55.392,330.234 55.608 C 329.951 55.824,329.638 56.000,329.539 56.000 C 329.440 56.000,329.139 56.185,328.871 56.410 C 328.603 56.636,328.032 56.899,327.602 56.996 C 327.172 57.092,326.505 57.314,326.119 57.490 C 325.445 57.796,323.702 58.286,321.583 58.766 C 320.177 59.085,314.790 59.078,313.250 58.755 C 311.443 58.377,308.986 57.696,308.764 57.512 C 308.654 57.420,308.123 57.231,307.584 57.091 C 307.045 56.950,306.333 56.647,306.001 56.418 C 305.670 56.188,305.315 56.000,305.212 56.000 C 305.110 56.000,304.802 55.811,304.528 55.581 C 304.254 55.351,303.770 55.054,303.454 54.921 C 302.752 54.628,302.448 54.373,300.262 52.250 C 299.318 51.333,298.421 50.358,298.268 50.083 C 298.115 49.808,297.656 49.133,297.247 48.583 C 296.839 48.033,296.386 47.321,296.241 47.000 C 295.867 46.169,295.236 44.813,294.740 43.770 C 294.506 43.277,294.251 42.434,294.173 41.895 C 294.096 41.357,293.870 40.506,293.670 40.004 C 292.837 37.903,292.841 29.420,293.676 27.315 C 293.872 26.821,294.102 25.936,294.186 25.348 C 294.271 24.760,294.483 24.048,294.658 23.765 C 294.833 23.482,295.101 22.875,295.255 22.417 C 295.409 21.958,295.630 21.471,295.746 21.333 C 295.863 21.196,296.045 20.811,296.152 20.478 C 296.259 20.144,296.497 19.694,296.682 19.478 C 297.127 18.954,297.744 18.052,298.148 17.333 C 298.793 16.188,302.279 12.884,303.583 12.180 C 304.351 11.766,305.108 11.313,306.154 10.640 C 306.559 10.380,307.070 10.167,307.289 10.167 C 307.508 10.167,308.076 9.986,308.552 9.766 C 309.028 9.545,309.679 9.315,310.000 9.254 C 310.321 9.193,311.058 8.990,311.639 8.803 C 313.523 8.197,320.228 7.993,322.000 8.488 M354.065 8.569 C 354.167 8.744,354.383 9.027,354.546 9.198 C 354.708 9.368,355.071 9.881,355.352 10.337 C 355.632 10.793,355.930 11.167,356.014 11.167 C 356.098 11.167,356.167 11.266,356.167 11.387 C 356.167 11.508,356.429 11.913,356.750 12.288 C 357.071 12.663,357.333 13.041,357.333 13.129 C 357.333 13.216,357.557 13.542,357.831 13.852 C 358.104 14.163,358.329 14.499,358.331 14.599 C 358.332 14.700,358.487 14.921,358.675 15.090 C 358.862 15.260,359.176 15.684,359.372 16.033 C 359.568 16.381,359.777 16.667,359.837 16.667 C 359.897 16.667,360.090 16.966,360.265 17.331 C 360.440 17.697,360.633 17.997,360.694 17.998 C 360.755 17.999,361.035 18.356,361.315 18.792 C 361.816 19.568,362.580 20.673,363.417 21.833 C 364.110 22.795,364.976 24.041,365.443 24.750 C 365.684 25.117,365.983 25.477,366.108 25.550 C 366.232 25.623,366.333 25.752,366.333 25.837 C 366.333 25.989,367.551 27.811,368.502 29.083 C 368.777 29.450,369.132 29.967,369.292 30.233 C 369.452 30.499,369.790 30.958,370.042 31.255 C 370.294 31.551,370.500 31.854,370.500 31.928 C 370.500 32.002,370.641 32.217,370.813 32.406 C 370.985 32.595,371.584 33.425,372.144 34.250 C 372.704 35.075,373.385 36.050,373.658 36.417 C 373.931 36.783,374.280 37.308,374.433 37.583 C 374.710 38.078,374.874 38.293,376.333 40.072 C 377.566 41.574,377.500 42.444,377.502 24.760 C 377.504 12.459,377.550 8.994,377.716 8.667 L 377.926 8.250 382.155 8.205 C 385.914 8.166,386.418 8.192,386.692 8.440 C 387.146 8.850,387.177 58.195,386.724 58.695 C 386.471 58.975,386.104 59.000,382.208 59.000 C 377.421 59.000,377.392 58.993,376.643 57.660 C 376.439 57.297,376.212 57.000,376.139 57.000 C 376.066 57.000,375.862 56.719,375.685 56.375 C 375.507 56.031,375.206 55.584,375.015 55.382 C 374.823 55.180,374.667 54.943,374.667 54.856 C 374.667 54.769,374.404 54.384,374.083 54.000 C 373.762 53.616,373.500 53.253,373.500 53.193 C 373.499 53.132,373.273 52.821,372.996 52.500 C 372.718 52.179,372.448 51.748,372.394 51.542 C 372.341 51.335,372.239 51.167,372.169 51.167 C 372.098 51.167,371.602 50.510,371.066 49.708 C 370.530 48.906,369.994 48.149,369.875 48.026 C 369.756 47.903,369.556 47.602,369.430 47.359 C 369.304 47.115,369.043 46.773,368.850 46.599 C 368.658 46.424,368.500 46.192,368.500 46.083 C 368.500 45.974,368.341 45.704,368.147 45.484 C 367.953 45.264,367.604 44.783,367.372 44.417 C 367.140 44.050,366.902 43.712,366.844 43.667 C 366.680 43.538,365.333 41.518,365.333 41.400 C 365.333 41.303,365.170 41.090,363.958 39.602 C 363.706 39.293,363.499 38.974,363.498 38.895 C 363.497 38.815,363.235 38.421,362.915 38.018 C 362.595 37.616,362.333 37.225,362.333 37.150 C 362.333 37.075,362.171 36.862,361.972 36.676 C 361.633 36.361,361.400 36.023,360.583 34.670 C 360.400 34.366,360.058 33.885,359.823 33.600 C 359.588 33.316,359.045 32.549,358.616 31.897 C 358.187 31.244,357.723 30.616,357.585 30.501 C 357.447 30.387,357.333 30.201,357.333 30.089 C 357.333 29.977,357.176 29.742,356.983 29.568 C 356.790 29.393,356.517 29.026,356.376 28.750 C 356.235 28.475,355.962 28.053,355.768 27.813 C 355.575 27.572,355.283 27.131,355.120 26.833 C 354.833 26.306,354.814 26.299,354.495 26.588 C 354.175 26.877,354.167 27.144,354.164 36.567 C 354.163 42.378,354.098 46.350,354.004 46.500 C 353.779 46.855,344.869 46.875,344.442 46.521 C 344.161 46.287,343.999 10.785,344.273 9.132 C 344.423 8.224,344.675 8.181,349.565 8.217 C 353.620 8.248,353.892 8.269,354.065 8.569 M72.933 8.461 C 73.033 8.528,73.170 8.808,73.237 9.083 C 73.304 9.358,73.540 9.944,73.761 10.386 C 73.983 10.827,74.282 11.594,74.426 12.091 C 74.570 12.587,74.758 13.037,74.842 13.089 C 74.927 13.141,75.114 13.611,75.259 14.133 C 75.404 14.656,75.705 15.431,75.928 15.856 C 76.151 16.281,76.333 16.753,76.333 16.905 C 76.333 17.056,76.551 17.646,76.816 18.215 C 77.082 18.784,77.381 19.550,77.481 19.917 C 77.581 20.283,77.851 20.952,78.081 21.403 C 78.312 21.854,78.500 22.366,78.500 22.540 C 78.500 22.715,78.680 23.171,78.900 23.554 C 79.121 23.937,79.353 24.512,79.416 24.833 C 79.480 25.154,79.667 25.651,79.832 25.938 C 79.996 26.224,80.252 26.876,80.400 27.385 C 80.549 27.895,80.849 28.673,81.067 29.114 C 81.286 29.556,81.519 30.179,81.586 30.500 C 81.653 30.821,81.837 31.271,81.995 31.500 C 82.153 31.729,82.373 32.283,82.483 32.731 C 82.593 33.179,82.867 33.891,83.092 34.313 C 83.316 34.735,83.500 35.197,83.500 35.338 C 83.500 35.480,83.652 35.893,83.838 36.256 C 84.024 36.620,84.318 37.374,84.491 37.932 C 84.665 38.490,84.962 39.203,85.152 39.515 C 85.343 39.828,85.499 40.235,85.499 40.421 C 85.500 40.607,85.723 41.207,85.995 41.754 C 86.267 42.302,86.492 42.889,86.495 43.059 C 86.498 43.229,86.685 43.736,86.911 44.186 C 87.137 44.636,87.435 45.385,87.573 45.850 C 87.711 46.315,87.967 46.933,88.142 47.223 C 88.316 47.513,88.512 48.050,88.575 48.417 C 88.639 48.783,88.863 49.383,89.072 49.750 C 89.281 50.117,89.506 50.642,89.571 50.917 C 89.635 51.192,89.908 51.886,90.178 52.459 C 90.447 53.032,90.667 53.633,90.667 53.793 C 90.667 53.954,90.852 54.434,91.079 54.860 C 91.306 55.286,91.563 55.923,91.651 56.276 C 91.739 56.628,91.946 57.271,92.111 57.703 C 92.582 58.940,92.674 58.917,87.385 58.917 C 83.469 58.917,82.767 58.880,82.651 58.667 C 82.155 57.753,81.500 56.205,81.500 55.947 C 81.500 55.778,81.278 55.134,81.008 54.518 C 80.737 53.901,80.438 53.050,80.343 52.628 C 80.249 52.206,80.029 51.610,79.854 51.305 C 79.680 51.000,79.485 50.454,79.421 50.093 C 79.358 49.731,79.137 49.093,78.931 48.676 C 78.725 48.258,78.456 47.482,78.333 46.951 C 78.210 46.419,78.050 45.947,77.977 45.902 C 77.903 45.857,77.685 45.279,77.491 44.618 C 77.297 43.957,76.958 43.028,76.736 42.552 C 76.515 42.076,76.333 41.530,76.333 41.338 C 76.333 41.146,76.152 40.631,75.930 40.194 C 75.709 39.756,75.474 39.102,75.409 38.741 C 75.343 38.379,75.143 37.783,74.964 37.417 C 74.785 37.050,74.496 36.251,74.323 35.641 C 74.150 35.031,73.865 34.281,73.690 33.974 C 73.515 33.668,73.324 33.095,73.266 32.701 C 73.208 32.307,73.073 31.845,72.966 31.674 C 72.542 30.995,71.167 32.766,71.167 33.990 C 71.167 34.136,71.015 34.537,70.830 34.883 C 70.645 35.228,70.394 35.940,70.271 36.464 C 70.149 36.989,69.894 37.721,69.705 38.092 C 69.516 38.462,69.307 39.062,69.241 39.424 C 69.175 39.787,68.944 40.420,68.727 40.832 C 68.511 41.244,68.333 41.714,68.333 41.877 C 68.333 42.040,68.071 42.846,67.750 43.667 C 67.429 44.488,67.167 45.293,67.167 45.456 C 67.167 45.619,66.985 46.093,66.764 46.509 C 66.542 46.925,66.308 47.562,66.243 47.925 C 66.178 48.287,65.951 48.958,65.739 49.417 C 65.528 49.875,65.261 50.625,65.148 51.083 C 65.035 51.542,64.776 52.254,64.574 52.667 C 64.372 53.079,64.154 53.713,64.090 54.074 C 64.025 54.436,63.791 55.089,63.570 55.527 C 63.348 55.964,63.167 56.466,63.167 56.641 C 63.167 57.132,62.741 58.038,62.272 58.543 L 61.849 59.000 57.550 58.995 C 52.334 58.988,52.552 59.067,52.919 57.321 C 53.061 56.649,53.292 55.971,53.433 55.815 C 53.575 55.659,53.803 55.093,53.941 54.557 C 54.079 54.022,54.293 53.426,54.417 53.233 C 54.541 53.040,54.842 52.328,55.085 51.650 C 55.329 50.971,55.712 49.908,55.937 49.286 C 56.161 48.664,56.492 47.914,56.672 47.619 C 56.852 47.325,56.999 46.931,56.999 46.746 C 57.000 46.560,57.223 45.960,57.495 45.412 C 57.767 44.865,57.992 44.259,57.995 44.066 C 57.998 43.874,58.185 43.368,58.412 42.941 C 58.639 42.515,58.947 41.745,59.097 41.229 C 59.246 40.714,59.504 40.057,59.668 39.771 C 59.833 39.484,60.020 38.987,60.084 38.667 C 60.147 38.346,60.368 37.783,60.573 37.417 C 60.779 37.050,61.049 36.375,61.172 35.917 C 61.296 35.458,61.528 34.858,61.688 34.583 C 61.848 34.308,62.069 33.708,62.179 33.250 C 62.290 32.792,62.475 32.304,62.591 32.167 C 62.706 32.029,62.920 31.511,63.066 31.016 C 63.211 30.521,63.477 29.867,63.657 29.563 C 63.836 29.258,64.033 28.726,64.094 28.380 C 64.154 28.033,64.371 27.450,64.576 27.083 C 64.780 26.717,65.049 26.042,65.174 25.583 C 65.298 25.125,65.572 24.450,65.781 24.083 C 65.991 23.717,66.164 23.265,66.165 23.079 C 66.166 22.893,66.389 22.293,66.661 21.746 C 66.934 21.198,67.159 20.611,67.161 20.441 C 67.164 20.271,67.352 19.764,67.577 19.314 C 67.803 18.864,68.103 18.110,68.243 17.639 C 68.383 17.168,68.637 16.546,68.807 16.257 C 68.978 15.967,69.172 15.435,69.239 15.074 C 69.306 14.712,69.507 14.179,69.685 13.889 C 69.864 13.599,70.126 12.962,70.269 12.473 C 70.412 11.984,70.628 11.427,70.751 11.235 C 70.873 11.043,71.060 10.556,71.167 10.152 C 71.411 9.223,71.752 8.689,72.218 8.502 C 72.682 8.315,72.712 8.313,72.933 8.461 M198.927 9.204 C 199.225 9.637,199.520 10.292,199.582 10.658 C 199.644 11.024,199.826 11.494,199.987 11.703 C 200.149 11.912,200.372 12.458,200.484 12.917 C 200.596 13.375,200.832 13.995,201.007 14.295 C 201.182 14.595,201.448 15.260,201.597 15.774 C 201.747 16.288,202.004 16.943,202.168 17.229 C 202.333 17.516,202.521 18.005,202.586 18.316 C 202.651 18.627,202.920 19.340,203.185 19.899 C 203.450 20.459,203.666 21.030,203.667 21.168 C 203.667 21.306,203.843 21.756,204.059 22.168 C 204.274 22.580,204.535 23.263,204.639 23.685 C 204.742 24.108,205.015 24.783,205.245 25.185 C 205.475 25.588,205.666 26.067,205.670 26.250 C 205.674 26.433,205.900 27.031,206.172 27.579 C 206.444 28.127,206.667 28.727,206.667 28.912 C 206.668 29.098,206.828 29.512,207.024 29.833 C 207.220 30.154,207.509 30.867,207.667 31.417 C 207.824 31.967,208.114 32.679,208.309 33.000 C 208.505 33.321,208.666 33.733,208.666 33.917 C 208.667 34.100,208.892 34.725,209.167 35.307 C 209.442 35.888,209.667 36.469,209.667 36.598 C 209.667 36.727,209.887 37.301,210.156 37.875 C 210.425 38.448,210.734 39.273,210.843 39.708 C 210.951 40.144,211.103 40.500,211.180 40.500 C 211.257 40.500,211.469 40.983,211.651 41.573 C 211.834 42.163,212.128 42.932,212.304 43.282 C 212.481 43.631,212.680 44.179,212.746 44.500 C 212.812 44.821,213.017 45.346,213.202 45.667 C 213.388 45.987,213.639 46.632,213.761 47.100 C 213.883 47.567,214.174 48.310,214.408 48.750 C 214.642 49.190,214.834 49.670,214.834 49.816 C 214.834 49.963,215.059 50.533,215.333 51.083 C 215.608 51.633,215.832 52.217,215.833 52.381 C 215.833 52.544,216.012 53.032,216.231 53.464 C 216.450 53.896,216.744 54.637,216.885 55.111 C 217.025 55.584,217.251 56.147,217.387 56.361 C 217.523 56.575,217.717 57.153,217.820 57.646 C 218.103 59.012,218.185 58.988,213.147 58.995 C 208.164 59.001,208.215 59.016,207.736 57.368 C 207.584 56.845,207.285 56.042,207.072 55.583 C 206.859 55.125,206.636 54.475,206.576 54.138 C 206.517 53.801,206.288 53.170,206.067 52.735 C 205.847 52.300,205.667 51.800,205.667 51.625 C 205.667 51.449,205.445 50.801,205.174 50.184 C 204.904 49.567,204.602 48.706,204.505 48.271 C 204.407 47.835,204.220 47.315,204.089 47.114 C 203.958 46.914,203.741 46.329,203.607 45.815 C 203.473 45.300,203.216 44.588,203.035 44.231 C 202.854 43.875,202.652 43.255,202.585 42.854 C 202.518 42.452,202.320 41.881,202.145 41.584 C 201.970 41.287,201.712 40.603,201.572 40.064 C 201.432 39.525,201.143 38.708,200.930 38.250 C 200.716 37.792,200.491 37.133,200.429 36.787 C 200.367 36.440,200.176 35.915,200.004 35.620 C 199.832 35.325,199.637 34.783,199.571 34.417 C 199.444 33.707,198.193 31.000,197.993 31.000 C 197.854 31.000,197.560 31.700,197.399 32.417 C 197.337 32.692,197.148 33.191,196.980 33.527 C 196.812 33.863,196.595 34.492,196.498 34.925 C 196.401 35.358,196.137 36.102,195.911 36.580 C 195.685 37.058,195.500 37.614,195.500 37.816 C 195.500 38.018,195.342 38.498,195.148 38.883 C 194.955 39.268,194.661 40.081,194.494 40.690 C 194.328 41.298,194.047 42.086,193.869 42.440 C 193.691 42.794,193.491 43.380,193.425 43.742 C 193.359 44.105,193.156 44.694,192.973 45.052 C 192.790 45.411,192.505 46.221,192.339 46.854 C 192.173 47.487,191.955 48.103,191.856 48.223 C 191.756 48.343,191.552 48.919,191.403 49.504 C 191.253 50.089,191.029 50.722,190.905 50.911 C 190.781 51.100,190.557 51.741,190.406 52.336 C 190.256 52.930,189.997 53.679,189.831 54.000 C 189.666 54.321,189.437 54.958,189.324 55.417 C 189.135 56.178,188.639 57.441,188.111 58.500 L 187.904 58.917 183.276 58.961 C 177.731 59.014,177.586 58.955,178.664 57.083 C 178.822 56.808,179.050 56.208,179.169 55.750 C 179.288 55.292,179.553 54.617,179.758 54.250 C 179.962 53.883,180.182 53.286,180.246 52.922 C 180.310 52.559,180.506 52.059,180.682 51.811 C 180.859 51.564,181.049 51.111,181.105 50.806 C 181.162 50.500,181.414 49.835,181.666 49.329 C 181.918 48.822,182.179 48.147,182.247 47.829 C 182.314 47.510,182.508 47.021,182.678 46.740 C 182.848 46.460,183.094 45.823,183.224 45.324 C 183.354 44.825,183.612 44.154,183.798 43.833 C 183.983 43.512,184.186 42.987,184.250 42.667 C 184.314 42.346,184.505 41.841,184.676 41.544 C 184.846 41.248,185.072 40.685,185.177 40.294 C 185.281 39.903,185.574 39.133,185.827 38.583 C 186.080 38.033,186.334 37.333,186.392 37.028 C 186.450 36.722,186.636 36.272,186.807 36.028 C 186.977 35.783,187.207 35.208,187.319 34.750 C 187.430 34.292,187.632 33.746,187.768 33.537 C 187.903 33.328,188.169 32.653,188.359 32.037 C 188.549 31.421,188.762 30.879,188.833 30.833 C 188.905 30.787,189.123 30.209,189.320 29.548 C 189.516 28.887,189.747 28.303,189.833 28.250 C 189.919 28.197,190.150 27.613,190.345 26.952 C 190.540 26.291,190.801 25.636,190.924 25.497 C 191.047 25.358,191.231 24.873,191.333 24.419 C 191.434 23.965,191.661 23.362,191.836 23.079 C 192.011 22.796,192.261 22.156,192.391 21.657 C 192.521 21.158,192.779 20.487,192.964 20.167 C 193.150 19.846,193.354 19.321,193.419 19.000 C 193.484 18.679,193.709 18.079,193.920 17.667 C 194.131 17.254,194.426 16.485,194.577 15.958 C 194.727 15.431,194.912 15.000,194.987 15.000 C 195.061 15.000,195.252 14.531,195.410 13.958 C 195.568 13.385,195.796 12.761,195.917 12.570 C 196.038 12.380,196.254 11.828,196.398 11.344 C 197.264 8.429,197.977 7.825,198.927 9.204 M315.500 17.325 C 314.370 17.395,313.702 17.527,313.167 17.786 C 312.754 17.986,311.985 18.268,311.458 18.413 C 310.931 18.557,310.500 18.737,310.500 18.812 C 310.500 18.886,310.223 19.091,309.884 19.265 C 309.151 19.643,308.678 20.008,307.685 20.958 C 307.278 21.348,306.887 21.667,306.817 21.667 C 306.747 21.667,306.647 21.798,306.596 21.958 C 306.544 22.119,306.239 22.545,305.918 22.905 C 305.596 23.266,305.333 23.654,305.333 23.767 C 305.333 23.881,305.151 24.191,304.927 24.457 C 304.704 24.722,304.469 25.159,304.404 25.428 C 304.339 25.697,304.107 26.275,303.888 26.713 C 303.513 27.462,303.044 29.304,302.647 31.583 C 302.417 32.908,302.569 36.742,302.883 37.500 C 303.015 37.821,303.220 38.608,303.337 39.250 C 303.454 39.892,303.726 40.678,303.942 40.997 C 304.157 41.316,304.333 41.742,304.333 41.943 C 304.333 42.143,304.510 42.520,304.727 42.779 C 304.943 43.038,305.254 43.512,305.418 43.833 C 305.582 44.154,305.873 44.592,306.066 44.806 C 307.112 45.968,307.973 46.833,308.085 46.833 C 308.155 46.833,308.386 47.021,308.598 47.250 C 308.810 47.479,309.051 47.667,309.134 47.667 C 309.216 47.667,309.613 47.891,310.017 48.166 C 310.420 48.441,311.050 48.747,311.417 48.846 C 311.783 48.945,312.496 49.220,313.000 49.457 C 314.412 50.120,320.420 50.121,321.833 49.457 C 322.337 49.221,323.087 48.934,323.500 48.819 C 323.912 48.704,324.400 48.485,324.583 48.333 C 324.767 48.180,325.254 47.863,325.667 47.628 C 327.034 46.848,328.702 45.066,329.672 43.347 C 329.813 43.098,330.092 42.685,330.293 42.430 C 330.494 42.175,330.708 41.697,330.770 41.368 C 330.832 41.038,331.017 40.540,331.182 40.260 C 331.868 39.093,332.449 34.468,332.176 32.350 C 331.739 28.968,331.593 28.215,331.237 27.503 C 331.031 27.089,330.809 26.468,330.745 26.123 C 330.681 25.778,330.561 25.454,330.477 25.403 C 330.394 25.351,330.101 24.865,329.827 24.321 C 329.553 23.778,329.260 23.333,329.175 23.333 C 329.091 23.333,328.975 23.185,328.918 23.004 C 328.732 22.417,325.530 19.333,325.106 19.333 C 324.985 19.333,324.748 19.181,324.580 18.996 C 324.412 18.810,323.744 18.498,323.095 18.303 C 322.447 18.107,321.757 17.844,321.563 17.718 C 321.003 17.356,318.072 17.166,315.500 17.325 M240.021 26.776 C 240.349 27.170,240.444 57.864,240.120 58.500 L 239.907 58.917 235.656 58.961 C 232.173 58.997,231.345 58.962,231.077 58.766 C 230.757 58.532,230.749 58.211,230.702 43.222 C 230.650 26.847,230.646 26.975,231.211 26.702 C 231.887 26.376,239.744 26.442,240.021 26.776 M318.989 29.513 C 321.709 30.097,323.024 34.716,321.070 36.830 C 317.268 40.943,310.700 36.869,313.162 31.925 C 314.333 29.573,316.017 28.876,318.989 29.513 " class="colorfbfbfb svgShape"/></svg></g></svg>