<?xml version="1.0" encoding="UTF-8"?>
<svg width="627px" height="641px" viewBox="0 0 627 641" version="1.1" xmlns="http://www.w3.org/2000/svg" xmlns:xlink="http://www.w3.org/1999/xlink">
    <title>logo-simple</title>
    <defs>
        <linearGradient x1="59.0512664%" y1="122.435588%" x2="59.0512664%" y2="0%" id="linearGradient-1">
            <stop stop-color="#E44E95" offset="0%"></stop>
            <stop stop-color="#610E78" offset="100%"></stop>
        </linearGradient>
        <linearGradient x1="87.0328503%" y1="36.4024086%" x2="13.3656751%" y2="66.0787883%" id="linearGradient-2">
            <stop stop-color="#E44E95" offset="0%"></stop>
            <stop stop-color="#610E78" offset="100%"></stop>
        </linearGradient>
        <linearGradient x1="38.1502481%" y1="116.817343%" x2="38.1502481%" y2="5.32884288%" id="linearGradient-3">
            <stop stop-color="#79418A" offset="0%"></stop>
            <stop stop-color="#E4467E" offset="100%"></stop>
        </linearGradient>
        <linearGradient x1="76.7389514%" y1="0%" x2="68.7514132%" y2="69.9079897%" id="linearGradient-4">
            <stop stop-color="#E40038" offset="0%"></stop>
            <stop stop-color="#E89289" offset="100%"></stop>
        </linearGradient>
        <linearGradient x1="0%" y1="50%" x2="63.1293036%" y2="45.4490764%" id="linearGradient-5">
            <stop stop-color="#E40038" offset="0%"></stop>
            <stop stop-color="#E89289" offset="100%"></stop>
        </linearGradient>
        <linearGradient x1="62.5077009%" y1="84.8324811%" x2="40.8872057%" y2="18.6171122%" id="linearGradient-6">
            <stop stop-color="#E40038" offset="0%"></stop>
            <stop stop-color="#E89289" offset="100%"></stop>
        </linearGradient>
    </defs>
    <g id="logo-simple" stroke="none" stroke-width="1" fill="none" fill-rule="evenodd">
        <g id="Logo" transform="translate(44.000000, 51.000000)">
            <g id="Group" transform="translate(158.760000, 185.760000)">
                <polygon id="Path-3" fill="url(#linearGradient-1)" transform="translate(26.930345, 211.838208) scale(-1, -1) translate(-26.930345, -211.838208) " points="53.8606894 242.857147 53.8606894 180.819268 0 211.145857"></polygon>
                <polygon id="Path-9" fill="url(#linearGradient-2)" transform="translate(130.140000, 245.061561) scale(-1, -1) translate(-130.140000, -245.061561) " points="0 247.265974 131.246541 169.363122 260.28 247.265974 130.14 320.76"></polygon>
                <polygon id="Path" fill="url(#linearGradient-3)" points="130.14 0 260.28 76.7961233 259.725086 244.11134 130.14 169.363122"></polygon>
            </g>
            <g id="Group" transform="translate(251.100000, 193.860000) scale(-1, -1) translate(-251.100000, -193.860000) translate(120.960000, 33.480000)">
                <polygon id="Path-3" fill="url(#linearGradient-4)" transform="translate(26.930345, 212.158719) scale(-1, -1) translate(-26.930345, -212.158719) " points="53.8606894 242.857147 53.8606894 181.460291 0 211.78688"></polygon>
                <polygon id="Path-9" fill="url(#linearGradient-5)" transform="translate(130.140000, 245.061561) scale(-1, -1) translate(-130.140000, -245.061561) " points="1.36424205e-12 247.265974 131.246541 169.363122 260.28 247.265974 130.14 320.76"></polygon>
                <polygon id="Path" fill="url(#linearGradient-6)" points="130.14 0 260.28 76.7961233 259.725086 244.11134 130.14 169.363122"></polygon>
            </g>
        </g>
    </g>
</svg>