<svg id="SvgjsSvg1012" xmlns="http://www.w3.org/2000/svg" version="1.1" xmlns:xlink="http://www.w3.org/1999/xlink" xmlns:svgjs="http://svgjs.com/svgjs" viewBox="0 110.87 288 66.25"><defs id="SvgjsDefs1013"/><g id="SvgjsG1014"><svg xmlns="http://www.w3.org/2000/svg" width="288" height="288" viewBox="0 0 400 92.025"><path fill="#79f8bb" fill-rule="evenodd" d="M37.911 17.336 C 37.266 17.404,36.366 17.611,35.911 17.796 C 35.456 17.981,34.573 18.251,33.948 18.396 C 33.324 18.540,32.636 18.798,32.419 18.969 C 32.202 19.139,31.663 19.412,31.221 19.576 C 30.778 19.739,30.154 20.077,29.833 20.326 C 29.512 20.575,29.088 20.865,28.890 20.971 C 28.692 21.076,28.290 21.380,27.997 21.647 C 27.704 21.913,27.341 22.241,27.191 22.375 C 26.494 22.994,24.727 25.088,24.370 25.717 C 24.152 26.102,23.877 26.529,23.758 26.667 C 23.640 26.804,23.389 27.329,23.200 27.833 C 23.011 28.337,22.711 29.050,22.533 29.417 C 22.356 29.783,22.159 30.571,22.097 31.167 C 22.035 31.762,21.871 33.022,21.734 33.965 C 21.473 35.759,21.471 35.728,22.080 39.646 C 22.213 40.505,22.437 41.384,22.578 41.599 C 22.719 41.814,22.985 42.372,23.169 42.839 C 23.819 44.490,27.260 48.286,28.822 49.078 C 29.274 49.306,29.690 49.569,29.747 49.661 C 29.923 49.947,33.146 51.482,33.799 51.591 C 34.139 51.648,35.066 51.913,35.860 52.180 C 36.855 52.516,37.633 52.667,38.364 52.667 C 42.905 52.667,46.380 54.613,47.767 57.933 C 48.036 58.576,48.091 61.936,47.846 62.789 C 47.608 63.619,45.392 66.156,44.898 66.164 C 44.796 66.165,44.442 66.351,44.111 66.576 C 43.779 66.801,42.975 67.095,42.322 67.230 C 40.381 67.632,40.500 67.254,40.500 73.014 C 40.500 79.022,40.319 78.584,42.742 78.456 C 43.827 78.399,44.710 78.253,45.250 78.041 C 45.708 77.861,46.646 77.582,47.333 77.421 C 48.021 77.260,48.846 76.952,49.168 76.736 C 49.489 76.521,50.014 76.258,50.334 76.152 C 50.655 76.046,51.179 75.758,51.500 75.512 C 51.821 75.267,52.357 74.900,52.692 74.696 C 53.451 74.235,56.291 71.283,56.547 70.689 C 56.651 70.448,56.946 70.004,57.202 69.703 C 57.457 69.401,57.667 69.037,57.667 68.893 C 57.667 68.748,57.887 68.207,58.156 67.690 C 58.908 66.243,59.792 61.242,59.607 59.473 C 59.355 57.061,58.645 53.743,58.254 53.147 C 58.036 52.816,57.771 52.222,57.665 51.828 C 57.559 51.434,57.235 50.815,56.944 50.453 C 55.868 49.112,54.088 47.075,53.781 46.833 C 53.607 46.696,53.228 46.387,52.940 46.148 C 52.652 45.909,52.192 45.598,51.917 45.457 C 51.642 45.316,51.015 44.931,50.525 44.600 C 50.034 44.270,49.516 44.000,49.373 44.000 C 49.230 44.000,48.806 43.821,48.431 43.602 C 48.057 43.383,47.112 43.075,46.333 42.918 C 45.554 42.760,44.665 42.528,44.358 42.401 C 44.051 42.274,42.926 42.090,41.858 41.992 C 37.835 41.625,37.671 41.590,36.417 40.835 C 35.090 40.037,34.656 39.628,33.763 38.333 L 33.130 37.417 33.201 35.143 C 33.260 33.235,33.324 32.796,33.594 32.417 C 33.772 32.168,34.067 31.720,34.250 31.421 C 34.727 30.643,35.644 29.809,36.414 29.454 C 36.779 29.286,37.191 29.051,37.330 28.932 C 38.226 28.165,43.133 28.163,44.006 28.929 C 44.147 29.053,44.600 29.304,45.014 29.486 C 46.301 30.056,47.557 31.758,47.875 33.363 C 48.218 35.095,48.462 35.167,54.022 35.167 L 58.473 35.167 58.846 34.563 C 59.377 33.704,59.091 30.470,58.346 28.917 C 58.082 28.367,57.785 27.612,57.685 27.239 C 57.585 26.867,57.319 26.388,57.094 26.177 C 56.868 25.965,56.637 25.578,56.580 25.318 C 56.473 24.830,52.878 21.000,52.527 21.000 C 52.427 21.000,52.099 20.784,51.797 20.520 C 51.496 20.256,50.754 19.815,50.148 19.541 C 49.541 19.266,48.997 18.963,48.938 18.868 C 48.879 18.773,48.250 18.569,47.540 18.415 C 46.831 18.261,45.927 17.991,45.532 17.815 C 44.282 17.258,40.750 17.036,37.911 17.336 M62.333 17.453 C 61.556 17.849,61.543 17.942,61.520 23.183 C 61.501 27.489,61.510 27.624,61.851 27.933 C 62.186 28.236,62.687 28.254,73.059 28.343 C 82.979 28.428,83.981 28.462,84.667 28.735 C 85.079 28.899,86.000 29.198,86.712 29.398 C 87.583 29.643,88.142 29.906,88.415 30.201 C 88.640 30.443,88.957 30.684,89.120 30.737 C 89.283 30.789,89.548 31.039,89.709 31.291 C 89.869 31.544,90.180 31.993,90.400 32.291 C 90.839 32.886,91.168 34.415,91.164 35.847 C 91.154 39.737,88.783 41.845,83.500 42.663 C 82.996 42.741,78.113 42.812,72.650 42.819 C 62.242 42.834,61.747 42.867,61.576 43.558 C 61.297 44.692,61.588 77.827,61.881 78.119 C 62.300 78.539,71.858 78.668,72.638 78.265 C 73.329 77.907,73.333 77.835,73.333 65.496 L 73.333 54.538 73.744 54.269 C 74.099 54.037,74.830 54.000,79.124 54.000 C 84.360 54.000,86.381 53.847,87.750 53.349 C 88.208 53.182,89.108 52.950,89.750 52.834 C 90.392 52.717,91.329 52.414,91.833 52.159 C 92.337 51.905,93.039 51.607,93.392 51.498 C 93.745 51.389,94.172 51.161,94.341 50.992 C 94.510 50.823,95.046 50.497,95.532 50.266 C 96.923 49.607,100.202 46.253,100.759 44.921 C 100.889 44.610,101.180 44.083,101.406 43.750 C 101.631 43.418,101.867 42.794,101.929 42.364 C 101.992 41.935,102.234 41.096,102.469 40.500 C 103.135 38.807,103.137 32.744,102.472 30.750 C 102.228 30.017,101.983 29.154,101.930 28.833 C 101.876 28.512,101.727 28.063,101.600 27.833 C 101.473 27.604,101.117 26.952,100.809 26.383 C 99.827 24.568,97.035 21.621,95.706 20.997 C 95.272 20.793,94.670 20.411,94.369 20.147 C 94.068 19.883,93.691 19.667,93.531 19.667 C 93.371 19.667,92.702 19.409,92.044 19.093 C 91.385 18.778,90.375 18.432,89.798 18.325 C 89.222 18.219,88.188 17.933,87.500 17.691 L 86.250 17.250 74.583 17.203 C 63.668 17.159,62.879 17.175,62.333 17.453 M105.549 17.462 C 104.845 18.014,104.842 18.150,104.837 47.783 C 104.833 77.616,104.836 77.750,105.551 78.250 C 106.158 78.675,133.338 78.622,133.724 78.195 C 134.196 77.674,134.135 68.324,133.655 67.651 L 133.311 67.167 125.259 67.167 C 117.976 67.167,117.186 67.140,116.979 66.891 C 116.592 66.426,116.551 53.571,116.935 53.146 C 117.207 52.846,117.685 52.833,128.924 52.833 C 140.198 52.833,140.644 52.822,141.023 52.515 C 141.437 52.180,141.716 45.465,141.417 43.040 C 141.237 41.578,142.057 41.667,128.708 41.667 C 119.876 41.667,117.018 41.618,116.867 41.467 C 116.501 41.101,116.588 28.846,116.958 28.565 C 117.191 28.389,118.865 28.343,125.266 28.339 C 132.849 28.334,133.302 28.317,133.641 28.022 C 134.213 27.526,134.203 17.828,133.630 17.426 C 133.032 17.007,106.085 17.042,105.549 17.462 M194.833 17.459 L 194.250 17.750 194.211 45.583 C 194.187 62.009,194.233 73.514,194.322 73.655 C 194.498 73.933,195.966 73.024,196.360 72.393 C 196.625 71.970,198.686 69.654,199.458 68.913 C 199.756 68.627,200.000 68.318,200.000 68.227 C 200.000 68.136,200.244 67.837,200.542 67.563 C 201.205 66.952,203.207 64.739,204.820 62.833 C 206.132 61.284,207.022 60.280,208.441 58.750 C 208.951 58.200,209.557 57.506,209.787 57.208 C 210.462 56.336,211.043 56.667,212.927 59.000 C 213.334 59.504,213.860 60.142,214.096 60.417 C 214.332 60.692,214.896 61.404,215.350 62.000 C 216.504 63.516,217.163 64.308,217.792 64.936 C 218.090 65.234,218.333 65.546,218.333 65.630 C 218.333 65.714,218.577 66.045,218.875 66.367 C 219.756 67.318,221.167 69.129,221.167 69.310 C 221.167 69.402,221.392 69.638,221.667 69.833 C 221.942 70.029,222.167 70.267,222.167 70.362 C 222.167 70.457,222.673 71.123,223.292 71.843 C 224.710 73.492,225.859 74.921,226.068 75.294 C 226.157 75.453,226.403 75.720,226.615 75.887 C 226.827 76.054,227.002 76.279,227.004 76.387 C 227.005 76.495,227.418 77.015,227.920 77.542 L 228.833 78.500 235.695 78.500 C 244.475 78.500,244.408 78.550,240.829 74.632 C 240.140 73.879,239.444 73.078,238.886 72.397 C 237.055 70.163,232.068 64.344,231.325 63.575 C 231.054 63.295,230.833 62.982,230.833 62.879 C 230.833 62.775,230.665 62.554,230.458 62.387 C 230.252 62.220,229.787 61.690,229.424 61.208 C 229.061 60.727,228.713 60.333,228.649 60.333 C 228.585 60.333,228.394 60.115,228.225 59.847 C 228.055 59.580,227.467 58.855,226.917 58.237 C 224.550 55.576,223.828 54.733,222.857 53.500 C 221.821 52.183,221.084 51.316,220.405 50.613 C 220.123 50.322,219.713 49.821,219.494 49.500 C 219.275 49.179,218.990 48.836,218.861 48.737 C 218.614 48.549,219.195 47.579,220.408 46.151 C 220.688 45.822,221.217 45.154,221.583 44.666 C 221.950 44.179,222.438 43.571,222.667 43.315 C 222.896 43.059,223.421 42.426,223.833 41.907 C 224.246 41.389,224.846 40.642,225.167 40.248 C 225.487 39.853,226.050 39.146,226.417 38.677 C 227.627 37.126,228.880 35.621,230.208 34.123 C 230.552 33.736,230.833 33.363,230.833 33.295 C 230.833 33.228,231.018 32.965,231.243 32.711 C 231.468 32.458,232.034 31.762,232.501 31.167 C 233.480 29.917,234.404 28.816,235.000 28.188 C 235.229 27.947,235.523 27.544,235.653 27.292 C 235.783 27.040,235.946 26.833,236.014 26.833 C 236.082 26.833,236.423 26.440,236.771 25.958 C 237.119 25.477,237.532 24.933,237.690 24.750 C 237.847 24.567,238.317 24.004,238.732 23.500 C 239.148 22.996,239.677 22.358,239.908 22.083 C 242.810 18.627,243.231 17.923,242.669 17.468 C 242.325 17.189,241.835 17.167,236.190 17.168 C 229.238 17.169,229.161 17.180,228.333 18.285 C 228.012 18.714,227.615 19.219,227.451 19.408 C 227.286 19.596,226.817 20.162,226.409 20.667 C 226.000 21.171,225.477 21.808,225.246 22.083 C 225.015 22.358,224.575 22.883,224.268 23.250 C 223.961 23.617,223.333 24.404,222.872 25.000 C 222.410 25.596,221.844 26.308,221.613 26.583 C 220.842 27.500,219.513 29.077,219.085 29.583 C 218.349 30.455,215.329 34.214,214.750 34.980 C 214.567 35.223,214.229 35.622,214.000 35.866 C 213.771 36.111,213.337 36.635,213.036 37.031 C 211.735 38.741,209.653 41.289,209.180 41.750 C 208.898 42.025,208.667 42.342,208.667 42.453 C 208.667 42.565,208.442 42.823,208.167 43.026 C 207.892 43.230,207.667 43.480,207.667 43.583 C 207.667 43.687,207.451 43.978,207.188 44.230 L 206.708 44.689 206.354 44.239 C 206.000 43.788,206.000 43.785,205.998 31.019 C 205.995 16.861,206.037 17.572,205.190 17.337 C 204.047 17.020,195.511 17.120,194.833 17.459 M246.399 17.405 C 245.635 17.738,245.671 16.212,245.669 48.049 L 245.667 77.682 246.076 78.091 L 246.485 78.500 260.467 78.500 C 273.800 78.500,274.461 78.486,274.724 78.195 C 275.196 77.674,275.135 68.324,274.655 67.651 L 274.311 67.167 266.280 67.164 C 261.515 67.163,258.148 67.097,258.000 67.004 C 257.589 66.744,257.535 53.342,257.943 53.043 C 258.168 52.879,260.784 52.833,269.949 52.833 C 281.444 52.833,281.673 52.827,282.000 52.500 C 282.532 51.968,282.516 42.550,281.983 42.067 C 281.646 41.763,281.165 41.748,269.866 41.701 C 261.768 41.667,258.032 41.596,257.883 41.472 C 257.476 41.134,257.577 28.726,257.989 28.506 C 258.198 28.394,261.110 28.333,266.293 28.333 L 274.275 28.333 274.638 27.948 C 275.181 27.369,275.207 18.040,274.667 17.500 C 274.236 17.070,247.377 16.979,246.399 17.405 M284.718 17.416 C 284.142 17.819,284.000 19.023,284.000 23.489 L 284.000 27.628 284.458 27.939 C 284.891 28.233,285.539 28.255,296.083 28.333 L 307.250 28.417 308.083 28.807 C 308.542 29.022,309.286 29.310,309.737 29.447 C 312.718 30.354,314.475 34.551,313.288 37.931 C 312.490 40.202,311.287 41.428,309.390 41.905 C 308.783 42.057,308.054 42.310,307.769 42.466 C 307.299 42.723,306.191 42.758,296.076 42.833 C 285.699 42.911,284.869 42.938,284.446 43.215 L 283.991 43.514 284.037 60.495 C 284.083 77.469,284.083 77.476,284.435 77.946 L 284.786 78.417 289.935 78.457 C 292.766 78.479,295.188 78.431,295.315 78.349 C 295.754 78.069,295.813 76.559,295.823 65.492 C 295.831 57.098,295.882 54.351,296.033 54.200 C 296.173 54.060,297.040 54.002,298.908 54.008 C 302.087 54.018,302.584 54.171,302.942 55.250 C 303.152 55.882,303.972 57.647,304.993 59.667 C 305.247 60.171,305.552 60.883,305.670 61.250 C 305.788 61.617,306.050 62.142,306.253 62.417 C 306.456 62.692,306.670 63.174,306.729 63.488 C 306.789 63.803,307.053 64.403,307.316 64.822 C 307.580 65.241,307.890 65.883,308.007 66.250 C 308.123 66.617,308.395 67.198,308.611 67.541 C 308.827 67.885,309.122 68.522,309.266 68.958 C 309.411 69.394,309.704 70.012,309.918 70.333 C 310.132 70.654,310.389 71.226,310.488 71.603 C 310.587 71.981,310.820 72.484,311.007 72.720 C 311.193 72.957,311.424 73.398,311.520 73.701 C 311.970 75.116,313.564 78.025,314.019 78.260 C 314.725 78.625,324.800 78.612,325.510 78.245 C 325.981 78.001,325.992 77.969,325.769 77.537 C 325.640 77.287,325.370 76.540,325.168 75.875 C 324.966 75.210,324.749 74.667,324.686 74.667 C 324.496 74.667,324.053 73.787,323.938 73.181 C 323.879 72.867,323.644 72.366,323.415 72.067 C 323.187 71.767,323.000 71.422,323.000 71.300 C 323.000 71.177,322.715 70.510,322.366 69.816 C 322.018 69.122,321.594 68.186,321.424 67.736 C 321.254 67.285,320.976 66.738,320.807 66.519 C 320.638 66.300,320.390 65.753,320.257 65.304 C 320.123 64.855,319.865 64.297,319.682 64.065 C 319.500 63.833,319.235 63.248,319.095 62.764 C 318.954 62.281,318.685 61.690,318.496 61.450 C 318.308 61.210,318.005 60.580,317.824 60.049 C 317.643 59.518,317.353 58.890,317.180 58.654 C 317.008 58.418,316.742 57.855,316.590 57.404 C 316.438 56.953,316.137 56.321,315.920 56.000 C 315.703 55.679,315.438 55.079,315.331 54.667 C 315.223 54.254,315.018 53.785,314.874 53.623 C 314.527 53.235,314.499 52.001,314.833 51.841 C 314.971 51.775,315.383 51.561,315.750 51.365 C 316.117 51.170,316.904 50.773,317.500 50.485 C 318.628 49.938,319.184 49.520,320.583 48.166 C 321.848 46.941,322.510 46.143,322.783 45.511 C 322.919 45.196,323.207 44.706,323.423 44.424 C 323.638 44.141,323.891 43.571,323.983 43.158 C 324.076 42.744,324.342 41.991,324.574 41.484 C 325.510 39.439,325.518 31.411,324.585 29.433 C 324.365 28.966,324.101 28.210,324.000 27.754 C 323.898 27.297,323.638 26.693,323.423 26.410 C 323.207 26.127,322.917 25.638,322.778 25.323 C 322.580 24.876,320.831 22.832,320.047 22.134 C 319.975 22.070,319.662 21.789,319.350 21.509 C 319.039 21.229,318.700 21.000,318.597 21.000 C 318.494 21.000,318.129 20.769,317.787 20.487 C 317.445 20.205,316.704 19.794,316.140 19.573 C 315.576 19.352,314.930 19.050,314.704 18.902 C 314.478 18.754,313.646 18.499,312.855 18.337 C 312.064 18.174,311.121 17.917,310.760 17.766 C 309.236 17.127,285.584 16.809,284.718 17.416 M344.574 17.336 C 343.927 17.404,343.102 17.609,342.741 17.792 C 342.379 17.974,341.606 18.205,341.023 18.306 C 340.440 18.407,339.615 18.696,339.190 18.949 C 338.765 19.201,338.042 19.564,337.583 19.754 C 337.125 19.944,336.533 20.302,336.267 20.550 C 336.002 20.797,335.690 21.000,335.574 21.000 C 335.458 21.000,335.174 21.225,334.942 21.500 C 334.711 21.775,334.464 22.000,334.393 22.000 C 334.140 22.000,331.642 24.764,331.306 25.417 C 331.117 25.783,330.790 26.312,330.581 26.592 C 330.371 26.872,330.104 27.435,329.988 27.842 C 329.871 28.250,329.681 28.696,329.566 28.834 C 328.717 29.847,328.133 35.286,328.575 38.063 C 328.708 38.899,328.861 39.923,328.913 40.339 C 328.966 40.754,329.172 41.354,329.372 41.672 C 329.571 41.990,329.866 42.615,330.028 43.061 C 330.190 43.507,330.426 43.957,330.553 44.061 C 330.680 44.165,330.898 44.421,331.037 44.631 C 331.456 45.263,332.534 46.485,333.397 47.308 C 333.845 47.734,334.370 48.238,334.564 48.426 C 334.758 48.615,335.194 48.898,335.534 49.055 C 335.873 49.213,336.252 49.442,336.374 49.565 C 336.844 50.034,340.015 51.520,340.862 51.668 C 341.351 51.753,342.260 52.012,342.883 52.245 C 343.644 52.528,344.354 52.667,345.049 52.668 C 351.801 52.676,356.153 57.156,354.654 62.555 C 354.342 63.679,352.365 65.997,351.500 66.253 C 351.271 66.321,350.896 66.509,350.667 66.670 C 350.187 67.006,349.116 67.331,348.481 67.332 C 348.241 67.333,347.842 67.493,347.593 67.689 L 347.141 68.044 347.195 72.997 C 347.240 77.068,347.294 78.002,347.497 78.246 C 347.852 78.674,350.921 78.531,352.042 78.035 C 352.466 77.848,353.248 77.606,353.781 77.498 C 354.833 77.283,358.167 75.757,358.384 75.391 C 358.458 75.266,358.825 75.008,359.200 74.816 C 360.060 74.377,362.808 71.617,363.250 70.747 C 363.433 70.387,363.715 69.977,363.877 69.838 C 364.039 69.698,364.314 69.208,364.488 68.750 C 364.663 68.292,364.992 67.467,365.219 66.917 C 366.630 63.498,366.519 56.301,365.005 53.083 C 364.747 52.533,364.413 51.821,364.264 51.500 C 363.392 49.626,360.383 46.444,358.451 45.354 C 358.066 45.137,357.538 44.781,357.279 44.563 C 357.020 44.345,356.713 44.167,356.597 44.167 C 356.481 44.167,355.943 43.948,355.402 43.682 C 354.860 43.415,353.839 43.080,353.132 42.937 C 352.425 42.794,351.589 42.569,351.273 42.437 C 350.755 42.221,349.487 42.057,345.876 41.739 C 345.128 41.673,344.419 41.497,344.012 41.275 C 343.650 41.078,342.990 40.717,342.546 40.473 C 341.809 40.069,340.709 38.847,340.160 37.822 C 339.627 36.825,339.860 32.983,340.503 32.167 C 340.684 31.938,340.949 31.539,341.092 31.280 C 341.453 30.632,342.302 29.863,343.000 29.554 C 343.321 29.412,343.772 29.161,344.003 28.997 C 345.032 28.266,349.136 28.111,350.367 28.756 C 350.669 28.914,351.254 29.214,351.667 29.423 C 353.006 30.101,354.351 31.862,354.590 33.250 C 354.899 35.052,355.266 35.167,360.739 35.167 L 365.104 35.167 365.438 34.708 C 365.952 34.003,365.979 33.831,365.814 32.237 C 365.626 30.426,365.359 29.167,365.090 28.833 C 364.867 28.556,364.577 27.814,364.434 27.153 C 364.383 26.916,364.114 26.437,363.837 26.088 C 363.560 25.739,363.333 25.386,363.333 25.303 C 363.333 24.893,360.302 21.653,359.333 21.028 C 359.104 20.881,358.654 20.556,358.333 20.307 C 358.012 20.057,357.319 19.694,356.792 19.498 C 356.265 19.303,355.833 19.085,355.833 19.015 C 355.833 18.808,355.113 18.539,353.977 18.321 C 353.394 18.209,352.634 17.977,352.289 17.804 C 351.212 17.266,347.417 17.036,344.574 17.336 M167.208 17.542 C 166.840 18.004,165.842 20.140,165.594 21.000 C 165.448 21.504,165.144 22.292,164.919 22.750 C 164.694 23.208,164.468 23.857,164.417 24.192 C 164.366 24.526,164.149 25.058,163.935 25.373 C 163.721 25.689,163.449 26.353,163.331 26.849 C 163.213 27.344,162.909 28.162,162.656 28.667 C 162.403 29.171,162.106 29.919,161.998 30.329 C 161.889 30.739,161.594 31.489,161.342 31.996 C 161.090 32.502,160.793 33.286,160.682 33.737 C 160.571 34.187,160.306 34.862,160.092 35.237 C 159.879 35.611,159.652 36.214,159.588 36.578 C 159.475 37.217,159.072 38.163,158.840 38.333 C 158.777 38.379,158.596 38.886,158.437 39.459 C 158.279 40.032,157.937 40.932,157.677 41.459 C 157.418 41.986,157.152 42.679,157.086 43.000 C 157.020 43.321,156.748 44.017,156.482 44.548 C 156.216 45.079,155.921 45.866,155.827 46.298 C 155.732 46.730,155.499 47.298,155.308 47.561 C 155.117 47.824,154.854 48.498,154.723 49.060 C 154.592 49.622,154.339 50.329,154.160 50.631 C 153.982 50.934,153.651 51.748,153.425 52.441 C 153.198 53.133,152.871 53.941,152.698 54.235 C 152.524 54.530,152.288 55.178,152.173 55.677 C 152.059 56.175,151.783 56.866,151.561 57.212 C 151.338 57.558,151.085 58.217,150.998 58.675 C 150.838 59.522,150.622 60.049,150.252 60.500 C 150.139 60.637,149.958 61.125,149.849 61.583 C 149.740 62.042,149.434 62.867,149.169 63.417 C 148.904 63.967,148.600 64.753,148.493 65.165 C 148.386 65.576,148.085 66.326,147.823 66.831 C 147.561 67.337,147.296 68.074,147.234 68.469 C 147.172 68.864,146.949 69.441,146.739 69.750 C 146.530 70.059,146.238 70.779,146.092 71.350 C 145.946 71.922,145.685 72.621,145.513 72.903 C 145.340 73.186,145.039 73.941,144.843 74.581 C 144.647 75.221,144.352 75.973,144.188 76.251 C 142.927 78.389,143.204 78.500,149.779 78.500 C 155.744 78.500,155.833 78.486,155.833 77.568 C 155.833 77.390,156.052 76.796,156.319 76.248 C 156.586 75.699,156.929 74.767,157.082 74.177 C 157.234 73.586,157.512 72.804,157.699 72.437 C 157.886 72.071,158.184 71.241,158.363 70.594 C 158.541 69.946,158.868 69.042,159.089 68.583 C 159.309 68.125,159.539 67.412,159.599 67.000 C 159.659 66.587,159.884 65.912,160.098 65.500 C 160.312 65.087,160.608 64.268,160.756 63.679 C 160.904 63.089,161.196 62.264,161.406 61.845 C 161.616 61.426,161.884 60.671,162.001 60.167 C 162.118 59.663,162.420 58.800,162.672 58.250 C 162.925 57.700,163.225 56.837,163.339 56.333 C 163.454 55.829,163.723 55.078,163.937 54.664 C 164.152 54.251,164.404 53.506,164.498 53.009 C 164.592 52.512,164.806 51.875,164.973 51.592 C 165.139 51.310,165.446 50.447,165.654 49.675 C 165.863 48.903,166.133 48.116,166.254 47.927 C 166.376 47.738,166.675 46.961,166.919 46.200 C 167.179 45.392,167.443 44.842,167.553 44.879 C 167.887 44.990,169.016 47.378,169.321 48.616 C 169.484 49.276,169.739 50.003,169.890 50.232 C 170.040 50.462,170.323 51.234,170.518 51.950 C 170.714 52.665,171.039 53.587,171.242 54.000 C 171.445 54.413,171.749 55.275,171.917 55.917 C 172.085 56.558,172.356 57.271,172.519 57.500 C 172.681 57.729,172.892 58.354,172.987 58.888 C 173.082 59.423,173.346 60.210,173.573 60.638 C 173.801 61.066,174.108 61.904,174.256 62.500 C 174.404 63.096,174.631 63.748,174.761 63.950 C 174.890 64.151,175.181 64.954,175.407 65.732 C 175.633 66.511,175.965 67.438,176.146 67.793 C 176.327 68.147,176.596 68.920,176.744 69.510 C 176.892 70.100,177.188 70.921,177.402 71.333 C 177.616 71.746,177.841 72.417,177.903 72.824 C 177.964 73.231,178.195 73.906,178.415 74.324 C 178.635 74.742,178.971 75.620,179.160 76.277 C 179.375 77.021,179.687 77.664,179.986 77.985 L 180.467 78.500 185.796 78.500 C 190.355 78.500,191.156 78.463,191.336 78.247 C 191.665 77.851,191.403 76.249,190.848 75.262 C 190.587 74.797,190.321 74.121,190.256 73.760 C 190.192 73.399,189.928 72.685,189.670 72.173 C 189.411 71.661,189.110 70.908,189.000 70.500 C 188.890 70.092,188.594 69.344,188.342 68.838 C 188.090 68.331,187.799 67.571,187.695 67.149 C 187.592 66.726,187.281 65.950,187.004 65.423 C 186.727 64.897,186.500 64.263,186.500 64.016 C 186.500 63.768,186.283 63.224,186.019 62.806 C 185.754 62.389,185.484 61.729,185.418 61.341 C 185.352 60.952,185.088 60.235,184.831 59.746 C 184.574 59.258,184.239 58.421,184.086 57.887 C 183.933 57.354,183.662 56.666,183.483 56.359 C 183.305 56.052,183.015 55.283,182.840 54.649 C 182.664 54.015,182.365 53.278,182.175 53.012 C 181.985 52.745,181.757 52.143,181.668 51.673 C 181.579 51.204,181.325 50.504,181.103 50.118 C 180.882 49.732,180.574 48.967,180.419 48.417 C 180.264 47.867,179.989 47.175,179.808 46.881 C 179.628 46.586,179.343 45.873,179.176 45.297 C 179.008 44.721,178.676 43.875,178.436 43.417 C 178.197 42.958,177.937 42.236,177.859 41.811 C 177.781 41.386,177.568 40.824,177.386 40.561 C 177.203 40.298,176.955 39.708,176.834 39.250 C 176.713 38.792,176.410 38.004,176.162 37.500 C 175.913 36.996,175.581 36.133,175.423 35.583 C 175.266 35.033,175.002 34.358,174.837 34.083 C 174.672 33.808,174.417 33.160,174.269 32.643 C 174.122 32.126,173.776 31.275,173.501 30.751 C 173.225 30.228,172.999 29.601,172.998 29.358 C 172.997 29.115,172.809 28.590,172.581 28.190 C 172.352 27.791,172.044 27.041,171.895 26.524 C 171.746 26.006,171.418 25.171,171.166 24.667 C 170.914 24.162,170.654 23.488,170.587 23.167 C 170.520 22.846,170.252 22.157,169.991 21.636 C 169.730 21.115,169.408 20.275,169.276 19.769 C 168.891 18.294,167.663 16.971,167.208 17.542 " class="color2f2f2f svgShape"/><path fill="#212121" fill-rule="evenodd" d="M0.000 46.000 L 0.000 92.000 200.000 92.000 L 400.000 92.000 400.000 46.000 L 400.000 0.000 200.000 0.000 L 0.000 0.000 0.000 46.000 M43.282 17.334 C 44.125 17.423,45.138 17.639,45.532 17.815 C 45.927 17.991,46.831 18.261,47.540 18.415 C 48.250 18.569,48.879 18.773,48.938 18.868 C 48.997 18.963,49.541 19.266,50.148 19.541 C 50.754 19.815,51.496 20.256,51.797 20.520 C 52.099 20.784,52.427 21.000,52.527 21.000 C 52.878 21.000,56.473 24.830,56.580 25.318 C 56.637 25.578,56.868 25.965,57.094 26.177 C 57.319 26.388,57.585 26.867,57.685 27.239 C 57.785 27.612,58.082 28.367,58.346 28.917 C 59.091 30.470,59.377 33.704,58.846 34.563 L 58.473 35.167 54.022 35.167 C 48.462 35.167,48.218 35.095,47.875 33.363 C 47.557 31.758,46.301 30.056,45.014 29.486 C 44.600 29.304,44.147 29.053,44.006 28.929 C 43.133 28.163,38.226 28.165,37.330 28.932 C 37.191 29.051,36.779 29.286,36.414 29.454 C 35.644 29.809,34.727 30.643,34.250 31.421 C 34.067 31.720,33.772 32.168,33.594 32.417 C 33.324 32.796,33.260 33.235,33.201 35.143 L 33.130 37.417 33.763 38.333 C 34.656 39.628,35.090 40.037,36.417 40.835 C 37.671 41.590,37.835 41.625,41.858 41.992 C 42.926 42.090,44.051 42.274,44.358 42.401 C 44.665 42.528,45.554 42.760,46.333 42.918 C 47.112 43.075,48.057 43.383,48.431 43.602 C 48.806 43.821,49.230 44.000,49.373 44.000 C 49.516 44.000,50.034 44.270,50.525 44.600 C 51.015 44.931,51.642 45.316,51.917 45.457 C 52.192 45.598,52.652 45.909,52.940 46.148 C 53.228 46.387,53.607 46.696,53.781 46.833 C 54.088 47.075,55.868 49.112,56.944 50.453 C 57.235 50.815,57.559 51.434,57.665 51.828 C 57.771 52.222,58.036 52.816,58.254 53.147 C 58.645 53.743,59.355 57.061,59.607 59.473 C 59.792 61.242,58.908 66.243,58.156 67.690 C 57.887 68.207,57.667 68.748,57.667 68.893 C 57.667 69.037,57.457 69.401,57.202 69.703 C 56.946 70.004,56.651 70.448,56.547 70.689 C 56.291 71.283,53.451 74.235,52.692 74.696 C 52.357 74.900,51.821 75.267,51.500 75.512 C 51.179 75.758,50.655 76.046,50.334 76.152 C 50.014 76.258,49.489 76.521,49.168 76.736 C 48.846 76.952,48.021 77.260,47.333 77.421 C 46.646 77.582,45.708 77.861,45.250 78.041 C 44.710 78.253,43.827 78.399,42.742 78.456 C 40.319 78.584,40.500 79.022,40.500 73.014 C 40.500 67.254,40.381 67.632,42.322 67.230 C 42.975 67.095,43.779 66.801,44.111 66.576 C 44.442 66.351,44.796 66.165,44.898 66.164 C 45.392 66.156,47.608 63.619,47.846 62.789 C 48.091 61.936,48.036 58.576,47.767 57.933 C 46.380 54.613,42.905 52.667,38.364 52.667 C 37.633 52.667,36.855 52.516,35.860 52.180 C 35.066 51.913,34.139 51.648,33.799 51.591 C 33.146 51.482,29.923 49.947,29.747 49.661 C 29.690 49.569,29.274 49.306,28.822 49.078 C 27.260 48.286,23.819 44.490,23.169 42.839 C 22.985 42.372,22.719 41.814,22.578 41.599 C 22.437 41.384,22.213 40.505,22.080 39.646 C 21.471 35.728,21.473 35.759,21.734 33.965 C 21.871 33.022,22.035 31.762,22.097 31.167 C 22.159 30.571,22.356 29.783,22.533 29.417 C 22.711 29.050,23.011 28.337,23.200 27.833 C 23.389 27.329,23.640 26.804,23.758 26.667 C 23.877 26.529,24.152 26.102,24.370 25.717 C 24.727 25.088,26.494 22.994,27.191 22.375 C 27.341 22.241,27.704 21.913,27.997 21.647 C 28.290 21.380,28.692 21.076,28.890 20.971 C 29.088 20.865,29.512 20.575,29.833 20.326 C 30.154 20.077,30.778 19.739,31.221 19.576 C 31.663 19.412,32.202 19.139,32.419 18.969 C 32.636 18.798,33.324 18.540,33.948 18.396 C 34.573 18.251,35.456 17.981,35.911 17.796 C 37.302 17.231,40.437 17.034,43.282 17.334 M87.500 17.691 C 88.188 17.933,89.222 18.219,89.798 18.325 C 90.375 18.432,91.385 18.778,92.044 19.093 C 92.702 19.409,93.371 19.667,93.531 19.667 C 93.691 19.667,94.068 19.883,94.369 20.147 C 94.670 20.411,95.272 20.793,95.706 20.997 C 97.035 21.621,99.827 24.568,100.809 26.383 C 101.117 26.952,101.473 27.604,101.600 27.833 C 101.727 28.063,101.876 28.512,101.930 28.833 C 101.983 29.154,102.228 30.017,102.472 30.750 C 103.137 32.744,103.135 38.807,102.469 40.500 C 102.234 41.096,101.992 41.935,101.929 42.364 C 101.867 42.794,101.631 43.418,101.406 43.750 C 101.180 44.083,100.889 44.610,100.759 44.921 C 100.202 46.253,96.923 49.607,95.532 50.266 C 95.046 50.497,94.510 50.823,94.341 50.992 C 94.172 51.161,93.745 51.389,93.392 51.498 C 93.039 51.607,92.337 51.905,91.833 52.159 C 91.329 52.414,90.392 52.717,89.750 52.834 C 89.108 52.950,88.208 53.182,87.750 53.349 C 86.381 53.847,84.360 54.000,79.124 54.000 C 74.830 54.000,74.099 54.037,73.744 54.269 L 73.333 54.538 73.333 65.496 C 73.333 77.835,73.329 77.907,72.638 78.265 C 71.858 78.668,62.300 78.539,61.881 78.119 C 61.588 77.827,61.297 44.692,61.576 43.558 C 61.747 42.867,62.242 42.834,72.650 42.819 C 78.113 42.812,82.996 42.741,83.500 42.663 C 88.783 41.845,91.154 39.737,91.164 35.847 C 91.168 34.415,90.839 32.886,90.400 32.291 C 90.180 31.993,89.869 31.544,89.709 31.291 C 89.548 31.039,89.283 30.789,89.120 30.737 C 88.957 30.684,88.640 30.443,88.415 30.201 C 88.142 29.906,87.583 29.643,86.712 29.398 C 86.000 29.198,85.079 28.899,84.667 28.735 C 83.981 28.462,82.979 28.428,73.059 28.343 C 62.687 28.254,62.186 28.236,61.851 27.933 C 61.495 27.610,61.328 19.755,61.645 18.250 C 61.882 17.125,61.561 17.151,74.583 17.203 L 86.250 17.250 87.500 17.691 M133.630 17.426 C 134.203 17.828,134.213 27.526,133.641 28.022 C 133.302 28.317,132.849 28.334,125.266 28.339 C 118.865 28.343,117.191 28.389,116.958 28.565 C 116.588 28.846,116.501 41.101,116.867 41.467 C 117.018 41.618,119.876 41.667,128.708 41.667 C 142.057 41.667,141.237 41.578,141.417 43.040 C 141.716 45.465,141.437 52.180,141.023 52.515 C 140.644 52.822,140.198 52.833,128.924 52.833 C 117.685 52.833,117.207 52.846,116.935 53.146 C 116.551 53.571,116.592 66.426,116.979 66.891 C 117.186 67.140,117.976 67.167,125.259 67.167 L 133.311 67.167 133.655 67.651 C 134.135 68.324,134.196 77.674,133.724 78.195 C 133.338 78.622,106.158 78.675,105.551 78.250 C 104.836 77.750,104.833 77.616,104.837 47.783 C 104.842 18.150,104.845 18.014,105.549 17.462 C 106.085 17.042,133.032 17.007,133.630 17.426 M205.190 17.337 C 206.037 17.572,205.995 16.861,205.998 31.019 C 206.000 43.785,206.000 43.788,206.354 44.239 L 206.708 44.689 207.188 44.230 C 207.451 43.978,207.667 43.687,207.667 43.583 C 207.667 43.480,207.892 43.230,208.167 43.026 C 208.442 42.823,208.667 42.565,208.667 42.453 C 208.667 42.342,208.898 42.025,209.180 41.750 C 209.653 41.289,211.735 38.741,213.036 37.031 C 213.337 36.635,213.771 36.111,214.000 35.866 C 214.229 35.622,214.567 35.223,214.750 34.980 C 215.329 34.214,218.349 30.455,219.085 29.583 C 219.513 29.077,220.842 27.500,221.613 26.583 C 221.844 26.308,222.410 25.596,222.872 25.000 C 223.333 24.404,223.961 23.617,224.268 23.250 C 224.575 22.883,225.015 22.358,225.246 22.083 C 225.477 21.808,226.000 21.171,226.409 20.667 C 226.817 20.162,227.286 19.596,227.451 19.408 C 227.615 19.219,228.012 18.714,228.333 18.285 C 229.161 17.180,229.238 17.169,236.190 17.168 C 241.835 17.167,242.325 17.189,242.669 17.468 C 243.231 17.923,242.810 18.627,239.908 22.083 C 239.677 22.358,239.148 22.996,238.732 23.500 C 238.317 24.004,237.847 24.567,237.690 24.750 C 237.532 24.933,237.119 25.477,236.771 25.958 C 236.423 26.440,236.082 26.833,236.014 26.833 C 235.946 26.833,235.783 27.040,235.653 27.292 C 235.523 27.544,235.229 27.947,235.000 28.188 C 234.404 28.816,233.480 29.917,232.501 31.167 C 232.034 31.762,231.468 32.458,231.243 32.711 C 231.018 32.965,230.833 33.228,230.833 33.295 C 230.833 33.363,230.552 33.736,230.208 34.123 C 228.880 35.621,227.627 37.126,226.417 38.677 C 226.050 39.146,225.487 39.853,225.167 40.248 C 224.846 40.642,224.246 41.389,223.833 41.907 C 223.421 42.426,222.896 43.059,222.667 43.315 C 222.438 43.571,221.950 44.179,221.583 44.666 C 221.217 45.154,220.688 45.822,220.408 46.151 C 219.195 47.579,218.614 48.549,218.861 48.737 C 218.990 48.836,219.275 49.179,219.494 49.500 C 219.713 49.821,220.123 50.322,220.405 50.613 C 221.084 51.316,221.821 52.183,222.857 53.500 C 223.828 54.733,224.550 55.576,226.917 58.237 C 227.467 58.855,228.055 59.580,228.225 59.847 C 228.394 60.115,228.585 60.333,228.649 60.333 C 228.713 60.333,229.061 60.727,229.424 61.208 C 229.787 61.690,230.252 62.220,230.458 62.387 C 230.665 62.554,230.833 62.775,230.833 62.879 C 230.833 62.982,231.054 63.295,231.325 63.575 C 231.902 64.172,234.962 67.720,237.584 70.833 C 238.009 71.337,238.595 72.041,238.886 72.397 C 239.444 73.078,240.140 73.879,240.829 74.632 C 244.408 78.550,244.475 78.500,235.695 78.500 L 228.833 78.500 227.920 77.542 C 227.418 77.015,227.005 76.495,227.004 76.387 C 227.002 76.279,226.827 76.054,226.615 75.887 C 226.403 75.720,226.157 75.453,226.068 75.294 C 225.859 74.921,224.710 73.492,223.292 71.843 C 222.673 71.123,222.167 70.457,222.167 70.362 C 222.167 70.267,221.942 70.029,221.667 69.833 C 221.392 69.638,221.167 69.402,221.167 69.310 C 221.167 69.129,219.756 67.318,218.875 66.367 C 218.577 66.045,218.333 65.714,218.333 65.630 C 218.333 65.546,218.090 65.234,217.792 64.936 C 217.163 64.308,216.504 63.516,215.350 62.000 C 214.896 61.404,214.332 60.692,214.096 60.417 C 213.860 60.142,213.334 59.504,212.927 59.000 C 211.043 56.667,210.462 56.336,209.787 57.208 C 209.557 57.506,208.951 58.200,208.441 58.750 C 207.022 60.280,206.132 61.284,204.820 62.833 C 203.207 64.739,201.205 66.952,200.542 67.563 C 200.244 67.837,200.000 68.136,200.000 68.227 C 200.000 68.318,199.756 68.627,199.458 68.913 C 198.686 69.654,196.625 71.970,196.360 72.393 C 195.966 73.024,194.498 73.933,194.322 73.655 C 194.233 73.514,194.187 62.009,194.211 45.583 L 194.250 17.750 194.833 17.459 C 195.511 17.120,204.047 17.020,205.190 17.337 M274.667 17.500 C 275.207 18.040,275.181 27.369,274.638 27.948 L 274.275 28.333 266.293 28.333 C 261.110 28.333,258.198 28.394,257.989 28.506 C 257.577 28.726,257.476 41.134,257.883 41.472 C 258.032 41.596,261.768 41.667,269.866 41.701 C 281.165 41.748,281.646 41.763,281.983 42.067 C 282.516 42.550,282.532 51.968,282.000 52.500 C 281.673 52.827,281.444 52.833,269.949 52.833 C 260.784 52.833,258.168 52.879,257.943 53.043 C 257.535 53.342,257.589 66.744,258.000 67.004 C 258.148 67.097,261.515 67.163,266.280 67.164 L 274.311 67.167 274.655 67.651 C 275.135 68.324,275.196 77.674,274.724 78.195 C 274.461 78.486,273.800 78.500,260.467 78.500 L 246.485 78.500 246.076 78.091 L 245.667 77.682 245.669 48.049 C 245.671 16.212,245.635 17.738,246.399 17.405 C 247.377 16.979,274.236 17.070,274.667 17.500 M308.594 17.332 C 309.424 17.419,310.399 17.615,310.760 17.766 C 311.121 17.917,312.064 18.174,312.855 18.337 C 313.646 18.499,314.478 18.754,314.704 18.902 C 314.930 19.050,315.576 19.352,316.140 19.573 C 316.704 19.794,317.445 20.205,317.787 20.487 C 318.129 20.769,318.494 21.000,318.597 21.000 C 318.700 21.000,319.039 21.229,319.350 21.509 C 319.662 21.789,319.975 22.070,320.047 22.134 C 320.831 22.832,322.580 24.876,322.778 25.323 C 322.917 25.638,323.207 26.127,323.423 26.410 C 323.638 26.693,323.898 27.297,324.000 27.754 C 324.101 28.210,324.365 28.966,324.585 29.433 C 325.518 31.411,325.510 39.439,324.574 41.484 C 324.342 41.991,324.076 42.744,323.983 43.158 C 323.891 43.571,323.638 44.141,323.423 44.424 C 323.207 44.706,322.919 45.196,322.783 45.511 C 322.510 46.143,321.848 46.941,320.583 48.166 C 319.184 49.520,318.628 49.938,317.500 50.485 C 316.904 50.773,316.117 51.170,315.750 51.365 C 315.383 51.561,314.971 51.775,314.833 51.841 C 314.499 52.001,314.527 53.235,314.874 53.623 C 315.018 53.785,315.223 54.254,315.331 54.667 C 315.438 55.079,315.703 55.679,315.920 56.000 C 316.137 56.321,316.438 56.953,316.590 57.404 C 316.742 57.855,317.008 58.418,317.180 58.654 C 317.353 58.890,317.643 59.518,317.824 60.049 C 318.005 60.580,318.308 61.210,318.496 61.450 C 318.685 61.690,318.954 62.281,319.095 62.764 C 319.235 63.248,319.500 63.833,319.682 64.065 C 319.865 64.297,320.123 64.855,320.257 65.304 C 320.390 65.753,320.638 66.300,320.807 66.519 C 320.976 66.738,321.254 67.285,321.424 67.736 C 321.594 68.186,322.018 69.122,322.366 69.816 C 322.715 70.510,323.000 71.177,323.000 71.300 C 323.000 71.422,323.187 71.767,323.415 72.067 C 323.644 72.366,323.879 72.867,323.938 73.181 C 324.053 73.787,324.496 74.667,324.686 74.667 C 324.749 74.667,324.966 75.210,325.168 75.875 C 325.370 76.540,325.640 77.287,325.769 77.537 C 325.992 77.969,325.981 78.001,325.510 78.245 C 324.800 78.612,314.725 78.625,314.019 78.260 C 313.564 78.025,311.970 75.116,311.520 73.701 C 311.424 73.398,311.193 72.957,311.007 72.720 C 310.820 72.484,310.587 71.981,310.488 71.603 C 310.389 71.226,310.132 70.654,309.918 70.333 C 309.704 70.012,309.411 69.394,309.266 68.958 C 309.122 68.522,308.827 67.885,308.611 67.541 C 308.395 67.198,308.123 66.617,308.007 66.250 C 307.890 65.883,307.580 65.241,307.316 64.822 C 307.053 64.403,306.789 63.803,306.729 63.488 C 306.670 63.174,306.456 62.692,306.253 62.417 C 306.050 62.142,305.788 61.617,305.670 61.250 C 305.552 60.883,305.247 60.171,304.993 59.667 C 303.972 57.647,303.152 55.882,302.942 55.250 C 302.584 54.171,302.087 54.018,298.908 54.008 C 297.040 54.002,296.173 54.060,296.033 54.200 C 295.882 54.351,295.831 57.098,295.823 65.492 C 295.813 76.559,295.754 78.069,295.315 78.349 C 295.188 78.431,292.766 78.479,289.935 78.457 L 284.786 78.417 284.435 77.946 C 284.083 77.476,284.083 77.469,284.037 60.495 L 283.991 43.514 284.446 43.215 C 284.869 42.938,285.699 42.911,296.076 42.833 C 306.191 42.758,307.299 42.723,307.769 42.466 C 308.054 42.310,308.783 42.057,309.390 41.905 C 314.835 40.537,315.098 31.078,309.737 29.447 C 309.286 29.310,308.542 29.022,308.083 28.807 L 307.250 28.417 296.083 28.333 C 285.539 28.255,284.891 28.233,284.458 27.939 L 284.000 27.628 284.000 23.489 C 284.000 19.023,284.142 17.819,284.718 17.416 C 285.140 17.120,305.891 17.047,308.594 17.332 M350.039 17.333 C 351.005 17.427,351.916 17.618,352.289 17.804 C 352.634 17.977,353.394 18.209,353.977 18.321 C 355.113 18.539,355.833 18.808,355.833 19.015 C 355.833 19.085,356.265 19.303,356.792 19.498 C 357.319 19.694,358.012 20.057,358.333 20.307 C 358.654 20.556,359.104 20.881,359.333 21.028 C 360.302 21.653,363.333 24.893,363.333 25.303 C 363.333 25.386,363.560 25.739,363.837 26.088 C 364.114 26.437,364.383 26.916,364.434 27.153 C 364.577 27.814,364.867 28.556,365.090 28.833 C 365.359 29.167,365.626 30.426,365.814 32.237 C 365.979 33.831,365.952 34.003,365.438 34.708 L 365.104 35.167 360.739 35.167 C 355.266 35.167,354.899 35.052,354.590 33.250 C 354.351 31.862,353.006 30.101,351.667 29.423 C 351.254 29.214,350.669 28.914,350.367 28.756 C 349.136 28.111,345.032 28.266,344.003 28.997 C 343.772 29.161,343.321 29.412,343.000 29.554 C 342.302 29.863,341.453 30.632,341.092 31.280 C 340.949 31.539,340.684 31.938,340.503 32.167 C 339.860 32.983,339.627 36.825,340.160 37.822 C 340.709 38.847,341.809 40.069,342.546 40.473 C 342.990 40.717,343.650 41.078,344.012 41.275 C 344.419 41.497,345.128 41.673,345.876 41.739 C 349.487 42.057,350.755 42.221,351.273 42.437 C 351.589 42.569,352.425 42.794,353.132 42.937 C 353.839 43.080,354.860 43.415,355.402 43.682 C 355.943 43.948,356.481 44.167,356.597 44.167 C 356.713 44.167,357.020 44.345,357.279 44.563 C 357.538 44.781,358.066 45.137,358.451 45.354 C 360.383 46.444,363.392 49.626,364.264 51.500 C 364.413 51.821,364.747 52.533,365.005 53.083 C 366.519 56.301,366.630 63.498,365.219 66.917 C 364.992 67.467,364.663 68.292,364.488 68.750 C 364.314 69.208,364.039 69.698,363.877 69.838 C 363.715 69.977,363.433 70.387,363.250 70.747 C 362.808 71.617,360.060 74.377,359.200 74.816 C 358.825 75.008,358.458 75.266,358.384 75.391 C 358.167 75.757,354.833 77.283,353.781 77.498 C 353.248 77.606,352.466 77.848,352.042 78.035 C 350.921 78.531,347.852 78.674,347.497 78.246 C 347.294 78.002,347.240 77.068,347.195 72.997 L 347.141 68.044 347.593 67.689 C 347.842 67.493,348.241 67.333,348.481 67.332 C 349.116 67.331,350.187 67.006,350.667 66.670 C 350.896 66.509,351.271 66.321,351.500 66.253 C 352.365 65.997,354.342 63.679,354.654 62.555 C 356.153 57.156,351.801 52.676,345.049 52.668 C 344.354 52.667,343.644 52.528,342.883 52.245 C 342.260 52.012,341.351 51.753,340.862 51.668 C 340.015 51.520,336.844 50.034,336.374 49.565 C 336.252 49.442,335.873 49.213,335.534 49.055 C 335.194 48.898,334.758 48.615,334.564 48.426 C 334.370 48.238,333.845 47.734,333.397 47.308 C 332.534 46.485,331.456 45.263,331.037 44.631 C 330.898 44.421,330.680 44.165,330.553 44.061 C 330.426 43.957,330.190 43.507,330.028 43.061 C 329.866 42.615,329.571 41.990,329.372 41.672 C 329.172 41.354,328.966 40.754,328.913 40.339 C 328.861 39.923,328.708 38.899,328.575 38.063 C 328.133 35.286,328.717 29.847,329.566 28.834 C 329.681 28.696,329.871 28.250,329.988 27.842 C 330.104 27.435,330.371 26.872,330.581 26.592 C 330.790 26.312,331.117 25.783,331.306 25.417 C 331.642 24.764,334.140 22.000,334.393 22.000 C 334.464 22.000,334.711 21.775,334.942 21.500 C 335.174 21.225,335.458 21.000,335.574 21.000 C 335.690 21.000,336.002 20.797,336.267 20.550 C 336.533 20.302,337.125 19.944,337.583 19.754 C 338.042 19.564,338.765 19.201,339.190 18.949 C 339.615 18.696,340.440 18.407,341.023 18.306 C 341.606 18.205,342.379 17.974,342.741 17.792 C 343.841 17.237,347.008 17.038,350.039 17.333 M168.415 18.092 C 168.793 18.553,169.130 19.210,169.276 19.769 C 169.408 20.275,169.730 21.115,169.991 21.636 C 170.252 22.157,170.520 22.846,170.587 23.167 C 170.654 23.488,170.914 24.162,171.166 24.667 C 171.418 25.171,171.746 26.006,171.895 26.524 C 172.044 27.041,172.352 27.791,172.581 28.190 C 172.809 28.590,172.997 29.115,172.998 29.358 C 172.999 29.601,173.225 30.228,173.501 30.751 C 173.776 31.275,174.122 32.126,174.269 32.643 C 174.417 33.160,174.672 33.808,174.837 34.083 C 175.002 34.358,175.266 35.033,175.423 35.583 C 175.581 36.133,175.913 36.996,176.162 37.500 C 176.410 38.004,176.713 38.792,176.834 39.250 C 176.955 39.708,177.203 40.298,177.386 40.561 C 177.568 40.824,177.781 41.386,177.859 41.811 C 177.937 42.236,178.197 42.958,178.436 43.417 C 178.676 43.875,179.008 44.721,179.176 45.297 C 179.343 45.873,179.628 46.586,179.808 46.881 C 179.989 47.175,180.264 47.867,180.419 48.417 C 180.574 48.967,180.882 49.732,181.103 50.118 C 181.325 50.504,181.579 51.204,181.668 51.673 C 181.757 52.143,181.985 52.745,182.175 53.012 C 182.365 53.278,182.664 54.015,182.840 54.649 C 183.015 55.283,183.305 56.052,183.483 56.359 C 183.662 56.666,183.933 57.354,184.086 57.887 C 184.239 58.421,184.574 59.258,184.831 59.746 C 185.088 60.235,185.352 60.952,185.418 61.341 C 185.484 61.729,185.754 62.389,186.019 62.806 C 186.283 63.224,186.500 63.768,186.500 64.016 C 186.500 64.263,186.727 64.897,187.004 65.423 C 187.281 65.950,187.592 66.726,187.695 67.149 C 187.799 67.571,188.090 68.331,188.342 68.838 C 188.594 69.344,188.890 70.092,189.000 70.500 C 189.110 70.908,189.411 71.661,189.670 72.173 C 189.928 72.685,190.192 73.399,190.256 73.760 C 190.321 74.121,190.587 74.797,190.848 75.262 C 191.403 76.249,191.665 77.851,191.336 78.247 C 191.156 78.463,190.355 78.500,185.796 78.500 L 180.467 78.500 179.986 77.985 C 179.687 77.664,179.375 77.021,179.160 76.277 C 178.971 75.620,178.635 74.742,178.415 74.324 C 178.195 73.906,177.964 73.231,177.903 72.824 C 177.841 72.417,177.616 71.746,177.402 71.333 C 177.188 70.921,176.892 70.100,176.744 69.510 C 176.596 68.920,176.327 68.147,176.146 67.793 C 175.965 67.438,175.633 66.511,175.407 65.732 C 175.181 64.954,174.890 64.151,174.761 63.950 C 174.631 63.748,174.404 63.096,174.256 62.500 C 174.108 61.904,173.801 61.066,173.573 60.638 C 173.346 60.210,173.082 59.423,172.987 58.888 C 172.892 58.354,172.681 57.729,172.519 57.500 C 172.356 57.271,172.085 56.558,171.917 55.917 C 171.749 55.275,171.445 54.413,171.242 54.000 C 171.039 53.587,170.714 52.665,170.518 51.950 C 170.323 51.234,170.040 50.462,169.890 50.232 C 169.739 50.003,169.484 49.276,169.321 48.616 C 169.016 47.378,167.887 44.990,167.553 44.879 C 167.443 44.842,167.179 45.392,166.919 46.200 C 166.675 46.961,166.376 47.738,166.254 47.927 C 166.133 48.116,165.863 48.903,165.654 49.675 C 165.446 50.447,165.139 51.310,164.973 51.592 C 164.806 51.875,164.592 52.512,164.498 53.009 C 164.404 53.506,164.152 54.251,163.937 54.664 C 163.723 55.078,163.454 55.829,163.339 56.333 C 163.225 56.837,162.925 57.700,162.672 58.250 C 162.420 58.800,162.118 59.663,162.001 60.167 C 161.884 60.671,161.616 61.426,161.406 61.845 C 161.196 62.264,160.904 63.089,160.756 63.679 C 160.608 64.268,160.312 65.087,160.098 65.500 C 159.884 65.912,159.659 66.587,159.599 67.000 C 159.539 67.412,159.309 68.125,159.089 68.583 C 158.868 69.042,158.541 69.946,158.363 70.594 C 158.184 71.241,157.886 72.071,157.699 72.437 C 157.512 72.804,157.234 73.586,157.082 74.177 C 156.929 74.767,156.586 75.699,156.319 76.248 C 156.052 76.796,155.833 77.390,155.833 77.568 C 155.833 78.486,155.744 78.500,149.779 78.500 C 143.204 78.500,142.927 78.389,144.188 76.251 C 144.352 75.973,144.647 75.221,144.843 74.581 C 145.039 73.941,145.340 73.186,145.513 72.903 C 145.685 72.621,145.946 71.922,146.092 71.350 C 146.238 70.779,146.530 70.059,146.739 69.750 C 146.949 69.441,147.172 68.864,147.234 68.469 C 147.296 68.074,147.561 67.337,147.823 66.831 C 148.085 66.326,148.386 65.576,148.493 65.165 C 148.600 64.753,148.904 63.967,149.169 63.417 C 149.434 62.867,149.740 62.042,149.849 61.583 C 149.958 61.125,150.139 60.637,150.252 60.500 C 150.622 60.049,150.838 59.522,150.998 58.675 C 151.085 58.217,151.338 57.558,151.561 57.212 C 151.783 56.866,152.059 56.175,152.173 55.677 C 152.288 55.178,152.524 54.530,152.698 54.235 C 152.871 53.941,153.198 53.133,153.425 52.441 C 153.651 51.748,153.982 50.934,154.160 50.631 C 154.339 50.329,154.592 49.622,154.723 49.060 C 154.854 48.498,155.117 47.824,155.308 47.561 C 155.499 47.298,155.732 46.730,155.827 46.298 C 155.921 45.866,156.216 45.079,156.482 44.548 C 156.748 44.017,157.020 43.321,157.086 43.000 C 157.152 42.679,157.418 41.986,157.677 41.459 C 157.937 40.932,158.279 40.032,158.437 39.459 C 158.596 38.886,158.777 38.379,158.840 38.333 C 159.072 38.163,159.475 37.217,159.588 36.578 C 159.652 36.214,159.879 35.611,160.092 35.237 C 160.306 34.862,160.571 34.187,160.682 33.737 C 160.793 33.286,161.090 32.502,161.342 31.996 C 161.594 31.489,161.889 30.739,161.998 30.329 C 162.106 29.919,162.403 29.171,162.656 28.667 C 162.909 28.162,163.213 27.344,163.331 26.849 C 163.449 26.353,163.721 25.689,163.935 25.373 C 164.149 25.058,164.366 24.526,164.417 24.192 C 164.468 23.857,164.694 23.208,164.919 22.750 C 165.144 22.292,165.448 21.504,165.594 21.000 C 165.842 20.140,166.840 18.004,167.208 17.542 C 167.495 17.182,167.773 17.309,168.415 18.092 " class="colorfbfbfb svgShape"/></svg></g></svg>