

<svg id="Layer_1" data-name="Layer 1" xmlns="http://www.w3.org/2000/svg" viewBox="0 0 2000 2000"><defs><style>.cls-1{fill:#aaa;}</style></defs><path d="M1853.09,639.45A927.94,927.94,0,1,0,1926,1000,922.51,922.51,0,0,0,1853.09,639.45ZM1000,1576c-318.12,0-576-257.88-576-576s257.88-576,576-576,576,257.88,576,576S1318.12,1576,1000,1576Z"/><path class="cls-1" d="M689.51,257.71l-9.93-30.23L799.69,188l9.92,30.23-41.56,13.65,35.46,108-37,12.15-35.46-108Z"/><path class="cls-1" d="M877.83,174.93,902.38,318.3,863.46,325,838.9,181.6Z"/><path class="cls-1" d="M917.6,199.8,916.85,168l126.39-3,.75,31.81-43.74,1,2.67,113.6-38.91.92-2.67-113.61Z"/><path class="cls-1" d="M1062.35,312.85l22.93-143.64,39,6.23-17.92,112.22,58.07,9.27-5,31.42Z"/><path class="cls-1" d="M1176.28,332.38,1224.06,195l99,34.44-10.45,30.05L1250.9,238l-8.21,23.61,56.62,19.69-10.46,30.05-56.61-19.69L1224,315.29l61.45,21.37L1275,366.72Z"/><path class="cls-1" d="M604,1618.09q3.54-6.19,1.88-12.14t-9.58-11.35a28.8,28.8,0,0,0-9.06-4.43,12.21,12.21,0,0,0-6.94,0,9.55,9.55,0,0,0-4.79,3.61,8.85,8.85,0,0,0-1.87,4.44,10.64,10.64,0,0,0,.78,5.09,26.54,26.54,0,0,0,3.4,6,66.37,66.37,0,0,0,6,7l8.41,8.84a89.48,89.48,0,0,1,13.27,17.22,49.56,49.56,0,0,1,6.06,16,35.91,35.91,0,0,1-.49,15,44.93,44.93,0,0,1-6.45,14.17q-8.14,11.8-19.62,16t-25.27,1.06q-13.81-3.15-29.06-13.56-15.66-10.7-24.14-23.27a45.86,45.86,0,0,1-8.31-26.62q.17-14,10.39-29.15l31,21.14a22.34,22.34,0,0,0-3.57,11.15,18.62,18.62,0,0,0,3.07,10.44,32.66,32.66,0,0,0,9.38,9.24,30.92,30.92,0,0,0,9.62,4.68,14.41,14.41,0,0,0,7.79.07,10.32,10.32,0,0,0,5.44-3.94,9.24,9.24,0,0,0,1.51-6.06,17.81,17.81,0,0,0-3.1-7.62,73.79,73.79,0,0,0-8.47-10.39l-10.2-10.75q-13.61-14.35-17.23-28.74t6-28.43a40.06,40.06,0,0,1,19.81-15.85q12.06-4.36,26.34-1.67t28.53,12.43q14.55,9.93,21.84,22.05a46,46,0,0,1,7.05,24.89q-.26,12.76-8.24,24.6Z"/><path class="cls-1" d="M618.61,1743.59,676.25,1610l57.64,24.88q14.86,6.42,23.49,17.1a46.39,46.39,0,0,1,10.22,24q1.62,13.3-4.52,27.52T746,1725.62a46,46,0,0,1-24.78,8.49q-13.9.73-29.16-5.85l-34.43-14.86,12.16-28.17,27.13,11.71a26.42,26.42,0,0,0,11.89,2.46,17.64,17.64,0,0,0,9.75-3.41,20.93,20.93,0,0,0,6.7-8.79,20.5,20.5,0,0,0,1.79-10.87,17.5,17.5,0,0,0-4.28-9.27,27.2,27.2,0,0,0-10-6.9L700,1654.64l-45.14,104.6Z"/><path class="cls-1" d="M920.11,1760.29q-4.75,23.82-17.28,38.3a63,63,0,0,1-30,19.73,74.81,74.81,0,0,1-36.77,1.38q-19.5-3.9-33.52-15.5a63.46,63.46,0,0,1-20-29.77q-6-18.18-1.23-41.86t17.25-38.31a62.89,62.89,0,0,1,29.87-19.74,79.33,79.33,0,0,1,70.31,14,63.13,63.13,0,0,1,20.06,29.72Q924.87,1736.47,920.11,1760.29Zm-39.83-8q2.55-12.81.94-22.3t-7.29-15.36q-5.67-5.88-15.28-7.8t-17.1,1.33q-7.5,3.24-12.63,11.38t-7.7,21q-2.57,12.81-1,22.3t7.29,15.36q5.67,5.88,15.28,7.8t17.11-1.33q7.49-3.24,12.63-11.38T880.28,1752.33Z"/><path class="cls-1" d="M1077,1686.82l3.16,145.42-32.94.72L993,1757.7l-.85,0,1.66,76.4-39.48.86-3.16-145.42,33.51-.73,53.35,75,1.14,0-1.66-76.12Z"/><path class="cls-1" d="M1181.85,1711.23q-2.1-6.8-7.58-9.65t-14.84-.76a28.87,28.87,0,0,0-9.42,3.6,12.25,12.25,0,0,0-4.71,5.1,9.64,9.64,0,0,0-.63,6,8.92,8.92,0,0,0,2,4.4,10.8,10.8,0,0,0,4.26,2.91,27,27,0,0,0,6.69,1.59,65.13,65.13,0,0,0,9.26.4l12.2-.11a90.16,90.16,0,0,1,21.64,2.07,49.65,49.65,0,0,1,15.87,6.53,35.88,35.88,0,0,1,10.64,10.61,45.15,45.15,0,0,1,6,14.39q3.06,14-1.69,25.27T1215,1802.73q-11.71,7.93-29.74,12-18.51,4.14-33.49,1.75a45.83,45.83,0,0,1-25.12-12.1q-10.14-9.7-14.2-27.5l36.59-8.19a22.32,22.32,0,0,0,5.71,10.22,18.59,18.59,0,0,0,9.72,4.89,32.59,32.59,0,0,0,13.16-.55,31,31,0,0,0,10-3.84,14.24,14.24,0,0,0,5.36-5.64,10.27,10.27,0,0,0,.83-6.66,9.23,9.23,0,0,0-3.39-5.25,17.94,17.94,0,0,0-7.68-2.93,73.86,73.86,0,0,0-13.38-.9l-14.82.11q-19.77.14-32.76-7t-16.65-23.82A40.07,40.07,0,0,1,1107,1702q5-11.78,16.76-20.38t28.57-12.36q17.19-3.85,31-.91a46,46,0,0,1,23,11.85q9.17,8.91,12.35,22.82Z"/><path class="cls-1" d="M1382.87,1661.72q10.17,22.07,8.55,41.14a63.09,63.09,0,0,1-12.61,33.57,74.91,74.91,0,0,1-28.93,22.75q-18.06,8.31-36.22,7.18A63.39,63.39,0,0,1,1280,1754q-15.52-11.19-25.62-33.13t-8.58-41.12a62.92,62.92,0,0,1,12.54-33.54,79.4,79.4,0,0,1,65.13-30,63,63,0,0,1,33.7,12.23Q1372.72,1639.66,1382.87,1661.72Zm-36.9,17q-5.46-11.87-12.35-18.59t-14.93-8.13q-8-1.42-16.94,2.68t-13.06,11.13q-4.14,7-3.52,16.64t6.1,21.47q5.46,11.86,12.35,18.59t14.93,8.14q8.06,1.41,17-2.69t13-11.13q4.15-7,3.52-16.64T1346,1678.71Z"/><path class="cls-1" d="M1453.77,1702l-87.26-116.37,50.23-37.66q13-9.72,26.21-12.29a44.18,44.18,0,0,1,25.3,2.25q12,4.81,21.33,17.2t10.27,25.24a43,43,0,0,1-5.8,24.58q-6.69,11.86-20,21.83l-30,22.5-18.4-24.55,23.63-17.73a35.69,35.69,0,0,0,8.48-8.53,15,15,0,0,0,2.73-9q-.16-4.67-3.87-9.61a17.88,17.88,0,0,0-8.25-6.55,15.53,15.53,0,0,0-9.57-.1,33.46,33.46,0,0,0-10.65,5.63l-11.14,8.35,68.35,91.14Zm28.14-104.54,69.14,31.6-34.32,25.73-68.46-32.1Z"/></svg>